<svg version="1.2" xmlns="http://www.w3.org/2000/svg" viewBox="0 0 329 209" width="329" height="209">
	<title>api-svg</title>
	<style>
		.s0 { fill: #1b262f } 
		.s1 { fill: #fbfcfe } 
		.s2 { fill: #2e3f4d } 
		.s3 { fill: #ba4270 } 
		.s4 { fill: #527695 } 
		.s5 { fill: #36536b } 
	</style>
	<g id="Group 14">
		<g id="Rectangle">
			<path id="Layer" class="s0" d="m1 8c0-4.4 3.6-8 8-8h312c4.4 0 8 3.6 8 8v193c0 4.4-3.6 8-8 8h-312c-4.4 0-8-3.6-8-8z"/>
		</g>
		<path id="&lt;form id=&quot;form-id&quot; m" fill-rule="evenodd" class="s1" d="m22.8 55.1l-0.2 0.1h0.2l2.7 1.1v0.8l-3.8-1.6v-0.7l3.8-1.6v0.8zm5.6 2.9v-4.1h-1.3v-0.6h1.3v-0.3q0-0.5 0.1-0.8 0.1-0.4 0.4-0.6 0.2-0.3 0.6-0.4 0.3-0.1 0.7-0.1 0.3 0 0.6 0.1 0.3 0 0.6 0.1l-0.1 0.7q-0.2-0.1-0.5-0.2-0.2 0-0.5 0-0.5 0-0.8 0.3-0.3 0.3-0.3 0.9v0.3h1.8v0.6h-1.8v4.1zm4-2.4q0-0.5 0.1-0.9 0.2-0.5 0.4-0.8 0.3-0.3 0.7-0.5 0.4-0.2 0.9-0.2 0.5 0 0.9 0.2 0.4 0.2 0.7 0.5 0.3 0.3 0.4 0.8 0.2 0.4 0.2 0.9v0.1q0 0.5-0.2 1-0.1 0.4-0.4 0.7-0.3 0.4-0.7 0.5-0.4 0.2-0.9 0.2-0.5 0-0.9-0.2-0.4-0.1-0.7-0.5-0.2-0.3-0.4-0.7-0.1-0.5-0.1-1zm0.8 0.1q0 0.4 0 0.7 0.1 0.3 0.3 0.5 0.2 0.3 0.4 0.4 0.3 0.2 0.6 0.2 0.4 0 0.6-0.2 0.3-0.1 0.4-0.4 0.2-0.2 0.3-0.5 0.1-0.3 0.1-0.7v-0.1q0-0.3-0.1-0.6-0.1-0.4-0.3-0.6-0.1-0.2-0.4-0.4-0.3-0.1-0.6-0.1-0.3 0-0.6 0.1-0.2 0.2-0.4 0.4-0.2 0.2-0.3 0.6 0 0.3 0 0.6zm7.9-2.5q0.1 0 0.2 0 0.2 0 0.3 0 0.1 0 0.2 0.1 0.1 0 0.1 0l-0.1 0.8q-0.2 0-0.4-0.1-0.2 0-0.5 0-0.5 0-0.9 0.3-0.3 0.2-0.5 0.7v3h-0.8v-4.7h0.7l0.1 0.7q0.3-0.3 0.7-0.6 0.4-0.2 0.9-0.2zm2.7 0.1v0.4q0.1-0.2 0.4-0.4 0.2-0.1 0.5-0.1 0.7 0 0.9 0.5 0.2-0.2 0.4-0.4 0.2-0.1 0.5-0.1 0.6 0 0.8 0.3 0.3 0.3 0.3 1v3.5h-0.7v-3.5q0-0.6-0.6-0.6-0.1 0-0.2 0-0.1 0.1-0.2 0.1-0.1 0.1-0.1 0.2-0.1 0.1-0.1 0.2v3.6h-0.8v-3.5q0-0.3-0.1-0.5-0.1-0.1-0.4-0.1-0.2 0-0.4 0.1-0.1 0.1-0.2 0.3v3.7h-0.8v-4.7zm10.6 0h2.4v4h1.6v0.7h-4v-0.7h1.6v-3.3h-1.6zm1.5-1.2q0-0.3 0.1-0.4 0.2-0.1 0.4-0.1 0.2 0 0.4 0.1 0.1 0.1 0.1 0.4 0 0.1-0.1 0.3-0.2 0.1-0.4 0.1-0.2 0-0.4-0.1-0.1-0.2-0.1-0.3zm3.6 3.5q0-0.5 0.2-0.9 0.1-0.5 0.3-0.8 0.3-0.3 0.6-0.5 0.4-0.2 0.8-0.2 0.5 0 0.8 0.2 0.3 0.1 0.5 0.4v-2.5h0.8v6.8h-0.7v-0.5q-0.3 0.2-0.6 0.4-0.3 0.1-0.8 0.1-0.4 0-0.8-0.1-0.3-0.2-0.6-0.6-0.2-0.3-0.3-0.7-0.2-0.5-0.2-1zm0.8 0.1q0 0.4 0.1 0.7 0.1 0.3 0.2 0.5 0.2 0.3 0.4 0.4 0.3 0.1 0.6 0.1 0.2 0 0.4 0 0.2-0.1 0.3-0.1 0.1-0.1 0.2-0.3 0.1-0.1 0.2-0.2v-2.2q-0.1-0.3-0.4-0.5-0.3-0.2-0.7-0.2-0.3 0-0.6 0.1-0.2 0.2-0.4 0.4-0.1 0.3-0.2 0.6-0.1 0.3-0.1 0.6zm8.7-1.1h-3.9v-0.7h3.9zm0 1.8h-3.9v-0.7h3.9zm2.9-4.6v1.6h-0.6v-1.6-0.5h0.6zm1.6 0l-0.1 1.6h-0.5v-1.5-0.6h0.6zm3.6 6.3v-4.1h-1.3v-0.7h1.3v-0.3q0-0.5 0.1-0.8 0.2-0.3 0.4-0.6 0.3-0.2 0.6-0.3 0.4-0.2 0.8-0.2 0.3 0 0.5 0.1 0.3 0 0.6 0.1l-0.1 0.7q-0.2-0.1-0.4-0.1-0.3-0.1-0.5-0.1-0.6 0-0.9 0.3-0.3 0.3-0.3 0.9v0.3h1.9v0.7h-1.9v4.1zm4-2.4q0-0.5 0.1-1 0.2-0.4 0.5-0.8 0.3-0.3 0.7-0.5 0.4-0.2 0.9-0.2 0.5 0 0.9 0.2 0.4 0.2 0.6 0.5 0.3 0.4 0.5 0.8 0.1 0.5 0.1 1v0.1q0 0.5-0.1 0.9-0.2 0.5-0.5 0.8-0.2 0.3-0.6 0.5-0.4 0.2-0.9 0.2-0.5 0-0.9-0.2-0.4-0.2-0.7-0.5-0.3-0.3-0.5-0.8-0.1-0.4-0.1-0.9zm0.8 0.1q0 0.3 0.1 0.6 0.1 0.3 0.2 0.6 0.2 0.2 0.5 0.4 0.2 0.1 0.6 0.1 0.3 0 0.5-0.1 0.3-0.2 0.5-0.4 0.1-0.3 0.2-0.6 0.1-0.3 0.1-0.6v-0.1q0-0.4-0.1-0.7-0.1-0.3-0.2-0.6-0.2-0.2-0.5-0.3-0.2-0.2-0.5-0.2-0.4 0-0.6 0.2-0.3 0.1-0.5 0.3-0.1 0.3-0.2 0.6-0.1 0.3-0.1 0.7zm7.9-2.6q0.2 0 0.3 0.1 0.1 0 0.2 0 0.1 0 0.2 0 0.1 0 0.2 0.1l-0.1 0.8q-0.3-0.1-0.5-0.1-0.2 0-0.4 0-0.6 0-1 0.2-0.3 0.3-0.5 0.7v3.1h-0.8v-4.8h0.8v0.8q0.3-0.4 0.7-0.6 0.4-0.3 0.9-0.3zm2.7 0.1v0.5q0.2-0.3 0.4-0.4 0.2-0.2 0.6-0.2 0.6 0 0.9 0.6 0.1-0.3 0.3-0.4 0.3-0.2 0.6-0.2 0.5 0 0.8 0.4 0.3 0.3 0.3 0.9v3.6h-0.8v-3.6q0-0.6-0.6-0.6-0.1 0-0.2 0.1-0.1 0-0.2 0.1-0.1 0-0.1 0.1 0 0.1 0 0.2v3.7h-0.8v-3.6q0-0.3-0.1-0.4-0.2-0.2-0.4-0.2-0.3 0-0.4 0.1-0.2 0.1-0.2 0.3v3.8h-0.8v-4.8zm8.6 2.3h-3.4v-0.6h3.4zm1.9-2.3h2.5v4h1.5v0.7h-4v-0.7h1.7v-3.3h-1.7zm1.6-1.3q0-0.2 0.1-0.3 0.1-0.2 0.3-0.2 0.3 0 0.4 0.2 0.1 0.1 0.1 0.3 0 0.2-0.1 0.4-0.1 0.1-0.4 0.1-0.2 0-0.3-0.1-0.1-0.2-0.1-0.4zm3.6 3.6q0-0.5 0.1-1 0.1-0.4 0.4-0.7 0.2-0.4 0.6-0.5 0.3-0.2 0.8-0.2 0.4 0 0.7 0.1 0.3 0.2 0.6 0.4v-2.4h0.8v6.7h-0.8v-0.5q-0.2 0.3-0.6 0.5-0.3 0.1-0.7 0.1-0.5 0-0.8-0.2-0.4-0.2-0.6-0.5-0.3-0.3-0.4-0.7-0.1-0.5-0.1-1zm0.8 0.1q0 0.3 0.1 0.7 0 0.3 0.2 0.5 0.1 0.2 0.4 0.4 0.2 0.1 0.6 0.1 0.2 0 0.3 0 0.2-0.1 0.3-0.2 0.2-0.1 0.3-0.2 0.1-0.1 0.2-0.3v-2.2q-0.2-0.3-0.5-0.4-0.2-0.2-0.6-0.2-0.4 0-0.6 0.1-0.3 0.1-0.4 0.4-0.2 0.2-0.2 0.5-0.1 0.4-0.1 0.7zm6.2-3.9l-0.1 1.6h-0.6v-1.6-0.5h0.7zm1.5 0v1.6h-0.6v-1.6-0.5h0.7zm8.1 1.5v0.5q0.2-0.3 0.4-0.4 0.2-0.2 0.6-0.2 0.6 0 0.9 0.5 0.1-0.2 0.3-0.3 0.3-0.2 0.6-0.2 0.5 0 0.8 0.3 0.3 0.4 0.3 1v3.6h-0.8v-3.6q0-0.6-0.5-0.6-0.2 0-0.3 0.1-0.1 0-0.2 0.1 0 0-0.1 0.1 0 0.1 0 0.2v3.7h-0.8v-3.6q0-0.3-0.1-0.4-0.2-0.2-0.4-0.2-0.3 0-0.4 0.1-0.2 0.1-0.2 0.3v3.8h-0.8v-4.8zm7.1 4.9q-0.5 0-0.9-0.2-0.4-0.2-0.7-0.5-0.3-0.3-0.5-0.7-0.2-0.4-0.2-0.9v-0.2q0-0.6 0.2-1.1 0.2-0.4 0.5-0.7 0.3-0.3 0.7-0.5 0.4-0.2 0.8-0.2 0.5 0 0.9 0.2 0.4 0.2 0.6 0.5 0.3 0.3 0.4 0.7 0.2 0.5 0.2 1v0.3h-3.4q0 0.3 0.1 0.6 0.1 0.3 0.3 0.5 0.2 0.2 0.5 0.4 0.2 0.1 0.6 0.1 0.4 0 0.7-0.2 0.4-0.2 0.6-0.4l0.5 0.3q-0.1 0.2-0.3 0.4-0.2 0.1-0.4 0.3-0.2 0.1-0.5 0.2-0.3 0.1-0.7 0.1zm-0.1-4.3q-0.2 0-0.5 0.1-0.2 0.1-0.4 0.2-0.1 0.2-0.3 0.5-0.1 0.2-0.1 0.6h2.5v-0.1q0-0.2-0.1-0.5 0-0.2-0.2-0.4-0.1-0.2-0.4-0.3-0.2-0.1-0.5-0.1zm5.3-1.7v1.1h1.9v0.6h-1.9v2.6q0 0.3 0.1 0.5 0.1 0.2 0.2 0.3 0.1 0.1 0.3 0.1 0.2 0.1 0.3 0.1 0.2 0 0.3 0 0.1-0.1 0.3-0.1 0.1 0 0.2 0 0.1-0.1 0.2-0.1l0.1 0.6q-0.1 0.1-0.2 0.1-0.2 0.1-0.3 0.1-0.2 0-0.4 0-0.2 0.1-0.4 0.1-0.3 0-0.6-0.1-0.2-0.1-0.4-0.3-0.2-0.2-0.4-0.5-0.1-0.3-0.1-0.8v-2.6h-1.2v-0.6h1.2v-1.1zm4.3 1.8q0.3-0.4 0.6-0.6 0.4-0.2 0.9-0.2 0.4 0 0.7 0.1 0.3 0.1 0.5 0.4 0.2 0.2 0.3 0.5 0.1 0.4 0.1 0.9v3h-0.8v-3q0-0.6-0.3-0.9-0.2-0.3-0.8-0.3-0.3 0-0.7 0.2-0.3 0.2-0.5 0.5v3.5h-0.8v-6.8h0.8zm4.4 1.6q0-0.5 0.1-0.9 0.2-0.5 0.5-0.8 0.2-0.3 0.6-0.5 0.4-0.2 0.9-0.2 0.5 0 0.9 0.2 0.5 0.2 0.7 0.5 0.3 0.3 0.5 0.8 0.1 0.4 0.1 0.9v0.1q0 0.6-0.1 1-0.2 0.4-0.5 0.8-0.2 0.3-0.6 0.5-0.4 0.2-0.9 0.2-0.6 0-1-0.2-0.4-0.2-0.6-0.5-0.3-0.4-0.5-0.8-0.1-0.4-0.1-1zm0.8 0.1q0 0.4 0.1 0.7 0.1 0.3 0.2 0.6 0.2 0.2 0.5 0.3 0.2 0.2 0.6 0.2 0.3 0 0.5-0.2 0.3-0.1 0.5-0.3 0.1-0.3 0.2-0.6 0.1-0.3 0.1-0.7v-0.1q0-0.3-0.1-0.6-0.1-0.3-0.2-0.6-0.2-0.2-0.5-0.4-0.2-0.1-0.6-0.1-0.3 0-0.5 0.1-0.3 0.2-0.5 0.4-0.1 0.3-0.2 0.6-0.1 0.3-0.1 0.6zm4.7-0.1q0-0.5 0.1-0.9 0.1-0.5 0.4-0.8 0.2-0.3 0.6-0.5 0.3-0.2 0.8-0.2 0.4 0 0.7 0.2 0.3 0.1 0.6 0.4v-2.5h0.8v6.8h-0.8v-0.5q-0.2 0.3-0.6 0.4-0.3 0.2-0.7 0.2-0.5 0-0.8-0.2-0.4-0.2-0.6-0.5-0.3-0.4-0.4-0.8-0.1-0.5-0.1-1zm0.8 0.1q0 0.4 0.1 0.7 0 0.3 0.2 0.5 0.1 0.3 0.4 0.4 0.2 0.2 0.6 0.2 0.2 0 0.3-0.1 0.2 0 0.3-0.1 0.2-0.1 0.3-0.2 0.1-0.2 0.2-0.3v-2.2q-0.2-0.3-0.5-0.5-0.2-0.2-0.6-0.2-0.4 0-0.6 0.1-0.3 0.2-0.4 0.4-0.2 0.3-0.2 0.6-0.1 0.3-0.1 0.6zm8.6-1.1h-3.9v-0.7h3.9zm0 1.9h-3.9v-0.7h3.9zm3-4.7l-0.1 1.6h-0.6v-1.5-0.6h0.7zm1.6 0l-0.1 1.6h-0.6v-1.5-0.6h0.7zm6.5 5.5q-0.4 0.4-0.9 0.7-0.6 0.2-1.2 0.2-0.4 0-0.7-0.1-0.4-0.2-0.6-0.4-0.3-0.2-0.5-0.4-0.2-0.3-0.3-0.6-0.1-0.4-0.2-0.7-0.1-0.4-0.1-0.7v-0.8q0-0.3 0.1-0.7 0-0.3 0.2-0.7 0.1-0.3 0.3-0.6 0.2-0.2 0.4-0.4 0.3-0.3 0.6-0.4 0.3-0.1 0.7-0.1 0.5 0 0.8 0.2 0.4 0.1 0.7 0.3 0.3 0.3 0.5 0.7 0.1 0.3 0.2 0.8h-0.8q-0.1-0.3-0.2-0.5-0.1-0.3-0.3-0.4-0.1-0.2-0.3-0.3-0.3-0.1-0.6-0.1-0.3 0-0.5 0.1-0.2 0.1-0.4 0.3-0.1 0.1-0.3 0.4-0.1 0.2-0.1 0.4-0.1 0.3-0.1 0.5-0.1 0.3-0.1 0.5v0.8q0 0.2 0.1 0.5 0 0.2 0.1 0.5 0.1 0.2 0.2 0.4 0.1 0.3 0.3 0.4 0.2 0.2 0.4 0.3 0.2 0.1 0.5 0.1 0.2 0 0.4 0 0.1 0 0.3-0.1 0.2 0 0.3-0.1 0.2-0.1 0.3-0.3v-1.4h-1.3v-0.7h2.1zm4.8-2.1h-2.7v2.3h3.1v0.6h-3.9v-6.3h3.9v0.6h-3.1v2.1h2.7zm6.2-2.7h-2v5.7h-0.8v-5.7h-2v-0.7h4.8zm2.5-0.6l-0.1 1.6h-0.6v-1.5-0.6h0.7zm1.6 0l-0.1 1.6h-0.6v-1.5-0.6h0.7zm2.4 2.3v-0.8l3.8 1.6v0.7l-3.8 1.6v-0.8l2.8-1.1h0.3l-0.3-0.1zm11.8 1l-0.2 0.1 0.2 0.1 2.7 1v0.9l-3.7-1.7v-0.6l3.7-1.7v0.9zm5.5 3.5h-0.8l2.7-7h0.7zm5.6-0.5v-4.2h-1.3v-0.6h1.3v-0.3q0-0.5 0.1-0.8 0.2-0.4 0.4-0.6 0.2-0.2 0.6-0.4 0.3-0.1 0.7-0.1 0.3 0 0.6 0.1 0.3 0 0.6 0.1l-0.1 0.7q-0.2-0.1-0.4-0.1-0.3-0.1-0.5-0.1-0.6 0-0.9 0.3-0.3 0.3-0.3 0.9v0.3h1.8v0.6h-1.8v4.2zm4-2.5q0-0.5 0.1-0.9 0.2-0.5 0.4-0.8 0.3-0.3 0.7-0.5 0.4-0.2 0.9-0.2 0.5 0 0.9 0.2 0.4 0.2 0.7 0.5 0.3 0.3 0.4 0.8 0.2 0.4 0.2 0.9v0.1q0 0.6-0.2 1-0.1 0.4-0.4 0.8-0.3 0.3-0.7 0.5-0.4 0.2-0.9 0.2-0.5 0-0.9-0.2-0.4-0.2-0.7-0.5-0.2-0.4-0.4-0.8-0.1-0.4-0.1-1zm0.8 0.1q0 0.4 0.1 0.7 0 0.3 0.2 0.6 0.2 0.2 0.4 0.3 0.3 0.2 0.6 0.2 0.4 0 0.6-0.2 0.3-0.1 0.4-0.3 0.2-0.3 0.3-0.6 0.1-0.3 0.1-0.7v-0.1q0-0.3-0.1-0.6-0.1-0.3-0.3-0.6-0.1-0.2-0.4-0.4-0.2-0.1-0.6-0.1-0.3 0-0.6 0.1-0.2 0.2-0.4 0.4-0.2 0.3-0.2 0.6-0.1 0.3-0.1 0.6zm7.9-2.5q0.1 0 0.3 0 0.1 0 0.2 0.1 0.1 0 0.2 0 0.1 0 0.2 0l-0.2 0.8q-0.2 0-0.4 0-0.2-0.1-0.5-0.1-0.5 0-0.9 0.3-0.3 0.2-0.5 0.7v3.1h-0.8v-4.8h0.8v0.8q0.3-0.4 0.7-0.7 0.4-0.2 0.9-0.2zm2.7 0.1v0.5q0.1-0.3 0.4-0.4 0.2-0.2 0.6-0.2 0.6 0 0.8 0.5 0.2-0.2 0.4-0.3 0.2-0.2 0.6-0.2 0.5 0 0.8 0.3 0.2 0.4 0.2 1v3.6h-0.7v-3.6q0-0.6-0.6-0.6-0.1 0-0.2 0-0.1 0.1-0.2 0.2-0.1 0-0.1 0.1-0.1 0.1-0.1 0.2v3.7h-0.7v-3.6q0-0.3-0.2-0.4-0.1-0.2-0.4-0.2-0.2 0-0.4 0.1-0.1 0.1-0.2 0.3v3.8h-0.7v-4.8zm5 0.8v-0.9l3.9 1.7v0.6l-3.9 1.7v-0.8l2.8-1.1 0.3-0.1-0.3-0.1zm-209.8 17.1l-0.2 0.1 0.2 0.1 2.7 1v0.9l-3.7-1.7v-0.7l3.7-1.6v0.8zm7.6 1.7q0-0.1-0.1-0.3 0-0.1-0.2-0.2-0.1-0.1-0.3-0.1-0.3-0.1-0.6-0.2-0.4-0.1-0.7-0.2-0.4-0.1-0.6-0.3-0.3-0.1-0.4-0.4-0.1-0.2-0.1-0.5 0-0.3 0.1-0.5 0.2-0.3 0.4-0.5 0.2-0.2 0.6-0.3 0.3-0.1 0.7-0.1 0.5 0 0.8 0.1 0.4 0.1 0.6 0.4 0.3 0.2 0.4 0.4 0.1 0.3 0.1 0.6h-0.8q0-0.1-0.1-0.3 0-0.1-0.2-0.3-0.1-0.1-0.3-0.1-0.2-0.1-0.5-0.1-0.2 0-0.4 0-0.2 0.1-0.3 0.2-0.2 0.1-0.2 0.2-0.1 0.2-0.1 0.3 0 0.1 0 0.2 0.1 0.1 0.2 0.2 0.2 0.1 0.4 0.2 0.2 0.1 0.5 0.1 0.5 0.1 0.8 0.2 0.4 0.2 0.6 0.3 0.2 0.2 0.4 0.4 0.1 0.3 0.1 0.5 0 0.4-0.2 0.6-0.1 0.3-0.4 0.5-0.2 0.1-0.6 0.3-0.3 0.1-0.7 0.1-0.5 0-0.9-0.2-0.4-0.1-0.6-0.3-0.3-0.2-0.4-0.5-0.2-0.3-0.2-0.6h0.8q0 0.3 0.2 0.4 0.1 0.2 0.3 0.3 0.1 0.1 0.3 0.1 0.3 0.1 0.5 0.1 0.5 0 0.8-0.2 0.3-0.2 0.3-0.5zm4.2 0.7q0.3 0 0.5-0.1 0.2 0 0.3-0.2 0.2-0.1 0.3-0.3 0.1-0.1 0.1-0.3h0.8q0 0.3-0.2 0.6-0.1 0.3-0.4 0.5-0.3 0.2-0.6 0.3-0.4 0.2-0.8 0.2-0.5 0-0.9-0.2-0.4-0.2-0.7-0.6-0.2-0.3-0.4-0.7-0.1-0.4-0.1-0.9v-0.2q0-0.5 0.1-0.9 0.2-0.4 0.4-0.8 0.3-0.3 0.7-0.5 0.4-0.2 0.9-0.2 0.5 0 0.8 0.2 0.4 0.1 0.6 0.3 0.3 0.3 0.4 0.6 0.2 0.3 0.2 0.6h-0.8q0-0.2-0.1-0.4-0.1-0.2-0.2-0.3-0.2-0.1-0.4-0.2-0.2-0.1-0.5-0.1-0.3 0-0.6 0.1-0.2 0.2-0.4 0.4-0.2 0.3-0.2 0.6-0.1 0.3-0.1 0.6v0.2q0 0.3 0.1 0.6 0 0.3 0.2 0.5 0.1 0.3 0.4 0.4 0.3 0.2 0.6 0.2zm6.5-4.3q0.2 0 0.3 0 0.1 0 0.2 0.1 0.1 0 0.2 0 0.1 0 0.2 0l-0.1 0.8q-0.3 0-0.5 0-0.2-0.1-0.4-0.1-0.6 0-1 0.3-0.3 0.2-0.5 0.7v3.1h-0.8v-4.8h0.8v0.8q0.3-0.4 0.7-0.7 0.4-0.2 0.9-0.2zm2.5 0.1h2.4v4.1h1.5v0.7h-3.9v-0.7h1.6v-3.4h-1.6zm1.5-1.2q0-0.2 0.1-0.4 0.1-0.1 0.4-0.1 0.2 0 0.3 0.1 0.1 0.2 0.1 0.4 0 0.2-0.1 0.3-0.1 0.1-0.3 0.1-0.3 0-0.4-0.1-0.1-0.1-0.1-0.3zm7.7 3.6q0 0.6-0.1 1-0.1 0.4-0.3 0.8-0.3 0.3-0.6 0.5-0.4 0.2-0.8 0.2-0.5 0-0.8-0.2-0.3-0.1-0.6-0.4v2.3h-0.8v-6.6h0.8v0.5q0.3-0.3 0.6-0.4 0.3-0.2 0.8-0.2 0.4 0 0.8 0.2 0.3 0.2 0.6 0.5 0.2 0.3 0.3 0.8 0.1 0.4 0.1 1zm-0.8-0.1q0-0.4 0-0.7-0.1-0.3-0.3-0.6-0.1-0.2-0.4-0.3-0.2-0.2-0.6-0.2-0.4 0-0.6 0.2-0.3 0.2-0.5 0.5v2.3q0.2 0.2 0.5 0.4 0.2 0.2 0.6 0.2 0.4 0 0.6-0.1 0.3-0.2 0.4-0.4 0.2-0.3 0.3-0.6 0-0.3 0-0.6zm4.2-3.5v1.1h1.8v0.6h-1.8v2.6q0 0.3 0 0.5 0.1 0.2 0.2 0.3 0.2 0.1 0.3 0.1 0.2 0.1 0.4 0.1 0.1 0 0.2 0 0.2-0.1 0.3-0.1 0.1 0 0.2 0 0.2-0.1 0.2-0.1l0.2 0.6q-0.1 0.1-0.3 0.1-0.1 0.1-0.3 0.1-0.2 0-0.4 0-0.2 0.1-0.3 0.1-0.4 0-0.6-0.1-0.3-0.1-0.5-0.3-0.2-0.2-0.3-0.5-0.2-0.3-0.2-0.8v-2.6h-1.2v-0.6h1.2v-1.1zm-20.3 20.6q0-0.1-0.1-0.2-0.1-0.2-0.2-0.3-0.1-0.1-0.3-0.1-0.3-0.1-0.6-0.2-0.4-0.1-0.8-0.2-0.3-0.1-0.5-0.3-0.3-0.1-0.4-0.4-0.1-0.2-0.1-0.5 0-0.3 0.1-0.5 0.1-0.3 0.4-0.5 0.2-0.2 0.6-0.3 0.3-0.1 0.7-0.1 0.5 0 0.8 0.1 0.4 0.2 0.6 0.4 0.3 0.2 0.4 0.4 0.1 0.3 0.1 0.6h-0.8q0-0.1-0.1-0.3 0-0.1-0.2-0.2-0.1-0.2-0.3-0.2-0.2-0.1-0.5-0.1-0.2 0-0.4 0.1-0.2 0-0.4 0.1-0.1 0.1-0.2 0.2 0 0.2 0 0.3 0 0.1 0 0.2 0.1 0.2 0.2 0.2 0.1 0.1 0.4 0.2 0.2 0.1 0.5 0.1 0.5 0.1 0.8 0.3 0.3 0.1 0.6 0.2 0.2 0.2 0.3 0.4 0.2 0.3 0.2 0.6 0 0.3-0.2 0.5-0.1 0.3-0.4 0.5-0.2 0.2-0.6 0.3-0.3 0.1-0.8 0.1-0.4 0-0.8-0.2-0.4-0.1-0.7-0.3-0.2-0.2-0.4-0.5-0.1-0.3-0.1-0.6h0.8q0 0.3 0.2 0.4 0.1 0.2 0.2 0.3 0.2 0.1 0.4 0.2 0.2 0 0.4 0 0.6 0 0.9-0.2 0.3-0.2 0.3-0.5zm5.3-3.6q0.1 0 0.3 0 0.1 0 0.2 0.1 0.1 0 0.2 0 0.1 0 0.2 0l-0.2 0.8q-0.2 0-0.4 0-0.2-0.1-0.4-0.1-0.6 0-1 0.3-0.3 0.3-0.5 0.7v3.1h-0.8v-4.8h0.8v0.8q0.3-0.4 0.7-0.6 0.4-0.3 0.9-0.3zm4.3 4.3q0.3 0 0.5-0.1 0.2 0 0.3-0.2 0.2-0.1 0.3-0.3 0.1-0.1 0.1-0.3h0.8q0 0.3-0.2 0.6-0.2 0.3-0.4 0.5-0.3 0.2-0.6 0.3-0.4 0.2-0.8 0.2-0.5 0-0.9-0.2-0.4-0.2-0.7-0.6-0.3-0.3-0.4-0.7-0.1-0.4-0.1-0.9v-0.2q0-0.5 0.1-0.9 0.1-0.4 0.4-0.8 0.3-0.3 0.7-0.5 0.4-0.2 0.9-0.2 0.5 0 0.8 0.2 0.4 0.1 0.6 0.3 0.3 0.3 0.4 0.6 0.2 0.3 0.2 0.7h-0.8q0-0.3-0.1-0.5-0.1-0.1-0.2-0.3-0.2-0.1-0.4-0.2-0.2-0.1-0.5-0.1-0.3 0-0.6 0.2-0.3 0.1-0.4 0.3-0.2 0.3-0.2 0.6-0.1 0.3-0.1 0.6v0.2q0 0.3 0.1 0.6 0 0.3 0.2 0.6 0.1 0.2 0.4 0.4 0.3 0.1 0.6 0.1zm7.3-2.9h-3.9v-0.7h3.9zm0 1.9h-3.9v-0.7h3.9zm3-4.7l-0.1 1.6h-0.6v-1.5-0.6h0.7zm1.5 0v1.6h-0.6v-1.5-0.6h0.7zm3.1 2.3q0.3-0.4 0.7-0.6 0.3-0.2 0.8-0.2 0.4 0 0.7 0.1 0.3 0.1 0.5 0.3 0.2 0.2 0.3 0.6 0.2 0.3 0.2 0.8v3h-0.9v-3q0-0.6-0.2-0.9-0.3-0.3-0.8-0.2-0.4 0-0.7 0.1-0.4 0.2-0.6 0.5v3.5h-0.8v-6.7h0.8zm6.6-1.9v1.1h1.8v0.7h-1.8v2.6q0 0.2 0 0.4 0.1 0.2 0.2 0.3 0.1 0.1 0.3 0.2 0.2 0 0.4 0 0.1 0 0.2 0 0.2 0 0.3-0.1 0.1 0 0.2 0 0.2 0 0.2 0l0.2 0.5q-0.1 0.1-0.3 0.1-0.1 0.1-0.3 0.1-0.2 0.1-0.4 0.1-0.2 0-0.4 0-0.3 0-0.5-0.1-0.3-0.1-0.5-0.3-0.2-0.2-0.3-0.5-0.2-0.3-0.2-0.7v-2.6h-1.2v-0.7h1.2v-1.1zm5.5 0v1.1h1.8v0.7h-1.8v2.6q0 0.2 0 0.4 0.1 0.2 0.2 0.3 0.1 0.1 0.3 0.2 0.2 0 0.3 0 0.2 0 0.3 0 0.2 0 0.3-0.1 0.1 0 0.2 0 0.2 0 0.2 0l0.1 0.5q-0.1 0.1-0.2 0.1-0.1 0.1-0.3 0.1-0.2 0.1-0.4 0.1-0.2 0-0.4 0-0.3 0-0.6-0.1-0.2-0.1-0.4-0.3-0.2-0.2-0.4-0.5-0.1-0.3-0.1-0.7v-2.6h-1.2v-0.7h1.2v-1.1zm7.5 3.6q0 0.5-0.1 0.9-0.1 0.5-0.4 0.8-0.2 0.3-0.5 0.5-0.4 0.2-0.8 0.2-0.5 0-0.8-0.2-0.3-0.1-0.6-0.4v2.3h-0.8v-6.6h0.8v0.6q0.2-0.3 0.6-0.5 0.3-0.1 0.7-0.1 0.5 0 0.9 0.1 0.3 0.2 0.5 0.5 0.3 0.4 0.4 0.8 0.1 0.5 0.1 1zm-0.8-0.1q0-0.4-0.1-0.7 0-0.3-0.2-0.5-0.2-0.3-0.4-0.4-0.3-0.1-0.6-0.1-0.4 0-0.7 0.1-0.2 0.2-0.4 0.5v2.3q0.2 0.3 0.4 0.5 0.3 0.1 0.7 0.1 0.4 0 0.6-0.1 0.2-0.2 0.4-0.4 0.2-0.2 0.2-0.6 0.1-0.3 0.1-0.6zm5.4 1.1q0-0.1-0.1-0.2 0-0.1-0.2-0.2-0.1-0.1-0.3-0.2-0.3-0.1-0.6-0.2-0.4 0-0.7-0.2-0.4-0.1-0.6-0.2-0.3-0.2-0.4-0.4-0.1-0.3-0.1-0.5 0-0.3 0.1-0.6 0.2-0.2 0.4-0.4 0.3-0.2 0.6-0.3 0.3-0.1 0.7-0.1 0.5 0 0.8 0.1 0.4 0.1 0.6 0.3 0.3 0.2 0.4 0.5 0.1 0.2 0.1 0.5h-0.8q0-0.1 0-0.3-0.1-0.1-0.3-0.2-0.1-0.1-0.3-0.2-0.2-0.1-0.5-0.1-0.2 0-0.4 0.1-0.2 0-0.3 0.1-0.2 0.1-0.2 0.3-0.1 0.1-0.1 0.2 0 0.2 0.1 0.3 0 0.1 0.1 0.2 0.2 0.1 0.4 0.1 0.2 0.1 0.5 0.2 0.5 0.1 0.8 0.2 0.4 0.1 0.6 0.3 0.2 0.1 0.4 0.4 0.1 0.2 0.1 0.5 0 0.3-0.2 0.6-0.1 0.2-0.3 0.4-0.3 0.2-0.7 0.3-0.3 0.1-0.7 0.1-0.5 0-0.9-0.1-0.4-0.2-0.6-0.4-0.3-0.2-0.4-0.5-0.2-0.3-0.2-0.6h0.8q0.1 0.3 0.2 0.5 0.1 0.1 0.3 0.2 0.1 0.1 0.3 0.2 0.3 0 0.5 0 0.5 0 0.8-0.2 0.3-0.1 0.3-0.5zm3.9 0.8q0-0.2 0-0.3 0-0.1 0.1-0.2 0.1-0.1 0.2-0.1 0.1-0.1 0.3-0.1 0.2 0 0.3 0.1 0.1 0 0.2 0.1 0.1 0.1 0.1 0.2 0 0.1 0 0.3 0 0.1 0 0.2 0 0.1-0.1 0.2-0.1 0.1-0.2 0.1-0.1 0.1-0.3 0.1-0.2 0-0.3-0.1-0.1 0-0.2-0.1-0.1-0.1-0.1-0.2 0-0.1 0-0.2zm0-3.9q0-0.1 0-0.2 0-0.1 0.1-0.2 0.1-0.1 0.2-0.2 0.1 0 0.3 0 0.2 0 0.3 0 0.1 0.1 0.2 0.2 0.1 0.1 0.1 0.2 0 0.1 0 0.2 0 0.2 0 0.3 0 0.1-0.1 0.2-0.1 0-0.2 0.1-0.1 0-0.3 0-0.2 0-0.3 0-0.1-0.1-0.2-0.1-0.1-0.1-0.1-0.2 0-0.1 0-0.3zm4.8 4.9h-0.7l2.6-6.9h0.8zm5.4 0h-0.8l2.7-6.9h0.7zm4.5-7.3h2.4v6h1.6v0.7h-4v-0.7h1.6v-5.3h-1.6zm5.1 4.3q0-0.5 0.1-1 0.2-0.4 0.4-0.7 0.3-0.4 0.7-0.5 0.4-0.2 0.9-0.2 0.5 0 0.9 0.2 0.4 0.1 0.7 0.5 0.3 0.3 0.4 0.7 0.2 0.5 0.2 1v0.1q0 0.5-0.2 0.9-0.1 0.5-0.4 0.8-0.3 0.3-0.7 0.5-0.4 0.2-0.9 0.2-0.5 0-0.9-0.2-0.4-0.2-0.7-0.5-0.2-0.3-0.4-0.8-0.1-0.4-0.1-0.9zm0.8 0.1q0 0.3 0 0.7 0.1 0.3 0.3 0.5 0.2 0.3 0.4 0.4 0.3 0.1 0.6 0.1 0.4 0 0.6-0.1 0.3-0.1 0.4-0.4 0.2-0.2 0.3-0.5 0.1-0.4 0.1-0.7v-0.1q0-0.4-0.1-0.7-0.1-0.3-0.3-0.5-0.1-0.3-0.4-0.4-0.3-0.2-0.6-0.2-0.3 0-0.6 0.2-0.2 0.1-0.4 0.4-0.2 0.2-0.3 0.5 0 0.3 0 0.7zm7.9-2.5q0.1 0 0.2 0 0.2 0 0.3 0 0.1 0 0.2 0 0.1 0.1 0.1 0.1l-0.1 0.8q-0.2-0.1-0.4-0.1-0.2 0-0.5 0-0.5 0-0.9 0.2-0.3 0.3-0.5 0.8v3h-0.8v-4.7h0.7l0.1 0.7q0.3-0.4 0.7-0.6 0.4-0.2 0.9-0.2zm4.4 4.9q-0.5 0-0.9-0.2-0.4-0.1-0.7-0.4-0.3-0.4-0.5-0.8-0.2-0.4-0.2-0.9v-0.2q0-0.6 0.2-1 0.2-0.5 0.5-0.8 0.3-0.3 0.7-0.5 0.4-0.1 0.8-0.1 0.5 0 0.9 0.2 0.4 0.1 0.6 0.4 0.3 0.4 0.4 0.8 0.1 0.4 0.1 0.9v0.4h-3.4q0 0.3 0.2 0.6 0.1 0.3 0.3 0.5 0.2 0.2 0.4 0.3 0.3 0.1 0.6 0.1 0.5 0 0.8-0.1 0.3-0.2 0.6-0.5l0.5 0.4q-0.2 0.2-0.3 0.3-0.2 0.2-0.4 0.3-0.3 0.1-0.6 0.2-0.3 0.1-0.6 0.1zm-0.1-4.3q-0.3 0-0.5 0.1-0.2 0.1-0.4 0.3-0.2 0.2-0.3 0.4-0.1 0.3-0.1 0.6h2.5v-0.1q0-0.2-0.1-0.4-0.1-0.3-0.2-0.4-0.1-0.2-0.4-0.3-0.2-0.2-0.5-0.2zm3.8-0.5v0.4q0.1-0.2 0.4-0.4 0.2-0.1 0.5-0.1 0.7 0 0.9 0.5 0.2-0.2 0.4-0.4 0.2-0.1 0.5-0.1 0.6 0 0.9 0.3 0.2 0.3 0.2 1v3.5h-0.7v-3.5q0-0.6-0.6-0.6-0.1 0-0.2 0-0.1 0-0.2 0.1-0.1 0.1-0.1 0.2-0.1 0.1-0.1 0.2v3.6h-0.8v-3.5q0-0.3-0.1-0.5-0.1-0.1-0.4-0.1-0.2 0-0.4 0.1-0.1 0.1-0.2 0.2v3.8h-0.8v-4.7zm5.2 0h2.4v4h1.6v0.7h-4v-0.7h1.6v-3.3h-1.6zm1.5-1.3q0-0.2 0.1-0.3 0.2-0.2 0.4-0.2 0.2 0 0.4 0.2 0.1 0.1 0.1 0.3 0 0.2-0.1 0.3-0.2 0.2-0.4 0.2-0.2 0-0.4-0.2-0.1-0.1-0.1-0.3zm7.8 3.7q0 0.5-0.1 1-0.2 0.4-0.4 0.7-0.2 0.3-0.6 0.5-0.3 0.2-0.8 0.2-0.4 0-0.7-0.1-0.4-0.2-0.6-0.4v2.3h-0.8v-6.6h0.7l0.1 0.5q0.2-0.3 0.5-0.5 0.4-0.1 0.8-0.1 0.5 0 0.8 0.2 0.4 0.1 0.6 0.5 0.2 0.3 0.4 0.7 0.1 0.5 0.1 1zm-0.8-0.1q0-0.3-0.1-0.6-0.1-0.4-0.2-0.6-0.2-0.2-0.4-0.4-0.3-0.1-0.6-0.1-0.4 0-0.7 0.2-0.3 0.1-0.4 0.4v2.3q0.1 0.3 0.4 0.5 0.3 0.2 0.7 0.2 0.3 0 0.6-0.2 0.2-0.1 0.4-0.4 0.1-0.2 0.2-0.5 0.1-0.3 0.1-0.7zm5.3 1.2q0-0.2 0-0.3-0.1-0.1-0.2-0.2-0.1-0.1-0.4-0.2-0.2-0.1-0.5-0.1-0.4-0.1-0.8-0.2-0.3-0.2-0.5-0.3-0.3-0.2-0.4-0.4-0.1-0.2-0.1-0.5 0-0.3 0.1-0.6 0.1-0.2 0.4-0.4 0.2-0.2 0.6-0.3 0.3-0.1 0.7-0.1 0.4 0 0.8 0.1 0.3 0.1 0.6 0.3 0.2 0.2 0.4 0.5 0.1 0.3 0.1 0.6h-0.8q0-0.2-0.1-0.3-0.1-0.2-0.2-0.3-0.1-0.1-0.3-0.2-0.2-0.1-0.5-0.1-0.3 0-0.5 0.1-0.1 0.1-0.3 0.2-0.1 0.1-0.2 0.2 0 0.1 0 0.2 0 0.2 0 0.3 0.1 0.1 0.2 0.2 0.1 0.1 0.3 0.2 0.3 0 0.6 0.1 0.4 0.1 0.8 0.2 0.3 0.1 0.6 0.3 0.2 0.2 0.3 0.4 0.2 0.2 0.2 0.5 0 0.3-0.2 0.6-0.1 0.2-0.4 0.4-0.2 0.2-0.6 0.3-0.4 0.1-0.8 0.1-0.5 0-0.8-0.1-0.4-0.1-0.7-0.4-0.2-0.2-0.4-0.5-0.1-0.2-0.1-0.5h0.8q0 0.2 0.1 0.4 0.2 0.2 0.3 0.3 0.2 0.1 0.4 0.1 0.2 0.1 0.4 0.1 0.5 0 0.8-0.2 0.3-0.2 0.3-0.5zm5.4 0.6q-0.3 0.3-0.6 0.5-0.4 0.2-0.8 0.2-0.4 0-0.7-0.1-0.3-0.1-0.5-0.4-0.3-0.2-0.4-0.6-0.1-0.4-0.1-0.9v-2.8h0.8v2.8q0 0.4 0.1 0.6 0.1 0.3 0.2 0.5 0.1 0.1 0.3 0.2 0.2 0 0.4 0 0.5 0 0.8-0.2 0.3-0.2 0.4-0.5v-3.4h0.9v4.7h-0.8zm2.7-4.1v0.5q0.2-0.3 0.4-0.4 0.3-0.2 0.6-0.2 0.6 0 0.9 0.5 0.1-0.2 0.3-0.3 0.3-0.2 0.6-0.2 0.5 0 0.8 0.4 0.3 0.3 0.3 0.9v3.6h-0.8v-3.6q0-0.6-0.5-0.6-0.2 0-0.3 0.1-0.1 0-0.2 0.1 0 0-0.1 0.1 0 0.1 0 0.2v3.7h-0.8v-3.6q0-0.3-0.1-0.4-0.2-0.2-0.4-0.2-0.3 0-0.4 0.1-0.2 0.1-0.2 0.3v3.8h-0.8v-4.8zm6.4 4.3q0-0.2 0.1-0.3 0-0.1 0.1-0.2 0.1-0.1 0.2-0.1 0.1-0.1 0.3-0.1 0.1 0 0.2 0.1 0.2 0 0.2 0.1 0.1 0.1 0.2 0.2 0 0.1 0 0.3 0 0.1 0 0.2-0.1 0.1-0.2 0.2 0 0.1-0.2 0.1-0.1 0.1-0.2 0.1-0.2 0-0.3-0.1-0.1 0-0.2-0.1-0.1-0.1-0.1-0.2-0.1-0.1-0.1-0.2zm6-0.1q0.3 0 0.5-0.1 0.2 0 0.3-0.2 0.2-0.1 0.3-0.3 0.1-0.1 0.1-0.3h0.8q0 0.3-0.2 0.6-0.1 0.3-0.4 0.5-0.3 0.2-0.6 0.3-0.4 0.2-0.8 0.2-0.5 0-0.9-0.2-0.4-0.2-0.7-0.5-0.2-0.4-0.4-0.8-0.1-0.4-0.1-0.9v-0.2q0-0.5 0.1-0.9 0.2-0.4 0.4-0.7 0.3-0.4 0.7-0.6 0.4-0.2 0.9-0.2 0.5 0 0.8 0.2 0.4 0.1 0.6 0.3 0.3 0.3 0.4 0.6 0.2 0.3 0.2 0.7h-0.8q0-0.3-0.1-0.4-0.1-0.2-0.2-0.4-0.2-0.1-0.4-0.2-0.2-0.1-0.5-0.1-0.3 0-0.6 0.2-0.2 0.1-0.4 0.4-0.2 0.2-0.2 0.5-0.1 0.3-0.1 0.6v0.2q0 0.3 0.1 0.6 0 0.3 0.2 0.6 0.2 0.2 0.4 0.4 0.3 0.1 0.6 0.1zm3.2-1.8q0-0.6 0.1-1 0.2-0.4 0.5-0.8 0.3-0.3 0.7-0.5 0.4-0.2 0.9-0.2 0.5 0 0.9 0.2 0.4 0.2 0.6 0.5 0.3 0.4 0.5 0.8 0.1 0.4 0.1 1v0.1q0 0.5-0.1 0.9-0.2 0.4-0.5 0.8-0.2 0.3-0.6 0.5-0.4 0.2-0.9 0.2-0.5 0-0.9-0.2-0.4-0.2-0.7-0.5-0.3-0.4-0.5-0.8-0.1-0.4-0.1-0.9zm0.8 0q0 0.4 0.1 0.7 0.1 0.3 0.2 0.6 0.2 0.2 0.5 0.4 0.2 0.1 0.6 0.1 0.3 0 0.5-0.1 0.3-0.2 0.5-0.4 0.1-0.3 0.2-0.6 0.1-0.3 0.1-0.7 0-0.4-0.1-0.7-0.1-0.3-0.2-0.6-0.2-0.2-0.5-0.4-0.2-0.1-0.5-0.1-0.4 0-0.6 0.1-0.3 0.2-0.5 0.4-0.1 0.3-0.2 0.6-0.1 0.3-0.1 0.7zm5.2-2.5v0.5q0.2-0.3 0.4-0.4 0.2-0.2 0.6-0.2 0.6 0 0.9 0.5 0.1-0.2 0.3-0.3 0.3-0.2 0.6-0.2 0.5 0 0.8 0.4 0.3 0.3 0.3 0.9v3.6h-0.8v-3.6q0-0.6-0.6-0.6-0.1 0-0.2 0.1-0.1 0-0.2 0.1-0.1 0-0.1 0.1 0 0.1 0 0.2v3.7h-0.8v-3.6q0-0.3-0.1-0.4-0.2-0.2-0.4-0.2-0.3 0-0.4 0.1-0.2 0.1-0.2 0.3v3.8h-0.8v-4.8zm6.1 5.3h-0.7l2.6-6.9h0.7zm7.5-0.6q0-0.1-0.1-0.2 0-0.1 0-0.3-0.1 0.1-0.3 0.2-0.1 0.2-0.3 0.2-0.2 0.1-0.4 0.2-0.2 0-0.5 0-0.3 0-0.6-0.1-0.3-0.1-0.6-0.3-0.2-0.2-0.3-0.4-0.1-0.3-0.1-0.6 0-0.4 0.2-0.7 0.1-0.3 0.4-0.5 0.3-0.2 0.7-0.3 0.4-0.1 0.9-0.1h0.9v-0.3q0-0.2-0.1-0.4-0.1-0.2-0.2-0.3-0.2-0.1-0.4-0.2-0.2-0.1-0.5-0.1-0.2 0-0.4 0.1-0.2 0.1-0.3 0.2-0.1 0.1-0.2 0.2-0.1 0.1-0.1 0.3h-0.8q0-0.3 0.1-0.5 0.2-0.3 0.4-0.5 0.2-0.2 0.6-0.3 0.3-0.1 0.8-0.1 0.4 0 0.7 0.1 0.4 0.1 0.6 0.3 0.3 0.2 0.4 0.5 0.2 0.3 0.2 0.7v2.2q0 0.2 0 0.5 0.1 0.3 0.2 0.5zm-1.5-0.6q0.3 0 0.5-0.1 0.2 0 0.3-0.1 0.2-0.1 0.3-0.2 0.2-0.2 0.2-0.3v-1h-0.7q-0.7 0-1.1 0.2-0.4 0.2-0.4 0.7 0 0.2 0 0.3 0.1 0.2 0.2 0.3 0.1 0.1 0.3 0.1 0.2 0.1 0.4 0.1zm7.7-1.7q0 0.5-0.1 1-0.1 0.4-0.3 0.7-0.3 0.3-0.6 0.5-0.4 0.2-0.8 0.2-0.5 0-0.8-0.1-0.3-0.2-0.6-0.4v2.3h-0.8v-6.6h0.8v0.5q0.2-0.3 0.6-0.5 0.3-0.1 0.8-0.1 0.4 0 0.8 0.2 0.3 0.1 0.6 0.5 0.2 0.3 0.3 0.7 0.1 0.5 0.1 1zm-0.8-0.1q0-0.3 0-0.6-0.1-0.4-0.3-0.6-0.1-0.2-0.4-0.4-0.2-0.1-0.6-0.1-0.4 0-0.6 0.2-0.3 0.2-0.5 0.4v2.3q0.2 0.3 0.5 0.5 0.2 0.2 0.6 0.2 0.4 0 0.6-0.2 0.3-0.1 0.4-0.4 0.2-0.2 0.3-0.5 0-0.3 0-0.7zm2.4-2.3h2.4v4h1.5v0.7h-3.9v-0.7h1.6v-3.3h-1.6zm1.5-1.3q0-0.2 0.1-0.3 0.1-0.1 0.4-0.1 0.2 0 0.3 0.1 0.2 0.1 0.2 0.3 0 0.2-0.2 0.4-0.1 0.1-0.3 0.1-0.3 0-0.4-0.1-0.1-0.2-0.1-0.4zm5.2 5.5q0-0.1 0-0.2 0-0.1 0.1-0.2 0.1-0.1 0.2-0.2 0.1 0 0.3 0 0.2 0 0.3 0 0.1 0.1 0.2 0.2 0.1 0.1 0.1 0.2 0 0.1 0 0.2 0 0.1 0 0.3 0 0.1-0.1 0.1-0.1 0.1-0.2 0.2-0.1 0-0.3 0-0.2 0-0.3 0-0.1-0.1-0.2-0.2-0.1 0-0.1-0.1 0-0.2 0-0.3zm4.5-4.2h2.4v4.8q0 0.4-0.1 0.8-0.2 0.3-0.4 0.6-0.2 0.2-0.6 0.3-0.3 0.2-0.8 0.2-0.2 0-0.4-0.1-0.2 0-0.5 0l0.1-0.7q0 0 0.2 0 0.1 0.1 0.2 0.1 0.1 0 0.2 0 0.1 0 0.2 0 0.2 0 0.4-0.1 0.2 0 0.4-0.2 0.1-0.1 0.2-0.4 0.1-0.2 0.1-0.5v-4.1h-1.6zm1.5-1.3q0-0.2 0.1-0.3 0.1-0.1 0.4-0.1 0.2 0 0.3 0.1 0.1 0.1 0.1 0.3 0 0.2-0.1 0.4-0.1 0.1-0.3 0.1-0.3 0-0.4-0.1-0.1-0.2-0.1-0.4zm6.5 4.8q0-0.2 0-0.3-0.1-0.1-0.2-0.2-0.2-0.1-0.4-0.2-0.2 0-0.6-0.1-0.4-0.1-0.7-0.2-0.3-0.1-0.6-0.3-0.2-0.2-0.3-0.4-0.2-0.2-0.2-0.5 0-0.3 0.2-0.5 0.1-0.3 0.3-0.5 0.3-0.2 0.6-0.3 0.4-0.1 0.8-0.1 0.4 0 0.8 0.1 0.3 0.1 0.6 0.3 0.2 0.2 0.3 0.5 0.2 0.3 0.2 0.6h-0.8q0-0.2-0.1-0.3-0.1-0.2-0.2-0.3-0.2-0.1-0.4-0.2-0.2 0-0.4 0-0.3 0-0.5 0-0.2 0.1-0.3 0.2-0.1 0.1-0.2 0.2-0.1 0.1-0.1 0.3 0 0.1 0.1 0.2 0 0.1 0.2 0.2 0.1 0.1 0.3 0.2 0.2 0 0.6 0.1 0.4 0.1 0.8 0.2 0.3 0.1 0.5 0.3 0.3 0.2 0.4 0.4 0.1 0.2 0.1 0.5 0 0.3-0.1 0.6-0.2 0.3-0.4 0.4-0.3 0.2-0.6 0.3-0.4 0.1-0.8 0.1-0.5 0-0.9-0.1-0.3-0.1-0.6-0.3-0.3-0.3-0.4-0.5-0.1-0.3-0.1-0.6h0.8q0 0.2 0.1 0.4 0.1 0.2 0.3 0.3 0.2 0.1 0.4 0.1 0.2 0.1 0.4 0.1 0.5 0 0.8-0.2 0.3-0.2 0.3-0.5zm3.7-5l-0.1 1.6h-0.5v-1.6-0.5h0.6zm1.6 0l-0.1 1.6h-0.6v-1.5-0.6h0.7zm-187 19.9q0-0.6 0.2-1 0.1-0.5 0.3-0.8 0.3-0.3 0.6-0.5 0.4-0.2 0.8-0.2 0.5 0 0.8 0.2 0.3 0.1 0.5 0.4v-2.5h0.8v6.8h-0.7v-0.5q-0.3 0.3-0.6 0.4-0.3 0.2-0.8 0.2-0.4 0-0.8-0.2-0.3-0.2-0.5-0.5-0.3-0.3-0.4-0.8-0.2-0.4-0.2-0.9zm0.8 0.1q0 0.3 0.1 0.6 0.1 0.3 0.2 0.6 0.2 0.2 0.4 0.3 0.3 0.2 0.6 0.2 0.2 0 0.4-0.1 0.2 0 0.3-0.1 0.1-0.1 0.2-0.2 0.2-0.1 0.2-0.3v-2.2q-0.1-0.3-0.4-0.5-0.3-0.2-0.7-0.2-0.3 0-0.6 0.2-0.2 0.1-0.4 0.4-0.1 0.2-0.2 0.5-0.1 0.3-0.1 0.7zm7.9 2.3q0-0.1-0.1-0.2 0-0.2 0-0.3-0.1 0.1-0.3 0.2-0.1 0.1-0.3 0.2-0.2 0.1-0.4 0.1-0.2 0.1-0.4 0.1-0.4 0-0.7-0.1-0.3-0.1-0.5-0.3-0.3-0.2-0.4-0.5-0.1-0.2-0.1-0.5 0-0.4 0.2-0.7 0.1-0.3 0.4-0.5 0.3-0.2 0.7-0.3 0.4-0.1 0.9-0.1h0.9v-0.4q0-0.2-0.1-0.4-0.1-0.1-0.2-0.2-0.2-0.2-0.4-0.2-0.2-0.1-0.4-0.1-0.3 0-0.5 0.1-0.2 0-0.3 0.1-0.1 0.1-0.2 0.3-0.1 0.1-0.1 0.3h-0.8q0-0.3 0.1-0.6 0.2-0.2 0.4-0.4 0.3-0.2 0.6-0.3 0.4-0.2 0.8-0.2 0.4 0 0.8 0.1 0.3 0.1 0.6 0.3 0.2 0.2 0.4 0.5 0.1 0.3 0.1 0.7v2.3q0 0.2 0 0.5 0.1 0.2 0.2 0.4v0.1zm-1.5-0.6q0.3 0 0.5-0.1 0.2-0.1 0.3-0.2 0.2-0.1 0.3-0.2 0.2-0.1 0.2-0.3v-0.9h-0.7q-0.7 0-1.1 0.2-0.4 0.2-0.4 0.7 0 0.1 0 0.3 0.1 0.1 0.2 0.2 0.1 0.1 0.3 0.2 0.2 0.1 0.4 0.1zm5.7-5.3v1.1h1.8v0.7h-1.8v2.5q0 0.3 0 0.5 0.1 0.2 0.2 0.3 0.2 0.1 0.3 0.1 0.2 0.1 0.4 0.1 0.1 0 0.2 0 0.2 0 0.3-0.1 0.1 0 0.3 0 0.1 0 0.1-0.1l0.2 0.6q-0.1 0.1-0.3 0.1-0.1 0.1-0.3 0.1-0.2 0-0.4 0.1-0.2 0-0.3 0-0.4 0-0.6-0.1-0.3-0.1-0.5-0.3-0.2-0.2-0.3-0.5-0.1-0.3-0.1-0.8v-2.5h-1.3v-0.7h1.3v-1.1zm6.6 5.9q-0.1-0.1-0.1-0.2 0-0.2-0.1-0.3-0.1 0.1-0.2 0.2-0.2 0.1-0.4 0.2-0.2 0.1-0.4 0.1-0.2 0.1-0.4 0.1-0.4 0-0.7-0.1-0.3-0.1-0.5-0.3-0.2-0.2-0.3-0.5-0.1-0.2-0.1-0.5 0-0.4 0.1-0.7 0.2-0.3 0.5-0.5 0.2-0.2 0.6-0.3 0.4-0.1 0.9-0.1h0.9v-0.4q0-0.2-0.1-0.4 0-0.1-0.2-0.2-0.1-0.2-0.3-0.2-0.2-0.1-0.5-0.1-0.2 0-0.4 0.1-0.2 0-0.4 0.1-0.1 0.1-0.2 0.3 0 0.1 0 0.3h-0.9q0.1-0.3 0.2-0.6 0.1-0.2 0.4-0.4 0.2-0.2 0.5-0.3 0.4-0.2 0.8-0.2 0.4 0 0.8 0.1 0.3 0.1 0.6 0.3 0.2 0.2 0.4 0.5 0.1 0.3 0.1 0.7v2.3q0 0.2 0.1 0.5 0 0.2 0.1 0.4v0.1zm-1.4-0.6q0.2 0 0.4-0.1 0.2-0.1 0.4-0.2 0.2-0.1 0.3-0.2 0.1-0.1 0.2-0.3v-0.9h-0.8q-0.7 0-1.1 0.2-0.4 0.2-0.4 0.7 0 0.1 0.1 0.3 0 0.1 0.2 0.2 0.1 0.1 0.3 0.2 0.1 0.1 0.4 0.1zm7.2-1.9h-3.3v-0.6h3.3zm3.9 1.8q0.2 0 0.4 0 0.3-0.1 0.4-0.2 0.2-0.1 0.3-0.3 0.1-0.2 0.1-0.4h0.8q-0.1 0.3-0.2 0.6-0.2 0.3-0.4 0.5-0.3 0.3-0.7 0.4-0.3 0.1-0.7 0.1-0.5 0-0.9-0.2-0.4-0.2-0.7-0.5-0.3-0.3-0.4-0.8-0.1-0.4-0.1-0.9v-0.1q0-0.5 0.1-1 0.1-0.4 0.4-0.7 0.3-0.3 0.7-0.5 0.4-0.2 0.9-0.2 0.4 0 0.8 0.1 0.3 0.1 0.6 0.4 0.3 0.2 0.4 0.5 0.2 0.3 0.2 0.7h-0.8q0-0.2-0.1-0.4-0.1-0.2-0.3-0.3-0.1-0.2-0.3-0.3-0.2-0.1-0.5-0.1-0.4 0-0.6 0.2-0.3 0.1-0.4 0.4-0.2 0.2-0.3 0.5 0 0.3 0 0.7v0.1q0 0.3 0 0.7 0.1 0.3 0.3 0.5 0.1 0.2 0.4 0.4 0.2 0.1 0.6 0.1zm3.5-6.1h2.5v6h1.5v0.7h-4v-0.7h1.6v-5.3h-1.6zm5.4 2h2.5v4h1.5v0.7h-4v-0.7h1.6v-3.3h-1.6zm1.5-1.3q0-0.2 0.2-0.3 0.1-0.1 0.3-0.1 0.3 0 0.4 0.1 0.1 0.1 0.1 0.3 0 0.2-0.1 0.4-0.1 0.1-0.4 0.1-0.2 0-0.3-0.1-0.2-0.2-0.2-0.4zm5.9 6.1q-0.5 0-0.9-0.1-0.4-0.2-0.7-0.5-0.3-0.3-0.5-0.8-0.2-0.4-0.2-0.9v-0.2q0-0.5 0.2-1 0.2-0.4 0.5-0.8 0.3-0.3 0.7-0.4 0.4-0.2 0.8-0.2 0.5 0 0.9 0.2 0.4 0.2 0.6 0.5 0.3 0.3 0.4 0.7 0.1 0.4 0.1 0.9v0.4h-3.4q0.1 0.3 0.2 0.6 0.1 0.3 0.3 0.5 0.2 0.2 0.4 0.3 0.3 0.2 0.7 0.2 0.4 0 0.7-0.2 0.4-0.2 0.6-0.5l0.5 0.4q-0.1 0.2-0.3 0.4-0.2 0.1-0.4 0.2-0.3 0.2-0.6 0.2-0.2 0.1-0.6 0.1zm-0.1-4.2q-0.2 0-0.5 0.1-0.2 0-0.4 0.2-0.1 0.2-0.3 0.4-0.1 0.3-0.1 0.6h2.5q0-0.3-0.1-0.5 0-0.2-0.2-0.4-0.1-0.2-0.4-0.3-0.2-0.1-0.5-0.1zm4.1-0.6l0.1 0.7q0.3-0.4 0.6-0.6 0.4-0.2 0.9-0.2 0.4 0 0.7 0.1 0.3 0.1 0.5 0.3 0.2 0.3 0.3 0.6 0.1 0.3 0.1 0.8v3h-0.8v-3q0-0.3-0.1-0.5 0-0.2-0.2-0.4-0.1-0.1-0.3-0.2-0.2 0-0.5 0-0.4 0-0.7 0.2-0.3 0.2-0.5 0.5v3.4h-0.8v-4.7zm6.6-1.2v1.2h1.8v0.6h-1.8v2.6q0 0.3 0.1 0.5 0.1 0.1 0.2 0.2 0.1 0.1 0.3 0.2 0.1 0 0.3 0 0.1 0 0.3 0 0.1 0 0.2 0 0.2 0 0.3-0.1 0.1 0 0.2 0l0.1 0.6q-0.1 0-0.2 0.1-0.2 0-0.4 0.1-0.1 0-0.3 0-0.2 0-0.4 0-0.3 0-0.6-0.1-0.3-0.1-0.5-0.2-0.2-0.2-0.3-0.6-0.1-0.3-0.1-0.7v-2.6h-1.3v-0.6h1.3v-1.2zm7 3.5h-3.3v-0.7h3.3zm2.6-2.3l0.1 0.7q0.2-0.4 0.6-0.6 0.4-0.2 0.8-0.2 0.4 0 0.7 0.1 0.3 0.1 0.5 0.4 0.3 0.2 0.4 0.5 0.1 0.4 0.1 0.8v3.1h-0.8v-3q0-0.3-0.1-0.6-0.1-0.2-0.2-0.3-0.1-0.2-0.3-0.2-0.2-0.1-0.5-0.1-0.4 0-0.7 0.2-0.3 0.2-0.5 0.6v3.4h-0.8v-4.8zm7.8 4.8q-0.1-0.1-0.1-0.3 0-0.1 0-0.3-0.2 0.2-0.3 0.3-0.2 0.1-0.3 0.2-0.2 0.1-0.4 0.1-0.2 0.1-0.5 0.1-0.4 0-0.7-0.2-0.3-0.1-0.5-0.2-0.2-0.2-0.3-0.5-0.1-0.3-0.1-0.5 0-0.4 0.1-0.7 0.2-0.3 0.5-0.5 0.3-0.2 0.7-0.3 0.4-0.1 0.9-0.1h0.8v-0.4q0-0.2 0-0.4-0.1-0.1-0.3-0.3-0.1-0.1-0.3-0.2-0.2 0-0.5 0-0.2 0-0.4 0-0.2 0.1-0.3 0.2-0.2 0.1-0.2 0.2-0.1 0.2-0.1 0.3h-0.8q0-0.2 0.1-0.5 0.1-0.2 0.4-0.4 0.2-0.2 0.6-0.4 0.3-0.1 0.8-0.1 0.4 0 0.7 0.1 0.4 0.1 0.6 0.3 0.3 0.2 0.4 0.5 0.2 0.3 0.2 0.7v2.2q0 0.3 0 0.5 0.1 0.3 0.1 0.5v0.1zm-1.4-0.7q0.2 0 0.4 0 0.2-0.1 0.4-0.2 0.2-0.1 0.3-0.2 0.1-0.1 0.2-0.3v-0.9h-0.8q-0.7 0-1.1 0.2-0.4 0.2-0.4 0.6 0 0.2 0.1 0.4 0.1 0.1 0.2 0.2 0.1 0.1 0.3 0.2 0.2 0 0.4 0zm4.1-4.1v0.5q0.1-0.3 0.4-0.4 0.2-0.2 0.6-0.2 0.6 0 0.8 0.5 0.2-0.2 0.4-0.3 0.2-0.2 0.6-0.2 0.5 0 0.8 0.3 0.2 0.4 0.2 1v3.6h-0.7v-3.6q0-0.6-0.6-0.6-0.1 0-0.2 0.1-0.1 0-0.2 0.1-0.1 0-0.1 0.1-0.1 0.1-0.1 0.2v3.7h-0.7v-3.6q0-0.3-0.2-0.4-0.1-0.2-0.4-0.2-0.2 0-0.4 0.1-0.1 0.1-0.2 0.3v3.8h-0.7v-4.8zm7.1 4.9q-0.5 0-0.9-0.2-0.5-0.2-0.8-0.5-0.3-0.3-0.4-0.7-0.2-0.4-0.2-0.9v-0.2q0-0.6 0.2-1.1 0.2-0.4 0.5-0.7 0.3-0.3 0.7-0.5 0.4-0.2 0.8-0.2 0.5 0 0.9 0.2 0.4 0.2 0.6 0.5 0.3 0.3 0.4 0.7 0.1 0.5 0.1 1v0.3h-3.4q0 0.3 0.1 0.6 0.2 0.3 0.4 0.5 0.2 0.2 0.4 0.4 0.3 0.1 0.6 0.1 0.5 0 0.8-0.2 0.3-0.2 0.6-0.4l0.5 0.3q-0.2 0.2-0.3 0.4-0.2 0.1-0.4 0.3-0.3 0.1-0.6 0.2-0.3 0.1-0.6 0.1zm-0.1-4.3q-0.3 0-0.5 0.1-0.2 0.1-0.4 0.2-0.2 0.2-0.3 0.5-0.1 0.2-0.1 0.6h2.5v-0.1q0-0.2-0.1-0.5-0.1-0.2-0.2-0.4-0.2-0.2-0.4-0.3-0.2-0.1-0.5-0.1zm7.3 0.7h-3.9v-0.7h3.9zm0 1.9h-3.9v-0.7h3.9zm2.9-4.7v1.6h-0.6v-1.5-0.6h0.6zm1.6 0l-0.1 1.6h-0.5v-1.5-0.6h0.6zm4.3 3.1l1.4-3.2h1l-2 4v2.4h-0.8v-2.4l-2-4h0.9zm3.3 0.8q0-0.5 0.2-1 0.1-0.4 0.4-0.8 0.3-0.3 0.7-0.5 0.4-0.2 0.9-0.2 0.5 0 0.9 0.2 0.4 0.2 0.7 0.5 0.3 0.4 0.4 0.8 0.2 0.5 0.2 1v0.1q0 0.5-0.2 0.9-0.1 0.5-0.4 0.8-0.3 0.3-0.7 0.5-0.4 0.2-0.9 0.2-0.5 0-0.9-0.2-0.4-0.2-0.7-0.5-0.3-0.3-0.4-0.8-0.2-0.4-0.2-0.9zm0.8 0.1q0 0.3 0.1 0.6 0.1 0.3 0.3 0.6 0.1 0.2 0.4 0.4 0.3 0.1 0.6 0.1 0.3 0 0.6-0.1 0.2-0.2 0.4-0.4 0.2-0.3 0.3-0.6 0-0.3 0-0.6v-0.1q0-0.4 0-0.7-0.1-0.3-0.3-0.6-0.2-0.2-0.4-0.3-0.3-0.2-0.6-0.2-0.4 0-0.6 0.2-0.3 0.1-0.4 0.3-0.2 0.3-0.3 0.6-0.1 0.3-0.1 0.7zm7.9 1.6q-0.2 0.4-0.5 0.6-0.4 0.2-0.9 0.2-0.3 0-0.6-0.1-0.3-0.2-0.6-0.4-0.2-0.2-0.3-0.6-0.1-0.4-0.1-0.9v-2.9h0.8v2.9q0 0.4 0.1 0.6 0 0.3 0.1 0.4 0.2 0.2 0.3 0.2 0.2 0.1 0.5 0.1 0.5 0 0.8-0.2 0.3-0.2 0.4-0.6v-3.4h0.8v4.8h-0.7zm5.4-4.2q0.1 0 0.3 0 0.1 0 0.2 0 0.1 0 0.2 0.1 0.1 0 0.2 0l-0.1 0.8q-0.3 0-0.5-0.1-0.2 0-0.4 0-0.6 0-1 0.3-0.3 0.2-0.5 0.7v3h-0.8v-4.7h0.8v0.7q0.3-0.3 0.7-0.6 0.4-0.2 0.9-0.2zm11.9 2.9q-0.1 0.5-0.3 0.8-0.1 0.4-0.4 0.7-0.3 0.2-0.7 0.4-0.3 0.1-0.8 0.1-0.4 0-0.7-0.1-0.3-0.1-0.6-0.3-0.2-0.2-0.4-0.5-0.2-0.2-0.3-0.5-0.1-0.4-0.2-0.7-0.1-0.4-0.1-0.7v-0.9q0-0.4 0.1-0.7 0.1-0.3 0.2-0.7 0.1-0.3 0.3-0.6 0.2-0.2 0.4-0.4 0.3-0.2 0.6-0.3 0.3-0.1 0.7-0.1 0.5 0 0.9 0.1 0.3 0.2 0.6 0.4 0.3 0.3 0.5 0.7 0.1 0.3 0.2 0.8h-0.8q-0.1-0.3-0.2-0.5-0.1-0.3-0.2-0.5-0.2-0.2-0.4-0.3-0.3-0.1-0.6-0.1-0.3 0-0.5 0.1-0.2 0.1-0.4 0.3-0.1 0.1-0.3 0.4-0.1 0.2-0.1 0.4-0.1 0.2-0.1 0.5-0.1 0.3-0.1 0.5v0.9q0 0.2 0.1 0.5 0 0.2 0.1 0.5 0 0.2 0.1 0.4 0.1 0.3 0.3 0.4 0.2 0.2 0.4 0.3 0.2 0.1 0.5 0.1 0.3 0 0.6-0.1 0.2-0.1 0.4-0.3 0.1-0.2 0.2-0.4 0.1-0.3 0.2-0.6zm1-0.5q0-0.5 0.1-0.9 0.2-0.5 0.5-0.8 0.2-0.3 0.6-0.5 0.4-0.2 0.9-0.2 0.6 0 1 0.2 0.4 0.2 0.6 0.5 0.3 0.3 0.5 0.8 0.1 0.4 0.1 0.9v0.1q0 0.5-0.1 1-0.2 0.4-0.5 0.7-0.2 0.4-0.6 0.5-0.4 0.2-0.9 0.2-0.5 0-1-0.2-0.4-0.1-0.6-0.5-0.3-0.3-0.5-0.7-0.1-0.5-0.1-1zm0.8 0.1q0 0.4 0.1 0.7 0.1 0.3 0.2 0.5 0.2 0.3 0.5 0.4 0.2 0.2 0.6 0.2 0.3 0 0.5-0.2 0.3-0.1 0.5-0.4 0.1-0.2 0.2-0.5 0.1-0.3 0.1-0.7v-0.1q0-0.3-0.1-0.6-0.1-0.4-0.2-0.6-0.2-0.2-0.5-0.4-0.2-0.1-0.6-0.1-0.3 0-0.5 0.1-0.3 0.2-0.5 0.4-0.1 0.2-0.2 0.6-0.1 0.3-0.1 0.6zm5.2-2.4v0.4q0.2-0.2 0.4-0.4 0.2-0.1 0.6-0.1 0.6 0 0.8 0.5 0.2-0.2 0.4-0.4 0.2-0.1 0.6-0.1 0.5 0 0.8 0.3 0.3 0.3 0.3 1v3.5h-0.8v-3.5q0-0.6-0.6-0.6-0.1 0-0.2 0-0.1 0.1-0.2 0.1-0.1 0.1-0.1 0.2 0 0.1-0.1 0.2v3.6h-0.7v-3.5q0-0.3-0.2-0.5-0.1-0.1-0.4-0.1-0.2 0-0.4 0.1-0.1 0.1-0.2 0.3v3.7h-0.7v-4.7zm9 2.4q0 0.5-0.1 1-0.1 0.4-0.4 0.7-0.2 0.4-0.6 0.5-0.3 0.2-0.8 0.2-0.4 0-0.7-0.1-0.4-0.1-0.6-0.4v2.3h-0.8v-6.6h0.7l0.1 0.5q0.2-0.3 0.5-0.4 0.4-0.2 0.8-0.2 0.5 0 0.8 0.2 0.4 0.2 0.6 0.5 0.3 0.3 0.4 0.8 0.1 0.4 0.1 0.9zm-0.8-0.1q0-0.3-0.1-0.6-0.1-0.3-0.2-0.6-0.2-0.2-0.4-0.4-0.3-0.1-0.6-0.1-0.4 0-0.7 0.2-0.2 0.2-0.4 0.4v2.3q0.2 0.3 0.4 0.5 0.3 0.2 0.7 0.2 0.3 0 0.6-0.2 0.2-0.1 0.4-0.4 0.1-0.2 0.2-0.5 0.1-0.3 0.1-0.7zm5.3 2.4q0 0-0.1-0.2 0-0.1 0-0.3-0.1 0.1-0.3 0.3-0.1 0.1-0.3 0.2-0.2 0-0.4 0.1-0.2 0-0.4 0-0.4 0-0.7-0.1-0.3-0.1-0.5-0.3-0.2-0.2-0.4-0.4-0.1-0.3-0.1-0.6 0-0.4 0.2-0.7 0.1-0.3 0.4-0.4 0.3-0.2 0.7-0.3 0.4-0.1 0.9-0.1h0.9v-0.4q0-0.2-0.1-0.4-0.1-0.2-0.2-0.3-0.2-0.1-0.4-0.2-0.2 0-0.4 0-0.3 0-0.5 0-0.2 0.1-0.3 0.2-0.1 0.1-0.2 0.2-0.1 0.2-0.1 0.3h-0.8q0-0.3 0.2-0.5 0.1-0.3 0.3-0.5 0.3-0.2 0.6-0.3 0.4-0.1 0.8-0.1 0.4 0 0.8 0.1 0.3 0.1 0.6 0.3 0.2 0.2 0.4 0.5 0.1 0.3 0.1 0.7v2.2q0 0.2 0.1 0.5 0 0.3 0.1 0.5zm-1.5-0.6q0.3 0 0.5 0 0.2-0.1 0.4-0.2 0.1-0.1 0.3-0.2 0.1-0.2 0.1-0.3v-1h-0.7q-0.7 0-1.1 0.2-0.4 0.3-0.4 0.7 0 0.2 0 0.3 0.1 0.2 0.2 0.3 0.1 0.1 0.3 0.2 0.2 0 0.4 0zm4.5-4.1v0.7q0.3-0.4 0.7-0.6 0.4-0.2 0.8-0.2 0.4 0 0.7 0.1 0.3 0.1 0.5 0.3 0.2 0.3 0.4 0.6 0.1 0.4 0.1 0.8v3h-0.8v-3q0-0.3-0.1-0.5-0.1-0.2-0.2-0.4-0.2-0.1-0.4-0.1-0.2-0.1-0.4-0.1-0.4 0-0.7 0.2-0.3 0.2-0.5 0.5v3.4h-0.8v-4.7zm6.4 3.1l0.2 0.5 1.4-3.6h1l-2.5 5.5q0 0.2-0.2 0.4-0.1 0.2-0.3 0.4-0.2 0.1-0.4 0.2-0.3 0.2-0.6 0.2 0 0-0.1 0-0.1 0-0.2-0.1 0 0-0.1 0 0 0-0.1 0l0.1-0.7q0.1 0 0.1 0 0.1 0 0.1 0 0.1 0 0.2 0 0 0.1 0 0.1 0.2 0 0.3-0.1 0.2-0.1 0.3-0.3 0.1-0.1 0.2-0.2 0-0.2 0.1-0.2l0.3-0.7-2-4.5h0.9zm5.7-4.6l-0.1 1.6h-0.6v-1.5-0.6h0.7zm6.5 5q0-0.1-0.1-0.2 0-0.2-0.2-0.2-0.1-0.1-0.3-0.2-0.2-0.1-0.6-0.2-0.4-0.1-0.7-0.2-0.4-0.1-0.6-0.3-0.2-0.1-0.4-0.3-0.1-0.3-0.1-0.6 0-0.3 0.1-0.5 0.2-0.3 0.4-0.4 0.3-0.2 0.6-0.3 0.4-0.2 0.8-0.2 0.4 0 0.8 0.2 0.3 0.1 0.5 0.3 0.3 0.2 0.4 0.5 0.2 0.2 0.2 0.5h-0.8q0-0.1-0.1-0.3-0.1-0.1-0.2-0.2-0.2-0.1-0.4-0.2-0.2-0.1-0.4-0.1-0.3 0-0.5 0.1-0.2 0-0.3 0.1-0.1 0.1-0.2 0.2-0.1 0.2-0.1 0.3 0 0.2 0.1 0.3 0 0.1 0.2 0.2 0.1 0 0.3 0.1 0.2 0.1 0.6 0.2 0.4 0 0.7 0.2 0.4 0.1 0.6 0.3 0.3 0.1 0.4 0.4 0.1 0.2 0.1 0.5 0 0.3-0.1 0.5-0.2 0.3-0.4 0.5-0.3 0.2-0.6 0.3-0.4 0.1-0.8 0.1-0.5 0-0.9-0.2-0.4-0.1-0.6-0.3-0.3-0.2-0.4-0.5-0.2-0.3-0.2-0.6h0.9q0 0.3 0.1 0.4 0.1 0.2 0.3 0.3 0.2 0.1 0.4 0.2 0.2 0 0.4 0 0.5 0 0.8-0.2 0.3-0.2 0.3-0.5zm11.7 1.3h-0.9l-2.5-4.8v4.8h-0.8v-6.4h0.8l2.5 4.8v-4.8h0.9zm4.5 0q-0.1-0.1-0.1-0.2 0-0.2 0-0.3-0.2 0.1-0.3 0.2-0.2 0.1-0.3 0.2-0.2 0.1-0.4 0.1-0.2 0.1-0.5 0.1-0.4 0-0.7-0.1-0.3-0.1-0.5-0.3-0.2-0.2-0.3-0.5-0.1-0.2-0.1-0.5 0-0.4 0.1-0.7 0.2-0.3 0.5-0.5 0.3-0.2 0.7-0.3 0.4-0.1 0.9-0.1h0.8v-0.4q0-0.2 0-0.4-0.1-0.1-0.3-0.2-0.1-0.2-0.3-0.2-0.2-0.1-0.5-0.1-0.2 0-0.4 0.1-0.2 0-0.3 0.1-0.2 0.1-0.2 0.3-0.1 0.1-0.1 0.3h-0.8q0-0.3 0.1-0.6 0.1-0.2 0.4-0.4 0.2-0.2 0.6-0.3 0.3-0.2 0.8-0.2 0.4 0 0.7 0.1 0.4 0.1 0.6 0.3 0.3 0.2 0.4 0.5 0.2 0.3 0.2 0.7v2.3q0 0.2 0 0.5 0 0.2 0.1 0.4v0.1zm-1.4-0.6q0.2 0 0.4-0.1 0.2-0.1 0.4-0.2 0.2-0.1 0.3-0.2 0.1-0.1 0.2-0.3v-0.9h-0.8q-0.7 0-1.1 0.2-0.4 0.2-0.4 0.7 0 0.1 0.1 0.3 0.1 0.1 0.2 0.2 0.1 0.1 0.3 0.2 0.2 0.1 0.4 0.1zm4.1-4.2v0.5q0.1-0.3 0.4-0.4 0.2-0.1 0.6-0.2 0.6 0 0.8 0.6 0.2-0.3 0.4-0.4 0.2-0.1 0.6-0.2 0.5 0 0.8 0.4 0.2 0.3 0.2 0.9v3.6h-0.7v-3.6q0-0.6-0.6-0.6-0.1 0-0.2 0.1-0.1 0-0.2 0.1-0.1 0.1-0.1 0.1-0.1 0.1-0.1 0.2v3.7h-0.7v-3.6q0-0.3-0.2-0.4-0.1-0.2-0.4-0.2-0.2 0-0.4 0.1-0.1 0.1-0.2 0.3v3.8h-0.7v-4.8zm7.1 4.9q-0.5 0-0.9-0.2-0.5-0.2-0.8-0.5-0.3-0.3-0.4-0.7-0.2-0.4-0.2-0.9v-0.2q0-0.6 0.2-1 0.2-0.5 0.5-0.8 0.3-0.3 0.7-0.5 0.4-0.2 0.8-0.2 0.5 0 0.9 0.2 0.4 0.2 0.6 0.5 0.3 0.3 0.4 0.8 0.1 0.4 0.1 0.9v0.3h-3.4q0 0.4 0.1 0.7 0.2 0.2 0.4 0.5 0.2 0.2 0.4 0.3 0.3 0.1 0.6 0.1 0.5 0 0.8-0.2 0.3-0.1 0.6-0.4l0.5 0.4q-0.2 0.1-0.3 0.3-0.2 0.2-0.4 0.3-0.3 0.1-0.6 0.2-0.3 0.1-0.6 0.1zm-0.1-4.3q-0.3 0-0.5 0.1-0.2 0.1-0.4 0.3-0.2 0.1-0.3 0.4-0.1 0.2-0.1 0.6h2.5v-0.1q0-0.2-0.1-0.5-0.1-0.2-0.2-0.4-0.2-0.2-0.4-0.3-0.2-0.1-0.5-0.1zm4.8-2.1v1.6h-0.6v-1.5-0.6h0.6zm1.6 0l-0.1 1.7h-0.5v-1.6-0.5h0.6zm-203.2 19.8q0-0.5 0.2-1 0.1-0.4 0.4-0.7 0.2-0.3 0.6-0.5 0.3-0.2 0.7-0.2 0.5 0 0.8 0.1 0.3 0.2 0.5 0.4v-2.4h0.9v6.7h-0.8v-0.5q-0.3 0.3-0.6 0.5-0.3 0.1-0.8 0.1-0.4 0-0.7-0.2-0.4-0.1-0.6-0.5-0.3-0.3-0.4-0.7-0.2-0.5-0.2-1zm0.9 0.1q0 0.3 0 0.7 0.1 0.3 0.3 0.5 0.1 0.2 0.4 0.4 0.2 0.1 0.5 0.1 0.2 0 0.4 0 0.2-0.1 0.3-0.2 0.2-0.1 0.3-0.2 0.1-0.1 0.1-0.3v-2.2q-0.1-0.3-0.4-0.4-0.3-0.2-0.7-0.2-0.3 0-0.5 0.1-0.3 0.2-0.4 0.4-0.2 0.2-0.3 0.5 0 0.4 0 0.7zm7.8 2.3q0-0.1-0.1-0.2 0-0.1 0-0.3-0.1 0.1-0.3 0.2-0.1 0.2-0.3 0.2-0.2 0.1-0.4 0.2-0.2 0-0.4 0-0.4 0-0.7-0.1-0.3-0.1-0.5-0.3-0.2-0.2-0.4-0.4-0.1-0.3-0.1-0.6 0-0.4 0.2-0.7 0.1-0.3 0.4-0.5 0.3-0.2 0.7-0.3 0.4-0.1 0.9-0.1h0.9v-0.3q0-0.2-0.1-0.4-0.1-0.2-0.2-0.3-0.2-0.1-0.4-0.2-0.2-0.1-0.4-0.1-0.3 0-0.5 0.1-0.2 0.1-0.3 0.2-0.1 0.1-0.2 0.2-0.1 0.1-0.1 0.3h-0.8q0-0.3 0.2-0.5 0.1-0.3 0.3-0.5 0.3-0.2 0.6-0.3 0.4-0.1 0.8-0.1 0.4 0 0.8 0.1 0.3 0.1 0.6 0.3 0.2 0.2 0.4 0.5 0.1 0.3 0.1 0.7v2.2q0 0.2 0.1 0.5 0 0.3 0.1 0.5zm-1.5-0.6q0.3 0 0.5 0 0.2-0.1 0.4-0.2 0.1-0.1 0.3-0.2 0.1-0.2 0.1-0.3v-1h-0.7q-0.7 0-1.1 0.2-0.4 0.2-0.4 0.7 0 0.2 0 0.3 0.1 0.2 0.2 0.3 0.1 0.1 0.3 0.2 0.2 0 0.4 0zm5.7-5.3v1.2h1.8v0.6h-1.8v2.6q0 0.3 0.1 0.4 0 0.2 0.1 0.3 0.2 0.1 0.3 0.2 0.2 0 0.4 0 0.1 0 0.2 0 0.2 0 0.3 0 0.2 0 0.3-0.1 0.1 0 0.2 0l0.1 0.6q-0.1 0-0.3 0.1-0.1 0-0.3 0.1-0.2 0-0.4 0-0.1 0-0.3 0-0.3 0-0.6-0.1-0.3-0.1-0.5-0.3-0.2-0.2-0.3-0.5-0.1-0.3-0.1-0.7v-2.6h-1.3v-0.6h1.3v-1.2zm6.6 5.9q-0.1-0.1-0.1-0.2 0-0.1 0-0.3-0.2 0.1-0.3 0.2-0.2 0.2-0.4 0.2-0.1 0.1-0.3 0.2-0.3 0-0.5 0-0.4 0-0.7-0.1-0.3-0.1-0.5-0.3-0.2-0.2-0.3-0.4-0.1-0.3-0.1-0.6 0-0.4 0.1-0.7 0.2-0.3 0.5-0.5 0.2-0.2 0.6-0.3 0.5-0.1 1-0.1h0.8v-0.3q0-0.2 0-0.4-0.1-0.2-0.3-0.3-0.1-0.1-0.3-0.2-0.2-0.1-0.5-0.1-0.2 0-0.4 0.1-0.2 0.1-0.3 0.2-0.2 0.1-0.2 0.2-0.1 0.1-0.1 0.3h-0.8q0-0.3 0.1-0.5 0.1-0.3 0.4-0.5 0.2-0.2 0.6-0.3 0.3-0.1 0.8-0.1 0.4 0 0.7 0.1 0.4 0.1 0.6 0.3 0.3 0.2 0.4 0.5 0.2 0.3 0.2 0.7v2.2q0 0.2 0 0.5 0 0.3 0.1 0.5zm-1.4-0.6q0.2 0 0.4 0 0.2-0.1 0.4-0.2 0.2-0.1 0.3-0.2 0.1-0.2 0.2-0.3v-1h-0.8q-0.7 0-1.1 0.2-0.4 0.2-0.4 0.7 0 0.2 0.1 0.3 0 0.2 0.2 0.3 0.1 0.1 0.3 0.2 0.1 0 0.4 0zm7.3-1.8h-3.4v-0.7h3.4zm3 2.5v-4.2h-1.3v-0.6h1.3v-0.3q0-0.5 0.1-0.8 0.2-0.4 0.4-0.6 0.3-0.2 0.6-0.4 0.4-0.1 0.8-0.1 0.3 0 0.5 0.1 0.3 0 0.6 0.1l-0.1 0.7q-0.2-0.1-0.4-0.1-0.2-0.1-0.5-0.1-0.6 0-0.9 0.3-0.3 0.3-0.3 0.9v0.3h1.9v0.6h-1.9v4.2zm4-2.5q0-0.5 0.1-0.9 0.2-0.5 0.5-0.8 0.3-0.3 0.7-0.5 0.4-0.2 0.9-0.2 0.5 0 0.9 0.2 0.4 0.2 0.6 0.5 0.3 0.3 0.5 0.8 0.1 0.4 0.1 0.9v0.1q0 0.6-0.1 1-0.2 0.4-0.5 0.8-0.2 0.3-0.6 0.5-0.4 0.2-0.9 0.2-0.5 0-0.9-0.2-0.4-0.2-0.7-0.5-0.3-0.4-0.5-0.8-0.1-0.4-0.1-1zm0.8 0.1q0 0.4 0.1 0.7 0.1 0.3 0.2 0.6 0.2 0.2 0.5 0.3 0.2 0.2 0.6 0.2 0.3 0 0.5-0.2 0.3-0.1 0.5-0.3 0.1-0.3 0.2-0.6 0.1-0.3 0.1-0.7v-0.1q0-0.3-0.1-0.6-0.1-0.3-0.2-0.6-0.2-0.2-0.5-0.4-0.2-0.1-0.5-0.1-0.4 0-0.6 0.1-0.3 0.2-0.5 0.4-0.1 0.3-0.2 0.6-0.1 0.3-0.1 0.6zm7.9-2.5q0.2 0 0.3 0 0.1 0 0.2 0.1 0.1 0 0.2 0 0.1 0 0.2 0l-0.1 0.8q-0.3 0-0.5 0-0.2-0.1-0.4-0.1-0.6 0-1 0.3-0.3 0.2-0.5 0.7v3.1h-0.8v-4.8h0.8v0.8q0.3-0.4 0.7-0.6 0.4-0.3 0.9-0.3zm2.7 0.1v0.5q0.2-0.3 0.4-0.4 0.2-0.2 0.6-0.2 0.6 0 0.9 0.5 0.1-0.2 0.3-0.3 0.3-0.2 0.6-0.2 0.5 0 0.8 0.3 0.3 0.4 0.3 1v3.6h-0.8v-3.6q0-0.6-0.5-0.6-0.2 0-0.3 0.1-0.1 0-0.2 0.1 0 0-0.1 0.1 0 0.1 0 0.2v3.7h-0.8v-3.6q0-0.3-0.1-0.4-0.2-0.2-0.4-0.2-0.3 0-0.4 0.1-0.2 0.1-0.2 0.3v3.8h-0.8v-4.8zm8.6 2.3h-3.4v-0.7h3.4zm1.9-2.3h2.5v4.1h1.5v0.7h-4v-0.7h1.7v-3.4h-1.7zm1.6-1.2q0-0.2 0.1-0.3 0.1-0.2 0.3-0.2 0.3 0 0.4 0.2 0.1 0.1 0.1 0.3 0 0.2-0.1 0.3-0.1 0.2-0.4 0.2-0.2 0-0.3-0.2-0.1-0.1-0.1-0.3zm3.6 3.6q0-0.5 0.1-1 0.1-0.4 0.4-0.8 0.2-0.3 0.6-0.5 0.3-0.1 0.8-0.1 0.4 0 0.7 0.1 0.3 0.1 0.6 0.4v-2.4h0.8v6.7h-0.8v-0.5q-0.2 0.3-0.6 0.4-0.3 0.2-0.7 0.2-0.5 0-0.8-0.2-0.4-0.2-0.6-0.5-0.3-0.3-0.4-0.8-0.1-0.4-0.1-0.9zm0.8 0.1q0 0.3 0.1 0.6 0 0.3 0.2 0.6 0.1 0.2 0.4 0.4 0.2 0.1 0.6 0.1 0.2 0 0.3-0.1 0.2 0 0.3-0.1 0.2-0.1 0.3-0.2 0.1-0.1 0.2-0.3v-2.2q-0.2-0.3-0.5-0.5-0.2-0.2-0.6-0.2-0.4 0-0.6 0.2-0.3 0.1-0.4 0.4-0.2 0.2-0.2 0.5-0.1 0.3-0.1 0.7zm8.6-1.1h-3.9v-0.7h3.9zm0 1.8h-3.9v-0.7h3.9zm3-4.7l-0.1 1.6h-0.6v-1.5-0.6h0.7zm1.6 0l-0.1 1.7h-0.6v-1.6-0.5h0.7zm3.6 6.2v-4.1h-1.4v-0.6h1.4v-0.4q0-0.4 0.1-0.8 0.1-0.3 0.4-0.5 0.2-0.3 0.6-0.4 0.3-0.1 0.7-0.1 0.3 0 0.6 0 0.3 0.1 0.6 0.2l-0.1 0.6q-0.2 0-0.5-0.1-0.2 0-0.5 0-0.6 0-0.8 0.3-0.3 0.3-0.3 0.8v0.4h1.8v0.6h-1.8v4.1zm3.9-2.4q0-0.5 0.2-0.9 0.1-0.5 0.4-0.8 0.3-0.3 0.7-0.5 0.4-0.2 0.9-0.2 0.5 0 0.9 0.2 0.4 0.2 0.7 0.5 0.3 0.3 0.4 0.8 0.2 0.4 0.2 0.9v0.1q0 0.5-0.2 1-0.1 0.4-0.4 0.7-0.3 0.4-0.7 0.5-0.4 0.2-0.9 0.2-0.5 0-0.9-0.2-0.4-0.1-0.7-0.5-0.3-0.3-0.4-0.7-0.2-0.5-0.2-1zm0.9 0.1q0 0.4 0 0.7 0.1 0.3 0.3 0.5 0.2 0.3 0.4 0.4 0.3 0.2 0.6 0.2 0.3 0 0.6-0.2 0.2-0.1 0.4-0.4 0.2-0.2 0.3-0.5 0-0.3 0-0.7v-0.1q0-0.3 0-0.7-0.1-0.3-0.3-0.5-0.2-0.3-0.4-0.4-0.3-0.1-0.6-0.1-0.3 0-0.6 0.1-0.2 0.1-0.4 0.4-0.2 0.2-0.3 0.5 0 0.4 0 0.7zm7.9-2.5q0.1 0 0.2 0 0.1 0 0.3 0 0.1 0 0.2 0.1 0.1 0 0.1 0l-0.1 0.8q-0.2 0-0.4-0.1-0.3 0-0.5 0-0.6 0-0.9 0.3-0.4 0.2-0.5 0.7v3h-0.8v-4.7h0.7l0.1 0.7q0.3-0.4 0.7-0.6 0.4-0.2 0.9-0.2zm2.7 0.1v0.4q0.1-0.2 0.4-0.4 0.2-0.1 0.5-0.1 0.7 0 0.9 0.5 0.1-0.2 0.4-0.4 0.2-0.1 0.5-0.1 0.6 0 0.8 0.3 0.3 0.3 0.3 1v3.5h-0.8v-3.5q0-0.6-0.5-0.6-0.2 0-0.3 0-0.1 0.1-0.1 0.1-0.1 0.1-0.1 0.2-0.1 0.1-0.1 0.2v3.6h-0.8v-3.5q0-0.3-0.1-0.5-0.1-0.1-0.4-0.1-0.3 0-0.4 0.1-0.1 0.1-0.2 0.3v3.7h-0.8v-4.7zm8.6 2.3h-3.4v-0.7h3.4zm2-2.3h2.4v4.1h1.6v0.7h-4v-0.7h1.6v-3.4h-1.6zm1.5-1.2q0-0.2 0.1-0.4 0.1-0.1 0.4-0.1 0.2 0 0.4 0.1 0.1 0.2 0.1 0.4 0 0.2-0.1 0.3-0.2 0.1-0.4 0.1-0.3 0-0.4-0.1-0.1-0.1-0.1-0.3zm3.6 3.6q0-0.6 0.1-1 0.2-0.5 0.4-0.8 0.3-0.3 0.6-0.5 0.4-0.2 0.8-0.2 0.4 0 0.8 0.2 0.3 0.1 0.5 0.4v-2.5h0.8v6.8h-0.7l-0.1-0.5q-0.2 0.3-0.5 0.4-0.4 0.2-0.8 0.2-0.4 0-0.8-0.2-0.3-0.2-0.6-0.5-0.2-0.4-0.4-0.8-0.1-0.4-0.1-0.9zm0.8 0q0 0.4 0.1 0.7 0.1 0.3 0.2 0.6 0.2 0.2 0.4 0.3 0.3 0.2 0.6 0.2 0.2 0 0.4-0.1 0.1 0 0.3-0.1 0.1-0.1 0.2-0.2 0.1-0.2 0.2-0.3v-2.2q-0.1-0.3-0.4-0.5-0.3-0.2-0.7-0.2-0.3 0-0.6 0.2-0.2 0.1-0.4 0.3-0.1 0.3-0.2 0.6-0.1 0.3-0.1 0.7zm6.2-4l-0.1 1.6h-0.5v-1.5-0.6h0.6zm1.6 0l-0.1 1.7h-0.6v-1.6-0.6h0.7zm-116.7 19.9q0-0.5 0.1-1 0.2-0.4 0.4-0.7 0.3-0.4 0.6-0.5 0.4-0.2 0.8-0.2 0.4 0 0.8 0.1 0.3 0.2 0.5 0.4v-2.4h0.8v6.7h-0.7l-0.1-0.5q-0.2 0.3-0.5 0.5-0.4 0.1-0.8 0.1-0.4 0-0.8-0.2-0.3-0.2-0.6-0.5-0.2-0.3-0.4-0.8-0.1-0.4-0.1-0.9zm0.8 0.1q0 0.3 0.1 0.6 0.1 0.4 0.2 0.6 0.2 0.2 0.4 0.4 0.3 0.1 0.6 0.1 0.2 0 0.4 0 0.1-0.1 0.3-0.2 0.1-0.1 0.2-0.2 0.1-0.1 0.2-0.3v-2.2q-0.1-0.3-0.4-0.5-0.3-0.1-0.7-0.1-0.3 0-0.6 0.1-0.2 0.1-0.4 0.4-0.1 0.2-0.2 0.5-0.1 0.3-0.1 0.7zm7.9 2.3q-0.1-0.1-0.1-0.2 0-0.1 0-0.3-0.1 0.1-0.3 0.2-0.2 0.1-0.3 0.2-0.2 0.1-0.4 0.2-0.2 0-0.5 0-0.3 0-0.6-0.1-0.4-0.1-0.6-0.3-0.2-0.2-0.3-0.4-0.1-0.3-0.1-0.6 0-0.4 0.1-0.7 0.2-0.3 0.5-0.5 0.3-0.2 0.7-0.3 0.4-0.1 0.9-0.1h0.9v-0.3q0-0.3-0.1-0.4-0.1-0.2-0.2-0.3-0.2-0.1-0.4-0.2-0.2-0.1-0.5-0.1-0.2 0-0.4 0.1-0.2 0.1-0.3 0.2-0.2 0.1-0.2 0.2-0.1 0.1-0.1 0.3h-0.8q0-0.3 0.1-0.5 0.1-0.3 0.4-0.5 0.2-0.2 0.6-0.3 0.3-0.1 0.8-0.1 0.4 0 0.7 0.1 0.4 0.1 0.6 0.3 0.3 0.2 0.4 0.5 0.2 0.3 0.2 0.7v2.2q0 0.2 0 0.5 0.1 0.3 0.1 0.4v0.1zm-1.4-0.6q0.2 0 0.4-0.1 0.3 0 0.4-0.1 0.2-0.1 0.3-0.3 0.1-0.1 0.2-0.2v-1h-0.7q-0.8 0-1.2 0.2-0.3 0.2-0.3 0.7 0 0.2 0 0.3 0.1 0.2 0.2 0.3 0.1 0.1 0.3 0.1 0.2 0.1 0.4 0.1zm5.6-5.3v1.2h1.9v0.6h-1.9v2.6q0 0.3 0.1 0.4 0.1 0.2 0.2 0.3 0.1 0.1 0.3 0.2 0.2 0 0.3 0 0.2 0 0.3 0 0.1 0 0.3 0 0.1-0.1 0.2-0.1 0.1 0 0.2 0l0.1 0.6q-0.1 0-0.2 0.1-0.2 0-0.3 0-0.2 0.1-0.4 0.1-0.2 0-0.4 0-0.3 0-0.6-0.1-0.2-0.1-0.4-0.3-0.2-0.2-0.4-0.5-0.1-0.3-0.1-0.7v-2.6h-1.2v-0.6h1.2v-1.2zm6.6 5.9q0-0.1 0-0.2-0.1-0.1-0.1-0.3-0.1 0.1-0.3 0.2-0.1 0.1-0.3 0.2-0.2 0.1-0.4 0.2-0.2 0-0.4 0-0.4 0-0.7-0.1-0.3-0.1-0.5-0.3-0.2-0.2-0.4-0.4-0.1-0.3-0.1-0.6 0-0.4 0.2-0.7 0.1-0.3 0.4-0.5 0.3-0.2 0.7-0.3 0.4-0.1 0.9-0.1h0.9v-0.3q0-0.3-0.1-0.4-0.1-0.2-0.2-0.3-0.1-0.1-0.4-0.2-0.2-0.1-0.4-0.1-0.3 0-0.5 0.1-0.1 0.1-0.3 0.2-0.1 0.1-0.2 0.2-0.1 0.1-0.1 0.3h-0.8q0-0.3 0.2-0.5 0.1-0.3 0.3-0.5 0.3-0.2 0.6-0.3 0.4-0.1 0.8-0.1 0.4 0 0.8 0.1 0.3 0.1 0.6 0.3 0.2 0.2 0.4 0.5 0.1 0.3 0.1 0.7v2.2q0 0.2 0.1 0.5 0 0.3 0.1 0.4v0.1zm-1.5-0.6q0.3 0 0.5-0.1 0.2 0 0.4-0.1 0.1-0.1 0.3-0.3 0.1-0.1 0.2-0.2v-1h-0.8q-0.7 0-1.1 0.2-0.4 0.2-0.4 0.7 0 0.2 0 0.3 0.1 0.2 0.2 0.3 0.1 0.1 0.3 0.1 0.2 0.1 0.4 0.1zm7.3-1.8h-3.3v-0.7h3.3zm3.3 0.2l-0.6 0.6v1.7h-0.8v-6.8h0.8v4.1l0.5-0.5 1.6-1.6h1l-1.9 2 2.2 2.8h-1.1zm6.1 2.3q-0.5 0-0.9-0.2-0.4-0.2-0.7-0.5-0.3-0.3-0.5-0.7-0.2-0.4-0.2-0.9v-0.2q0-0.6 0.2-1.1 0.2-0.4 0.5-0.7 0.3-0.3 0.7-0.5 0.4-0.2 0.8-0.2 0.5 0 0.9 0.2 0.4 0.2 0.7 0.5 0.2 0.3 0.3 0.7 0.2 0.5 0.2 1v0.3h-3.4q0 0.4 0.1 0.6 0.1 0.3 0.3 0.5 0.2 0.2 0.5 0.4 0.2 0.1 0.6 0.1 0.4 0 0.7-0.2 0.4-0.2 0.6-0.4l0.5 0.3q-0.1 0.2-0.3 0.4-0.2 0.1-0.4 0.3-0.2 0.1-0.5 0.2-0.3 0.1-0.7 0.1zm-0.1-4.3q-0.2 0-0.5 0.1-0.2 0.1-0.3 0.3-0.2 0.1-0.3 0.4-0.2 0.2-0.2 0.6h2.5v-0.1q0-0.2 0-0.5-0.1-0.2-0.3-0.4-0.1-0.2-0.4-0.3-0.2-0.1-0.5-0.1zm5.2 2.5l0.2 0.6 1.4-3.7h0.9l-2.4 5.5q-0.1 0.2-0.2 0.4-0.1 0.2-0.3 0.4-0.2 0.2-0.4 0.3-0.3 0.1-0.6 0.1-0.1 0-0.1 0-0.1 0-0.2 0 0 0-0.1-0.1-0.1 0-0.1 0l0.1-0.6q0.1 0 0.1 0 0.1 0 0.1 0 0.1 0 0.1 0 0.1 0 0.1 0 0.2 0 0.3-0.1 0.2-0.1 0.3-0.2 0.1-0.2 0.2-0.3 0-0.1 0.1-0.2l0.3-0.7-2-4.5h0.9zm7.5-1.7h-3.9v-0.7h3.9zm0 1.8h-3.9v-0.7h3.9zm3-4.7l-0.1 1.6h-0.6v-1.5-0.6h0.7zm1.6 0l-0.1 1.7h-0.6v-1.6-0.5h0.7zm4.3 0.3v1.2h1.8v0.6h-1.8v2.6q0 0.3 0 0.4 0.1 0.2 0.2 0.3 0.1 0.1 0.3 0.2 0.2 0 0.4 0 0.1 0 0.2 0 0.2 0 0.3 0 0.1 0 0.2-0.1 0.2 0 0.2 0l0.2 0.6q-0.1 0-0.3 0.1-0.1 0-0.3 0.1-0.2 0-0.4 0-0.2 0-0.4 0-0.3 0-0.5-0.1-0.3-0.1-0.5-0.3-0.2-0.1-0.3-0.5-0.2-0.3-0.2-0.7v-2.6h-1.2v-0.6h1.2v-1.2zm5.6 6q-0.5 0-0.9-0.1-0.4-0.2-0.7-0.5-0.3-0.3-0.5-0.8-0.1-0.4-0.1-0.9v-0.2q0-0.5 0.1-1 0.2-0.4 0.5-0.8 0.3-0.3 0.7-0.4 0.4-0.2 0.8-0.2 0.5 0 0.9 0.2 0.4 0.1 0.7 0.5 0.2 0.3 0.3 0.7 0.2 0.4 0.2 0.9v0.4h-3.4q0 0.3 0.1 0.6 0.1 0.3 0.3 0.5 0.2 0.2 0.5 0.3 0.2 0.2 0.6 0.2 0.4 0 0.7-0.2 0.4-0.2 0.6-0.5l0.5 0.4q-0.1 0.2-0.3 0.4-0.2 0.1-0.4 0.2-0.2 0.2-0.5 0.2-0.3 0.1-0.7 0.1zm-0.1-4.2q-0.2 0-0.4 0.1-0.3 0-0.4 0.2-0.2 0.2-0.3 0.4-0.2 0.3-0.2 0.6h2.6q-0.1-0.3-0.1-0.5-0.1-0.2-0.3-0.4-0.1-0.2-0.3-0.3-0.3-0.1-0.6-0.1zm6.6 2.9q0-0.2-0.1-0.3 0-0.1-0.2-0.2-0.1-0.1-0.3-0.2-0.2-0.1-0.6-0.1-0.4-0.1-0.7-0.2-0.4-0.1-0.6-0.3-0.2-0.2-0.4-0.4-0.1-0.2-0.1-0.5 0-0.3 0.1-0.6 0.2-0.2 0.4-0.4 0.3-0.2 0.6-0.3 0.3-0.1 0.8-0.1 0.4 0 0.7 0.1 0.4 0.1 0.6 0.3 0.3 0.2 0.4 0.5 0.2 0.3 0.2 0.6h-0.9q0-0.2 0-0.3-0.1-0.2-0.3-0.3-0.1-0.1-0.3-0.2-0.2 0-0.4 0-0.3 0-0.5 0-0.2 0.1-0.3 0.2-0.2 0.1-0.2 0.2-0.1 0.1-0.1 0.3 0 0.1 0.1 0.2 0 0.1 0.1 0.2 0.2 0.1 0.4 0.2 0.2 0 0.5 0.1 0.5 0.1 0.8 0.2 0.4 0.1 0.6 0.3 0.3 0.2 0.4 0.4 0.1 0.2 0.1 0.5 0 0.3-0.1 0.6-0.2 0.3-0.4 0.4-0.3 0.2-0.6 0.3-0.4 0.1-0.8 0.1-0.5 0-0.9-0.1-0.4-0.1-0.6-0.3-0.3-0.3-0.4-0.5-0.2-0.3-0.2-0.6h0.8q0.1 0.2 0.2 0.4 0.1 0.2 0.3 0.3 0.1 0.1 0.4 0.1 0.2 0.1 0.4 0.1 0.5 0 0.8-0.2 0.3-0.2 0.3-0.5zm4.2-4.7v1.2h1.8v0.6h-1.8v2.6q0 0.3 0 0.4 0.1 0.2 0.2 0.3 0.1 0.1 0.3 0.2 0.2 0 0.3 0 0.2 0 0.3 0 0.2 0 0.3 0 0.1 0 0.2-0.1 0.2 0 0.2 0l0.2 0.6q-0.1 0-0.3 0.1-0.1 0-0.3 0.1-0.2 0-0.4 0-0.2 0-0.4 0-0.3 0-0.5-0.1-0.3-0.1-0.5-0.3-0.2-0.1-0.3-0.5-0.2-0.3-0.2-0.7v-2.6h-1.2v-0.6h1.2v-1.2zm7.5 6.6h-4.1v-0.7h4.1zm2.9-2.8l-0.6 0.5v1.7h-0.9v-6.8h0.9v4.2l0.5-0.6 1.5-1.6h1l-1.9 2 2.2 2.8h-1zm6.1 2.3q-0.5 0-0.9-0.2-0.5-0.2-0.8-0.5-0.3-0.3-0.4-0.7-0.2-0.4-0.2-0.9v-0.2q0-0.6 0.2-1 0.2-0.5 0.5-0.8 0.3-0.3 0.7-0.5 0.4-0.2 0.8-0.2 0.5 0 0.9 0.2 0.4 0.2 0.6 0.5 0.3 0.3 0.4 0.8 0.1 0.4 0.1 0.9v0.3h-3.4q0 0.4 0.1 0.7 0.2 0.2 0.4 0.5 0.1 0.2 0.4 0.3 0.3 0.1 0.6 0.1 0.5 0 0.8-0.2 0.3-0.1 0.6-0.4l0.5 0.4q-0.2 0.1-0.3 0.3-0.2 0.2-0.5 0.3-0.2 0.1-0.5 0.2-0.3 0.1-0.6 0.1zm-0.1-4.3q-0.3 0-0.5 0.1-0.2 0.1-0.4 0.3-0.2 0.1-0.3 0.4-0.1 0.2-0.2 0.6h2.6v-0.1q0-0.2-0.1-0.5-0.1-0.2-0.2-0.4-0.2-0.2-0.4-0.3-0.2-0.1-0.5-0.1zm5.1 2.5l0.2 0.6 1.5-3.7h0.9l-2.4 5.5q-0.1 0.2-0.2 0.4-0.2 0.2-0.3 0.4-0.2 0.2-0.5 0.3-0.2 0.1-0.5 0.1-0.1 0-0.2 0 0 0-0.1 0-0.1 0-0.1 0-0.1-0.1-0.1-0.1l0.1-0.6q0 0 0.1 0 0 0 0.1 0 0 0 0.1 0 0.1 0 0.1 0 0.2 0 0.3-0.1 0.1-0.1 0.2-0.2 0.1-0.1 0.2-0.3 0.1-0.1 0.1-0.2l0.4-0.6-2.1-4.6h0.9zm5.1-4.5l-0.1 1.6h-0.5v-1.6-0.5h0.6zm1.6 0l-0.1 1.6h-0.6l0.1-1.6v-0.5h0.6zm-100.5 19.8q0-0.5 0.2-0.9 0.1-0.5 0.4-0.8 0.2-0.3 0.6-0.5 0.3-0.2 0.7-0.2 0.5 0 0.8 0.2 0.3 0.1 0.5 0.4v-2.5h0.9v6.8h-0.8v-0.5q-0.3 0.3-0.6 0.4-0.3 0.2-0.8 0.2-0.4 0-0.7-0.2-0.4-0.2-0.6-0.5-0.3-0.4-0.4-0.8-0.2-0.5-0.2-1zm0.9 0.1q0 0.4 0 0.7 0.1 0.3 0.3 0.5 0.1 0.3 0.4 0.4 0.2 0.2 0.5 0.2 0.2 0 0.4-0.1 0.2 0 0.3-0.1 0.1-0.1 0.3-0.2 0.1-0.2 0.1-0.3v-2.2q-0.1-0.3-0.4-0.5-0.3-0.2-0.7-0.2-0.3 0-0.5 0.1-0.3 0.2-0.4 0.4-0.2 0.3-0.3 0.6 0 0.3 0 0.6zm7.8 2.4q0-0.1-0.1-0.3 0-0.1 0-0.3-0.1 0.2-0.3 0.3-0.1 0.1-0.3 0.2-0.2 0.1-0.4 0.1-0.2 0.1-0.4 0.1-0.4 0-0.7-0.2-0.3-0.1-0.5-0.3-0.2-0.1-0.4-0.4-0.1-0.3-0.1-0.6 0-0.3 0.2-0.6 0.1-0.3 0.4-0.5 0.3-0.2 0.7-0.3 0.4-0.1 0.9-0.1h0.9v-0.4q0-0.2-0.1-0.4-0.1-0.1-0.2-0.3-0.2-0.1-0.4-0.2-0.2 0-0.4 0-0.3 0-0.5 0-0.2 0.1-0.3 0.2-0.1 0.1-0.2 0.2-0.1 0.2-0.1 0.3h-0.8q0-0.2 0.1-0.5 0.2-0.2 0.4-0.4 0.3-0.2 0.6-0.4 0.4-0.1 0.8-0.1 0.4 0 0.8 0.1 0.3 0.1 0.6 0.3 0.2 0.2 0.4 0.5 0.1 0.3 0.1 0.7v2.2q0 0.3 0 0.5 0.1 0.3 0.2 0.5v0.1zm-1.5-0.7q0.3 0 0.5 0 0.2-0.1 0.4-0.2 0.1-0.1 0.2-0.2 0.2-0.1 0.2-0.3v-0.9h-0.7q-0.7 0-1.1 0.2-0.4 0.2-0.4 0.6 0 0.2 0 0.4 0.1 0.1 0.2 0.2 0.1 0.1 0.3 0.2 0.2 0 0.4 0zm5.7-5.2v1.1h1.8v0.6h-1.8v2.6q0 0.3 0 0.5 0.1 0.2 0.2 0.3 0.2 0.1 0.3 0.1 0.2 0.1 0.4 0.1 0.1 0 0.2-0.1 0.2 0 0.3 0 0.1 0 0.3 0 0.1-0.1 0.2-0.1l0.1 0.6q-0.1 0.1-0.3 0.1-0.1 0.1-0.3 0.1-0.2 0-0.4 0-0.1 0.1-0.3 0.1-0.4 0-0.6-0.1-0.3-0.1-0.5-0.3-0.2-0.2-0.3-0.5-0.1-0.3-0.1-0.8v-2.6h-1.3v-0.6h1.3v-1.1zm6.6 5.9q-0.1-0.1-0.1-0.3 0-0.1-0.1-0.3-0.1 0.2-0.2 0.3-0.2 0.1-0.4 0.2-0.1 0.1-0.4 0.1-0.2 0.1-0.4 0.1-0.4 0-0.7-0.2-0.3-0.1-0.5-0.3-0.2-0.1-0.3-0.4-0.1-0.3-0.1-0.6 0-0.3 0.1-0.6 0.2-0.3 0.5-0.5 0.2-0.2 0.6-0.3 0.4-0.1 0.9-0.1h0.9v-0.4q0-0.2 0-0.4-0.1-0.1-0.3-0.3-0.1-0.1-0.3-0.2-0.2 0-0.5 0-0.2 0-0.4 0-0.2 0.1-0.3 0.2-0.2 0.1-0.3 0.2 0 0.2 0 0.3h-0.8q0-0.2 0.1-0.5 0.1-0.2 0.4-0.4 0.2-0.2 0.6-0.4 0.3-0.1 0.8-0.1 0.4 0 0.7 0.1 0.4 0.1 0.6 0.3 0.3 0.2 0.4 0.5 0.1 0.3 0.1 0.7v2.2q0 0.3 0.1 0.5 0 0.3 0.1 0.5v0.1zm-1.4-0.7q0.2 0 0.4 0 0.2-0.1 0.4-0.2 0.2-0.1 0.3-0.2 0.1-0.1 0.2-0.3v-0.9h-0.8q-0.7 0-1.1 0.2-0.4 0.2-0.4 0.6 0 0.2 0.1 0.4 0 0.1 0.2 0.2 0.1 0.1 0.3 0.2 0.1 0 0.4 0zm7.2-1.8h-3.3v-0.7h3.3zm5.9 0.2q0 0.5-0.1 0.9-0.1 0.5-0.4 0.8-0.2 0.3-0.6 0.5-0.3 0.2-0.8 0.2-0.4 0-0.7-0.2-0.4-0.1-0.6-0.4v2.3h-0.8v-6.6h0.7l0.1 0.6q0.2-0.3 0.5-0.5 0.4-0.1 0.8-0.1 0.5 0 0.8 0.1 0.4 0.2 0.6 0.5 0.3 0.4 0.4 0.8 0.1 0.4 0.1 1zm-0.8-0.1q0-0.4-0.1-0.7-0.1-0.3-0.2-0.5-0.2-0.3-0.4-0.4-0.3-0.1-0.6-0.1-0.4 0-0.7 0.1-0.2 0.2-0.4 0.5v2.3q0.2 0.3 0.4 0.5 0.3 0.1 0.7 0.1 0.3 0 0.6-0.1 0.2-0.2 0.4-0.4 0.1-0.2 0.2-0.6 0.1-0.3 0.1-0.6zm5.3-2.4q0.1 0 0.3 0 0.1 0 0.2 0 0.1 0 0.2 0 0.1 0 0.2 0.1l-0.2 0.8q-0.2-0.1-0.4-0.1-0.2 0-0.5 0-0.5 0-0.9 0.2-0.3 0.3-0.5 0.7v3.1h-0.8v-4.8h0.8v0.8q0.3-0.4 0.7-0.6 0.4-0.2 0.9-0.2zm2.1 2.4q0-0.5 0.1-1 0.2-0.4 0.5-0.7 0.2-0.4 0.6-0.6 0.4-0.1 0.9-0.1 0.5 0 0.9 0.1 0.4 0.2 0.7 0.6 0.3 0.3 0.5 0.7 0.1 0.5 0.1 1v0.1q0 0.5-0.1 0.9-0.2 0.5-0.5 0.8-0.3 0.3-0.7 0.5-0.4 0.2-0.9 0.2-0.5 0-0.9-0.2-0.4-0.2-0.6-0.5-0.3-0.3-0.5-0.8-0.1-0.4-0.1-0.9zm0.8 0.1q0 0.3 0.1 0.6 0.1 0.4 0.2 0.6 0.2 0.2 0.5 0.4 0.2 0.1 0.5 0.1 0.4 0 0.6-0.1 0.3-0.2 0.5-0.4 0.1-0.2 0.2-0.6 0.1-0.3 0.1-0.6v-0.1q0-0.4-0.1-0.7-0.1-0.3-0.3-0.6-0.1-0.2-0.4-0.3-0.2-0.2-0.6-0.2-0.3 0-0.5 0.2-0.3 0.1-0.5 0.3-0.1 0.3-0.2 0.6-0.1 0.3-0.1 0.7zm4.7-0.1q0-0.6 0.1-1 0.1-0.4 0.4-0.8 0.2-0.3 0.6-0.5 0.3-0.1 0.8-0.1 0.4 0 0.7 0.1 0.3 0.1 0.6 0.4v-2.5h0.8v6.8h-0.8v-0.5q-0.2 0.3-0.6 0.4-0.3 0.2-0.7 0.2-0.5 0-0.8-0.2-0.4-0.2-0.6-0.5-0.3-0.3-0.4-0.8-0.1-0.4-0.1-0.9zm0.8 0.1q0 0.3 0 0.6 0.1 0.3 0.3 0.6 0.1 0.2 0.4 0.4 0.2 0.1 0.6 0.1 0.2 0 0.3-0.1 0.2 0 0.3-0.1 0.2-0.1 0.3-0.2 0.1-0.1 0.2-0.3v-2.2q-0.2-0.3-0.5-0.5-0.2-0.2-0.6-0.2-0.4 0-0.6 0.2-0.3 0.1-0.4 0.4-0.2 0.2-0.3 0.5 0 0.3 0 0.7zm7.8 1.6q-0.2 0.4-0.6 0.6-0.3 0.2-0.8 0.2-0.4 0-0.7-0.1-0.3-0.1-0.5-0.4-0.2-0.2-0.3-0.6-0.2-0.4-0.2-0.9v-2.9h0.9v2.9q0 0.4 0 0.6 0.1 0.3 0.2 0.4 0.1 0.2 0.3 0.2 0.2 0.1 0.4 0.1 0.5 0 0.8-0.2 0.3-0.2 0.5-0.5v-3.5h0.8v4.8h-0.7zm4.3 0.1q0.2 0 0.4-0.1 0.2-0.1 0.4-0.2 0.2-0.1 0.3-0.3 0.1-0.1 0.1-0.3h0.7q0 0.3-0.1 0.6-0.2 0.2-0.5 0.5-0.2 0.2-0.6 0.3-0.3 0.1-0.7 0.1-0.5 0-0.9-0.2-0.4-0.1-0.7-0.5-0.3-0.3-0.4-0.7-0.2-0.5-0.2-0.9v-0.2q0-0.5 0.2-0.9 0.1-0.4 0.4-0.8 0.3-0.3 0.7-0.5 0.4-0.2 0.9-0.2 0.4 0 0.8 0.1 0.3 0.2 0.6 0.4 0.2 0.2 0.4 0.6 0.1 0.3 0.1 0.6h-0.7q0-0.2-0.1-0.4-0.1-0.2-0.3-0.3-0.1-0.2-0.3-0.2-0.3-0.1-0.5-0.1-0.4 0-0.6 0.1-0.3 0.2-0.5 0.4-0.1 0.3-0.2 0.6 0 0.3 0 0.6v0.2q0 0.3 0 0.6 0.1 0.3 0.2 0.5 0.2 0.3 0.5 0.4 0.2 0.2 0.6 0.2zm5.3-5.4v1.2h1.8v0.6h-1.8v2.6q0 0.3 0.1 0.5 0 0.1 0.2 0.3 0.1 0.1 0.2 0.1 0.2 0 0.4 0 0.1 0.1 0.3 0 0.1 0 0.2 0 0.2 0 0.3 0 0.1-0.1 0.2-0.1l0.1 0.6q-0.1 0-0.3 0.1-0.1 0-0.3 0.1-0.1 0-0.3 0-0.2 0-0.4 0-0.3 0-0.6 0-0.3-0.1-0.5-0.3-0.2-0.2-0.3-0.5-0.1-0.4-0.1-0.8v-2.6h-1.3v-0.6h1.3v-1.2zm7.4 2.5h-3.9v-0.7h3.9zm0 1.8h-3.9v-0.7h3.9zm2.9-4.6l-0.1 1.6h-0.5v-1.6-0.5h0.6zm1.6 0l-0.1 1.6h-0.6v-1.5-0.6h0.7zm4.3 0.4v1.1h1.8v0.7h-1.8v2.5q0 0.3 0.1 0.5 0 0.2 0.2 0.3 0.1 0.1 0.3 0.1 0.1 0.1 0.3 0.1 0.1 0 0.3 0 0.1 0 0.2-0.1 0.2 0 0.3 0 0.1 0 0.2-0.1l0.1 0.6q-0.1 0.1-0.2 0.1-0.2 0.1-0.4 0.1-0.1 0-0.3 0.1-0.2 0-0.4 0-0.3 0-0.6-0.1-0.3-0.1-0.5-0.3-0.2-0.2-0.3-0.5-0.1-0.3-0.1-0.8v-2.5h-1.3v-0.7h1.3v-1.1zm6.6 1q0.1 0 0.2 0 0.1 0.1 0.3 0.1 0.1 0 0.2 0 0.1 0 0.1 0.1l-0.1 0.8q-0.2-0.1-0.4-0.1-0.3 0-0.5-0.1-0.6 0-0.9 0.3-0.4 0.3-0.5 0.7v3.1h-0.8v-4.8h0.7l0.1 0.8q0.3-0.4 0.7-0.6 0.4-0.3 0.9-0.3zm5.4 4.9q0-0.1-0.1-0.2 0-0.2 0-0.3-0.1 0.1-0.3 0.2-0.1 0.1-0.3 0.2-0.2 0.1-0.4 0.1-0.2 0.1-0.5 0.1-0.3 0-0.6-0.1-0.3-0.1-0.6-0.3-0.2-0.2-0.3-0.5-0.1-0.2-0.1-0.5 0-0.4 0.1-0.7 0.2-0.3 0.5-0.5 0.3-0.2 0.7-0.3 0.4-0.1 0.9-0.1h0.9v-0.4q0-0.2-0.1-0.4-0.1-0.1-0.2-0.2-0.2-0.2-0.4-0.2-0.2-0.1-0.5-0.1-0.2 0-0.4 0.1-0.2 0-0.3 0.1-0.1 0.1-0.2 0.3-0.1 0.1-0.1 0.2h-0.8q0-0.2 0.1-0.5 0.2-0.2 0.4-0.4 0.2-0.2 0.6-0.3 0.3-0.2 0.8-0.2 0.4 0 0.7 0.1 0.4 0.1 0.6 0.3 0.3 0.2 0.4 0.5 0.2 0.3 0.2 0.7v2.2q0 0.3 0 0.6 0.1 0.2 0.1 0.4v0.1zm-1.4-0.6q0.2 0 0.5-0.1 0.2-0.1 0.3-0.2 0.2-0.1 0.3-0.2 0.1-0.1 0.2-0.3v-0.9h-0.7q-0.8 0-1.1 0.2-0.4 0.2-0.4 0.7 0 0.1 0 0.3 0.1 0.1 0.2 0.2 0.1 0.1 0.3 0.2 0.2 0.1 0.4 0.1zm4.5-4.2v0.7q0.3-0.3 0.7-0.5 0.3-0.3 0.8-0.3 0.4 0 0.7 0.1 0.3 0.2 0.5 0.4 0.2 0.2 0.3 0.5 0.1 0.4 0.1 0.9v3h-0.8v-3q0-0.3 0-0.6-0.1-0.2-0.3-0.3-0.1-0.1-0.3-0.2-0.2-0.1-0.4-0.1-0.5 0-0.8 0.2-0.3 0.2-0.5 0.6v3.4h-0.8v-4.8zm7.9 3.5q0-0.1-0.1-0.2 0-0.2-0.2-0.3-0.1 0-0.3-0.1-0.3-0.1-0.6-0.2-0.4-0.1-0.8-0.2-0.3-0.1-0.5-0.3-0.3-0.1-0.4-0.3-0.1-0.3-0.1-0.6 0-0.3 0.1-0.5 0.1-0.3 0.4-0.5 0.2-0.1 0.6-0.2 0.3-0.2 0.7-0.2 0.5 0 0.8 0.2 0.4 0.1 0.6 0.3 0.3 0.2 0.4 0.4 0.1 0.3 0.1 0.6h-0.8q0-0.1-0.1-0.3 0-0.1-0.2-0.2-0.1-0.2-0.3-0.2-0.2-0.1-0.5-0.1-0.2 0-0.4 0.1-0.2 0-0.4 0.1-0.1 0.1-0.1 0.2-0.1 0.2-0.1 0.3 0 0.1 0 0.3 0.1 0.1 0.2 0.2 0.1 0 0.4 0.1 0.2 0.1 0.5 0.2 0.5 0 0.8 0.2 0.4 0.1 0.6 0.3 0.2 0.1 0.3 0.3 0.2 0.3 0.2 0.6 0 0.3-0.2 0.5-0.1 0.3-0.4 0.5-0.2 0.2-0.6 0.3-0.3 0.1-0.8 0.1-0.4 0-0.8-0.2-0.4-0.1-0.7-0.3-0.2-0.2-0.4-0.5-0.1-0.3-0.1-0.6h0.8q0 0.3 0.2 0.4 0.1 0.2 0.2 0.3 0.2 0.1 0.4 0.2 0.2 0 0.4 0 0.6 0 0.9-0.2 0.3-0.2 0.3-0.5zm5.3 1.3q0-0.1 0-0.2-0.1-0.2-0.1-0.3-0.1 0.1-0.3 0.2-0.1 0.1-0.3 0.2-0.2 0.1-0.4 0.1-0.2 0.1-0.4 0.1-0.4 0-0.7-0.1-0.3-0.1-0.5-0.3-0.2-0.2-0.4-0.5-0.1-0.2-0.1-0.5 0-0.4 0.2-0.7 0.1-0.3 0.4-0.5 0.3-0.2 0.7-0.3 0.4-0.1 0.9-0.1h0.9v-0.4q0-0.2-0.1-0.4-0.1-0.1-0.2-0.2-0.1-0.2-0.4-0.2-0.2-0.1-0.4-0.1-0.3 0-0.5 0.1-0.1 0-0.3 0.1-0.1 0.1-0.2 0.3-0.1 0.1-0.1 0.2h-0.8q0-0.2 0.2-0.5 0.1-0.2 0.3-0.4 0.3-0.2 0.6-0.3 0.4-0.2 0.8-0.2 0.4 0 0.8 0.1 0.3 0.1 0.6 0.3 0.2 0.2 0.4 0.5 0.1 0.3 0.1 0.7v2.2q0 0.3 0.1 0.6 0 0.2 0.1 0.4v0.1zm-1.5-0.6q0.3 0 0.5-0.1 0.2-0.1 0.4-0.2 0.1-0.1 0.3-0.2 0.1-0.1 0.2-0.3v-0.9h-0.8q-0.7 0-1.1 0.2-0.4 0.2-0.4 0.7 0 0.1 0 0.3 0.1 0.1 0.2 0.2 0.1 0.1 0.3 0.2 0.2 0.1 0.4 0.1zm5.8 0q0.2 0 0.4-0.1 0.2 0 0.4-0.2 0.2-0.1 0.2-0.2 0.1-0.2 0.2-0.4h0.7q0 0.3-0.1 0.6-0.2 0.3-0.5 0.5-0.2 0.2-0.6 0.3-0.3 0.2-0.7 0.2-0.6 0-1-0.2-0.4-0.2-0.6-0.5-0.3-0.4-0.4-0.8-0.2-0.4-0.2-0.9v-0.2q0-0.5 0.2-0.9 0.1-0.4 0.4-0.7 0.2-0.4 0.6-0.6 0.4-0.2 1-0.2 0.4 0 0.8 0.2 0.3 0.1 0.6 0.3 0.2 0.3 0.4 0.6 0.1 0.3 0.1 0.7h-0.7q-0.1-0.3-0.1-0.4-0.1-0.2-0.3-0.4-0.1-0.1-0.4-0.2-0.2-0.1-0.4-0.1-0.4 0-0.6 0.2-0.3 0.1-0.5 0.4-0.1 0.2-0.2 0.5-0.1 0.3-0.1 0.6v0.2q0 0.3 0.1 0.6 0.1 0.3 0.2 0.6 0.2 0.2 0.4 0.4 0.3 0.1 0.7 0.1zm5.3-5.3v1.1h1.8v0.7h-1.8v2.5q0 0.3 0.1 0.5 0 0.2 0.2 0.3 0.1 0.1 0.2 0.1 0.2 0.1 0.4 0.1 0.1 0 0.3 0 0.1 0 0.2-0.1 0.2 0 0.3 0 0.1 0 0.2-0.1l0.1 0.6q-0.1 0.1-0.3 0.1-0.1 0.1-0.3 0.1-0.1 0-0.3 0.1-0.2 0-0.4 0-0.3 0-0.6-0.1-0.3-0.1-0.5-0.3-0.2-0.2-0.3-0.5-0.1-0.3-0.1-0.8v-2.5h-1.3v-0.7h1.3v-1.1zm3.6 1.1h2.4v4.1h1.6v0.7h-4v-0.7h1.6v-3.4h-1.6zm1.5-1.2q0-0.2 0.1-0.3 0.1-0.2 0.4-0.2 0.2 0 0.3 0.2 0.2 0.1 0.2 0.3 0 0.2-0.2 0.3-0.1 0.2-0.3 0.1-0.3 0.1-0.4-0.1-0.1-0.1-0.1-0.3zm3.5 3.6q0-0.5 0.2-1 0.1-0.4 0.4-0.8 0.3-0.3 0.7-0.5 0.4-0.2 0.9-0.2 0.5 0 0.9 0.2 0.4 0.2 0.7 0.5 0.3 0.4 0.4 0.8 0.2 0.5 0.2 1v0.1q0 0.5-0.2 0.9-0.1 0.5-0.4 0.8-0.3 0.3-0.7 0.5-0.4 0.2-0.9 0.2-0.5 0-0.9-0.2-0.4-0.2-0.7-0.5-0.3-0.3-0.4-0.8-0.2-0.4-0.2-0.9zm0.8 0.1q0 0.3 0.1 0.6 0.1 0.4 0.3 0.6 0.2 0.2 0.4 0.4 0.3 0.1 0.6 0.1 0.3 0 0.6-0.1 0.2-0.2 0.4-0.4 0.2-0.2 0.3-0.6 0-0.3 0-0.6v-0.1q0-0.4 0-0.7-0.1-0.3-0.3-0.6-0.2-0.2-0.4-0.3-0.3-0.2-0.6-0.2-0.3 0-0.6 0.2-0.2 0.1-0.4 0.3-0.2 0.3-0.3 0.6-0.1 0.3-0.1 0.7zm5.6-2.5l0.1 0.7q0.2-0.3 0.6-0.5 0.4-0.2 0.8-0.3 0.4 0 0.7 0.2 0.3 0.1 0.5 0.3 0.2 0.2 0.4 0.6 0.1 0.3 0.1 0.8v3h-0.8v-3q0-0.3-0.1-0.5-0.1-0.3-0.2-0.4-0.1-0.1-0.4-0.2-0.1-0.1-0.4-0.1-0.4 0-0.7 0.2-0.3 0.2-0.5 0.6v3.4h-0.8v-4.8zm7.8 3.5q0-0.1-0.1-0.2 0-0.1-0.1-0.2-0.2-0.1-0.4-0.2-0.2-0.1-0.6-0.2-0.4-0.1-0.7-0.2-0.3-0.1-0.6-0.3-0.2-0.1-0.4-0.3-0.1-0.3-0.1-0.6 0-0.2 0.1-0.5 0.2-0.3 0.4-0.4 0.3-0.2 0.6-0.3 0.4-0.2 0.8-0.2 0.4 0 0.8 0.2 0.3 0.1 0.6 0.3 0.2 0.2 0.3 0.5 0.2 0.2 0.2 0.5h-0.8q0-0.1-0.1-0.3-0.1-0.1-0.2-0.2-0.2-0.1-0.4-0.2-0.2-0.1-0.4-0.1-0.3 0-0.5 0.1-0.2 0-0.3 0.1-0.1 0.1-0.2 0.3-0.1 0.1-0.1 0.2 0 0.2 0.1 0.3 0 0.1 0.2 0.2 0.1 0.1 0.3 0.1 0.2 0.1 0.6 0.2 0.4 0.1 0.7 0.2 0.4 0.1 0.6 0.3 0.3 0.1 0.4 0.4 0.1 0.2 0.1 0.5 0 0.3-0.1 0.5-0.2 0.3-0.4 0.5-0.3 0.2-0.6 0.3-0.4 0.1-0.8 0.1-0.5 0-0.9-0.1-0.4-0.2-0.6-0.4-0.3-0.2-0.4-0.5-0.2-0.3-0.2-0.6h0.9q0 0.3 0.1 0.4 0.1 0.2 0.3 0.3 0.2 0.1 0.4 0.2 0.2 0 0.4 0 0.5 0 0.8-0.2 0.3-0.2 0.3-0.5zm3.7-5l-0.1 1.6h-0.6v-1.5-0.6h0.7zm1.6 0l-0.1 1.7h-0.6v-1.6-0.5h0.7zm-143.7 19.8q0-0.5 0.1-1 0.1-0.4 0.4-0.7 0.2-0.3 0.6-0.5 0.3-0.2 0.8-0.2 0.4 0 0.7 0.1 0.3 0.2 0.6 0.4v-2.4h0.8v6.7h-0.8v-0.5q-0.2 0.3-0.6 0.5-0.3 0.1-0.7 0.1-0.5 0-0.8-0.2-0.4-0.1-0.6-0.5-0.3-0.3-0.4-0.7-0.1-0.5-0.1-1zm0.8 0.1q0 0.3 0 0.7 0.1 0.3 0.3 0.5 0.1 0.2 0.4 0.4 0.2 0.1 0.6 0.1 0.2 0 0.3 0 0.2-0.1 0.3-0.2 0.2-0.1 0.3-0.2 0.1-0.1 0.2-0.3v-2.2q-0.2-0.3-0.5-0.4-0.2-0.2-0.6-0.2-0.4 0-0.6 0.1-0.3 0.2-0.4 0.4-0.2 0.2-0.3 0.5 0 0.4 0 0.7zm7.8 2.3q0-0.1 0-0.2-0.1-0.1-0.1-0.3-0.1 0.1-0.3 0.2-0.1 0.2-0.3 0.2-0.2 0.1-0.4 0.2-0.2 0-0.4 0-0.4 0-0.7-0.1-0.3-0.1-0.5-0.3-0.2-0.2-0.3-0.4-0.2-0.3-0.2-0.6 0-0.4 0.2-0.7 0.2-0.3 0.4-0.5 0.3-0.2 0.7-0.3 0.4 0 0.9 0h0.9v-0.4q0-0.2-0.1-0.4 0-0.2-0.2-0.3-0.1-0.1-0.3-0.2-0.3-0.1-0.5-0.1-0.3 0-0.4 0.1-0.2 0.1-0.4 0.2-0.1 0.1-0.2 0.2 0 0.1 0 0.3h-0.9q0-0.3 0.2-0.5 0.1-0.3 0.3-0.5 0.3-0.2 0.6-0.3 0.4-0.1 0.8-0.1 0.4 0 0.8 0.1 0.3 0.1 0.6 0.3 0.2 0.2 0.4 0.5 0.1 0.3 0.1 0.7v2.2q0 0.2 0.1 0.5 0 0.3 0.1 0.5zm-1.4-0.6q0.2 0 0.4 0 0.2-0.1 0.4-0.2 0.1-0.1 0.3-0.2 0.1-0.2 0.2-0.3v-1h-0.8q-0.7 0-1.1 0.2-0.4 0.2-0.4 0.7 0 0.2 0.1 0.3 0 0.2 0.1 0.3 0.2 0.1 0.3 0.2 0.2 0 0.5 0zm5.6-5.3v1.2h1.8v0.6h-1.8v2.6q0 0.3 0.1 0.4 0 0.2 0.2 0.3 0.1 0.1 0.2 0.2 0.2 0 0.4 0 0.1 0 0.3 0 0.1 0 0.2 0 0.2 0 0.3-0.1 0.1 0 0.2 0l0.1 0.6q-0.1 0-0.3 0.1-0.1 0-0.3 0.1-0.1 0-0.3 0-0.2 0-0.4 0-0.3 0-0.6-0.1-0.3-0.1-0.5-0.3-0.2-0.1-0.3-0.5-0.1-0.3-0.1-0.7v-2.6h-1.3v-0.6h1.3v-1.2zm6.6 5.9q-0.1-0.1-0.1-0.2 0-0.1 0-0.3-0.2 0.1-0.3 0.2-0.2 0.2-0.3 0.2-0.2 0.1-0.4 0.2-0.2 0-0.5 0-0.3 0-0.7-0.1-0.3-0.1-0.5-0.3-0.2-0.2-0.3-0.4-0.1-0.3-0.1-0.6 0-0.4 0.1-0.7 0.2-0.3 0.5-0.5 0.3-0.2 0.7-0.3 0.4 0 0.9 0h0.9v-0.4q0-0.2-0.1-0.4-0.1-0.2-0.2-0.3-0.2-0.1-0.4-0.2-0.2-0.1-0.5-0.1-0.2 0-0.4 0.1-0.2 0.1-0.3 0.2-0.2 0.1-0.2 0.2-0.1 0.1-0.1 0.3h-0.8q0-0.3 0.1-0.5 0.1-0.3 0.4-0.5 0.2-0.2 0.6-0.3 0.3-0.1 0.8-0.1 0.4 0 0.7 0.1 0.4 0.1 0.6 0.3 0.3 0.2 0.4 0.5 0.2 0.3 0.2 0.7v2.2q0 0.2 0 0.5 0.1 0.3 0.1 0.5zm-1.4-0.6q0.2 0 0.4 0 0.2-0.1 0.4-0.2 0.2-0.1 0.3-0.2 0.1-0.2 0.2-0.3v-1h-0.8q-0.7 0-1.1 0.2-0.4 0.2-0.4 0.7 0 0.2 0.1 0.3 0.1 0.2 0.2 0.3 0.1 0.1 0.3 0.2 0.2 0 0.4 0zm7.3-1.8h-3.4v-0.7h3.4zm3.9 2.6q-0.5 0-0.9-0.2-0.4-0.2-0.7-0.5-0.3-0.3-0.5-0.7-0.2-0.4-0.2-0.9v-0.2q0-0.6 0.2-1.1 0.2-0.4 0.5-0.7 0.3-0.3 0.7-0.5 0.4-0.2 0.8-0.2 0.5 0 0.9 0.2 0.4 0.2 0.7 0.5 0.2 0.3 0.3 0.7 0.2 0.5 0.2 1v0.3h-3.4q0 0.3 0.1 0.6 0.1 0.3 0.3 0.5 0.2 0.2 0.5 0.4 0.2 0.1 0.6 0.1 0.4 0 0.7-0.2 0.4-0.2 0.6-0.5l0.5 0.4q-0.1 0.2-0.3 0.4-0.2 0.1-0.4 0.3-0.2 0.1-0.5 0.2-0.3 0.1-0.7 0.1zm-0.1-4.3q-0.2 0-0.5 0.1-0.2 0.1-0.3 0.2-0.2 0.2-0.3 0.5-0.2 0.2-0.2 0.6h2.5v-0.1q0-0.2 0-0.5-0.1-0.2-0.3-0.4-0.1-0.2-0.3-0.3-0.3-0.1-0.6-0.1zm4.2-0.6v0.7q0.3-0.4 0.6-0.6 0.4-0.2 0.9-0.2 0.4 0 0.7 0.1 0.3 0.1 0.5 0.4 0.2 0.2 0.3 0.5 0.1 0.4 0.1 0.8v3.1h-0.8v-3q0-0.4 0-0.6-0.1-0.2-0.3-0.3-0.1-0.2-0.3-0.2-0.2-0.1-0.4-0.1-0.5 0-0.8 0.2-0.3 0.2-0.5 0.6v3.4h-0.8v-4.8zm6.6 3.6v0.3l0.1-0.3 1.3-3.6h0.9l-2 4.8h-0.6l-1.9-4.8h0.8zm7.5-2.2h-4v-0.8h4zm0 1.9h-4v-0.7h4zm2.9-4.7l-0.1 1.6h-0.6v-1.5-0.6h0.7zm1.6 0l-0.1 1.6h-0.6v-1.5-0.6h0.7zm5.5 5.1q0-0.2 0-0.3-0.1-0.1-0.2-0.2-0.2-0.1-0.4-0.2-0.2-0.1-0.6-0.1-0.4-0.1-0.7-0.3-0.3-0.1-0.6-0.2-0.2-0.2-0.3-0.4-0.2-0.2-0.2-0.5 0-0.3 0.2-0.6 0.1-0.2 0.3-0.4 0.3-0.2 0.6-0.3 0.4-0.1 0.8-0.1 0.4 0 0.8 0.1 0.3 0.1 0.6 0.3 0.2 0.2 0.3 0.5 0.2 0.2 0.2 0.6h-0.8q0-0.2-0.1-0.3-0.1-0.2-0.2-0.3-0.2-0.1-0.4-0.2-0.2-0.1-0.4-0.1-0.3 0-0.5 0.1-0.2 0.1-0.3 0.1-0.1 0.1-0.2 0.3-0.1 0.1-0.1 0.2 0 0.2 0.1 0.3 0 0.1 0.2 0.2 0.1 0.1 0.3 0.1 0.2 0.1 0.6 0.2 0.4 0.1 0.8 0.2 0.3 0.1 0.5 0.3 0.3 0.2 0.4 0.4 0.1 0.2 0.1 0.5 0 0.3-0.1 0.6-0.2 0.2-0.4 0.4-0.3 0.2-0.6 0.3-0.4 0.1-0.8 0.1-0.5 0-0.9-0.1-0.3-0.2-0.6-0.4-0.3-0.2-0.4-0.5-0.1-0.2-0.1-0.6h0.8q0 0.3 0.1 0.5 0.1 0.1 0.3 0.2 0.2 0.2 0.4 0.2 0.2 0 0.4 0 0.5 0 0.8-0.1 0.3-0.2 0.3-0.5zm5.4 1.2q-0.1-0.1-0.1-0.2 0-0.2 0-0.3-0.2 0.1-0.3 0.2-0.2 0.1-0.3 0.2-0.2 0.1-0.4 0.2-0.2 0-0.5 0-0.3 0-0.7-0.1-0.3-0.1-0.5-0.3-0.2-0.2-0.3-0.4-0.1-0.3-0.1-0.6 0-0.4 0.1-0.7 0.2-0.3 0.5-0.5 0.3-0.2 0.7-0.3 0.4-0.1 0.9-0.1h0.9v-0.3q0-0.3-0.1-0.4-0.1-0.2-0.2-0.3-0.2-0.1-0.4-0.2-0.2-0.1-0.5-0.1-0.2 0-0.4 0.1-0.2 0-0.3 0.1-0.2 0.1-0.2 0.3-0.1 0.1-0.1 0.3h-0.8q0-0.3 0.1-0.5 0.1-0.3 0.4-0.5 0.2-0.2 0.6-0.3 0.3-0.1 0.8-0.1 0.4 0 0.7 0.1 0.4 0.1 0.6 0.3 0.3 0.2 0.4 0.5 0.2 0.3 0.2 0.7v2.2q0 0.2 0 0.5 0.1 0.2 0.1 0.4v0.1zm-1.4-0.6q0.2 0 0.4-0.1 0.2 0 0.4-0.1 0.2-0.1 0.3-0.3 0.1-0.1 0.2-0.2v-1h-0.8q-0.7 0-1.1 0.2-0.4 0.2-0.4 0.7 0 0.2 0.1 0.3 0.1 0.2 0.2 0.3 0.1 0.1 0.3 0.1 0.2 0.1 0.4 0.1zm4.4-4.1l0.1 0.7q0.3-0.4 0.6-0.6 0.4-0.2 0.9-0.2 0.4 0 0.7 0.1 0.3 0.1 0.5 0.3 0.2 0.2 0.3 0.6 0.1 0.3 0.1 0.8v3h-0.8v-3q0-0.3-0.1-0.5 0-0.2-0.2-0.4-0.1-0.1-0.3-0.2-0.2 0-0.5 0-0.4 0-0.7 0.2-0.3 0.2-0.5 0.5v3.4h-0.8v-4.7zm4.5 2.3q0-0.5 0.2-1 0.1-0.4 0.4-0.8 0.2-0.3 0.6-0.5 0.3-0.1 0.7-0.1 0.5 0 0.8 0.1 0.3 0.2 0.5 0.4v-2.4h0.9v6.7h-0.8v-0.5q-0.3 0.3-0.6 0.4-0.3 0.2-0.8 0.2-0.4 0-0.7-0.2-0.4-0.2-0.6-0.5-0.3-0.3-0.4-0.8-0.2-0.4-0.2-0.9zm0.9 0.1q0 0.3 0 0.6 0.1 0.4 0.3 0.6 0.1 0.2 0.4 0.4 0.2 0.1 0.5 0.1 0.2 0 0.4 0 0.2-0.1 0.3-0.2 0.1-0.1 0.3-0.2 0.1-0.1 0.1-0.3v-2.2q-0.1-0.3-0.4-0.5-0.3-0.1-0.7-0.1-0.3 0-0.5 0.1-0.3 0.1-0.4 0.4-0.2 0.2-0.3 0.5 0 0.3 0 0.7zm8.7 0q0 0.5-0.1 0.9-0.1 0.5-0.4 0.8-0.2 0.3-0.5 0.5-0.4 0.2-0.8 0.2-0.5 0-0.8-0.2-0.4-0.1-0.6-0.4l-0.1 0.5h-0.7v-6.7h0.8v2.5q0.2-0.3 0.6-0.5 0.3-0.1 0.7-0.1 0.5 0 0.9 0.1 0.3 0.2 0.5 0.5 0.3 0.4 0.4 0.8 0.1 0.5 0.1 1zm-0.8-0.1q0-0.3-0.1-0.7 0-0.3-0.2-0.5-0.1-0.3-0.4-0.4-0.2-0.1-0.6-0.1-0.2 0-0.3 0-0.2 0.1-0.4 0.2-0.1 0.1-0.2 0.2-0.1 0.1-0.2 0.3v2.1q0.1 0.1 0.2 0.3 0.1 0.1 0.2 0.2 0.2 0.1 0.4 0.2 0.1 0 0.4 0 0.3 0 0.5-0.1 0.3-0.2 0.4-0.4 0.2-0.2 0.2-0.5 0.1-0.4 0.1-0.7zm2 0q0-0.5 0.1-1 0.2-0.4 0.4-0.7 0.3-0.4 0.7-0.5 0.4-0.2 0.9-0.2 0.5 0 0.9 0.2 0.4 0.1 0.7 0.5 0.3 0.3 0.4 0.7 0.2 0.5 0.2 1v0.1q0 0.5-0.2 0.9-0.1 0.5-0.4 0.8-0.3 0.3-0.7 0.5-0.4 0.2-0.9 0.2-0.5 0-0.9-0.2-0.4-0.2-0.7-0.5-0.2-0.3-0.4-0.8-0.1-0.4-0.1-0.9zm0.8 0.1q0 0.3 0.1 0.7 0.1 0.3 0.2 0.5 0.2 0.3 0.4 0.4 0.3 0.1 0.6 0.1 0.4 0 0.6-0.1 0.3-0.1 0.4-0.4 0.2-0.2 0.3-0.5 0.1-0.4 0.1-0.7v-0.1q0-0.4-0.1-0.7-0.1-0.3-0.3-0.5-0.1-0.3-0.4-0.4-0.2-0.2-0.6-0.2-0.3 0-0.6 0.2-0.2 0.1-0.4 0.4-0.1 0.2-0.2 0.5-0.1 0.3-0.1 0.7zm6.8-0.7l1.2-1.7h1l-1.8 2.3 1.8 2.4h-0.9l-1.3-1.8-1.3 1.8h-1l1.8-2.4-1.7-2.3h0.9zm4.9-3.3l-0.1 1.6h-0.6l0.1-1.6v-0.5h0.6zm1.6 0l-0.1 1.6h-0.6v-1.5-0.6h0.7zm2.4 2.3v-0.8l3.9 1.6v0.7l-3.9 1.6v-0.8l2.8-1.1 0.3-0.1h-0.3zm-107.1 17l-0.2 0.1 0.2 0.1 2.7 1v0.9l-3.7-1.7v-0.6l3.7-1.7v0.9zm5.5 3.4h-0.8l2.7-6.9h0.7zm7.5-1.8q0-0.2 0-0.3-0.1-0.1-0.2-0.2-0.2-0.1-0.4-0.2-0.2 0-0.5-0.1-0.4-0.1-0.8-0.2-0.3-0.1-0.6-0.3-0.2-0.2-0.3-0.4-0.2-0.2-0.2-0.5 0-0.3 0.2-0.5 0.1-0.3 0.4-0.5 0.2-0.2 0.5-0.3 0.4-0.1 0.8-0.1 0.4 0 0.8 0.1 0.3 0.1 0.6 0.3 0.2 0.2 0.4 0.5 0.1 0.3 0.1 0.6h-0.8q0-0.2-0.1-0.3-0.1-0.2-0.2-0.3-0.2-0.1-0.4-0.2-0.2 0-0.4 0-0.3 0-0.5 0-0.2 0.1-0.3 0.2-0.1 0.1-0.2 0.2 0 0.1 0 0.3 0 0.1 0 0.2 0.1 0.1 0.2 0.2 0.1 0.1 0.3 0.2 0.3 0 0.6 0.1 0.4 0.1 0.8 0.2 0.3 0.1 0.6 0.3 0.2 0.2 0.3 0.4 0.1 0.2 0.1 0.5 0 0.3-0.1 0.6-0.1 0.3-0.4 0.4-0.3 0.2-0.6 0.3-0.4 0.1-0.8 0.1-0.5 0-0.8-0.1-0.4-0.1-0.7-0.3-0.2-0.3-0.4-0.5-0.1-0.3-0.1-0.6h0.8q0 0.2 0.1 0.4 0.1 0.2 0.3 0.3 0.2 0.1 0.4 0.1 0.2 0.1 0.4 0.1 0.5 0 0.8-0.2 0.3-0.2 0.3-0.5zm4.3 0.7q0.2 0 0.4-0.1 0.2-0.1 0.4-0.2 0.2-0.1 0.3-0.3 0.1-0.2 0.1-0.4h0.7q0 0.4-0.1 0.7-0.2 0.2-0.5 0.5-0.2 0.2-0.6 0.3-0.3 0.1-0.7 0.1-0.5 0-0.9-0.2-0.4-0.2-0.7-0.5-0.3-0.3-0.4-0.7-0.2-0.5-0.2-0.9v-0.2q0-0.5 0.2-0.9 0.1-0.5 0.4-0.8 0.3-0.3 0.7-0.5 0.4-0.2 0.9-0.2 0.4 0 0.8 0.1 0.3 0.2 0.6 0.4 0.2 0.2 0.4 0.5 0.1 0.4 0.1 0.7h-0.7q0-0.2-0.1-0.4-0.1-0.2-0.3-0.3-0.1-0.2-0.3-0.2-0.3-0.1-0.5-0.1-0.4 0-0.6 0.1-0.3 0.2-0.4 0.4-0.2 0.3-0.3 0.6 0 0.3 0 0.6v0.2q0 0.3 0 0.6 0.1 0.3 0.2 0.5 0.2 0.3 0.5 0.4 0.2 0.2 0.6 0.2zm6.5-4.3q0.1 0 0.2 0 0.2 0 0.3 0 0.1 0 0.2 0.1 0.1 0 0.1 0l-0.1 0.8q-0.2 0-0.4-0.1-0.2 0-0.5 0-0.5 0-0.9 0.3-0.4 0.2-0.5 0.7v3h-0.8v-4.7h0.7l0.1 0.7q0.3-0.3 0.7-0.6 0.4-0.2 0.9-0.2zm2.4 0.1h2.4v4h1.6v0.7h-4v-0.7h1.6v-3.3h-1.6zm1.5-1.2q0-0.3 0.1-0.4 0.2-0.1 0.4-0.1 0.3 0 0.4 0.1 0.1 0.1 0.1 0.4 0 0.1-0.1 0.3-0.1 0.1-0.4 0.1-0.2 0-0.4-0.1-0.1-0.2-0.1-0.3zm7.8 3.6q0 0.5-0.1 1-0.1 0.4-0.4 0.7-0.2 0.4-0.6 0.6-0.3 0.1-0.8 0.1-0.4 0-0.7-0.1-0.4-0.1-0.6-0.4v2.3h-0.8v-6.6h0.7l0.1 0.5q0.2-0.3 0.5-0.4 0.4-0.2 0.8-0.2 0.5 0 0.8 0.2 0.4 0.2 0.6 0.5 0.3 0.3 0.4 0.8 0.1 0.4 0.1 0.9zm-0.8-0.1q0-0.3-0.1-0.6-0.1-0.3-0.2-0.6-0.2-0.2-0.4-0.4-0.3-0.1-0.6-0.1-0.4 0-0.7 0.2-0.2 0.2-0.4 0.5v2.2q0.2 0.3 0.4 0.5 0.3 0.2 0.7 0.2 0.3 0 0.6-0.2 0.2-0.1 0.4-0.3 0.1-0.3 0.2-0.6 0.1-0.3 0.1-0.7zm4.1-3.5v1.2h1.8v0.6h-1.8v2.6q0 0.3 0.1 0.5 0.1 0.1 0.2 0.3 0.1 0.1 0.3 0.1 0.1 0.1 0.3 0.1 0.1 0 0.3-0.1 0.1 0 0.3 0 0.1 0 0.2 0 0.1-0.1 0.2-0.1l0.1 0.6q-0.1 0-0.2 0.1-0.2 0-0.3 0.1-0.2 0-0.4 0-0.2 0-0.4 0-0.3 0-0.6 0-0.3-0.1-0.5-0.3-0.2-0.2-0.3-0.5-0.1-0.3-0.1-0.8v-2.6h-1.2v-0.6h1.2v-1.2zm3.5 2v-0.9l3.9 1.7v0.6l-3.9 1.7v-0.9l2.8-1 0.3-0.1-0.3-0.1z"/>
		<g id="Group 13">
			<g id="Group 11">
				<path id="Rectangle Copy" class="s2" d="m1 8c0-4.4 3.6-8 8-8h312c4.4 0 8 3.6 8 8v21.5h-328z"/>
				<g id="Group 10">
					<path id="Oval" class="s3" d="m18.7 20.7c-3.3 0-5.9-2.7-5.9-5.9 0-3.3 2.6-5.9 5.9-5.9 3.3 0 5.9 2.6 5.9 5.9 0 3.2-2.6 5.9-5.9 5.9z"/>
					<path id="Oval Copy" class="s4" d="m35.2 20.7c-3.3 0-5.9-2.7-5.9-5.9 0-3.3 2.6-5.9 5.9-5.9 3.3 0 5.9 2.6 5.9 5.9 0 3.2-2.6 5.9-5.9 5.9z"/>
					<path id="Oval Copy 2" class="s5" d="m51.7 20.7c-3.2 0-5.9-2.7-5.9-5.9 0-3.3 2.7-5.9 5.9-5.9 3.3 0 5.9 2.6 5.9 5.9 0 3.2-2.6 5.9-5.9 5.9z"/>
				</g>
			</g>
		</g>
	</g>
</svg>