<svg version="1.2" xmlns="http://www.w3.org/2000/svg" viewBox="0 0 152 290" width="152" height="290">
	<title>dual_phones-svg</title>
	<defs>
		<linearGradient id="g1" x2="1" gradientUnits="userSpaceOnUse" gradientTransform="matrix(0,7.148,-140.234,0,181.788,0)">
			<stop offset="0" stop-color="#454545"/>
			<stop offset=".226" stop-color="#999999"/>
			<stop offset="1" stop-color="#ffffff"/>
		</linearGradient>
		<linearGradient id="g2" x2="1" gradientUnits="userSpaceOnUse" gradientTransform="matrix(-5.468,0,0,-189.183,326.326,49.734)">
			<stop offset="0" stop-color="#ffffff" stop-opacity=".01"/>
			<stop offset=".222" stop-color="#bababa" stop-opacity="1"/>
			<stop offset=".547" stop-color="#ffffff" stop-opacity=".01"/>
			<stop offset="1" stop-color="#ffffff" stop-opacity=".01"/>
		</linearGradient>
		<linearGradient id="g3" x2="1" gradientUnits="userSpaceOnUse" gradientTransform="matrix(5.477,0,0,189.484,177.484,49.583)">
			<stop offset="0" stop-color="#ffffff" stop-opacity=".01"/>
			<stop offset=".222" stop-color="#bababa" stop-opacity="1"/>
			<stop offset=".547" stop-color="#ffffff" stop-opacity=".01"/>
			<stop offset="1" stop-color="#ffffff" stop-opacity=".01"/>
		</linearGradient>
		<clipPath clipPathUnits="userSpaceOnUse" id="cp1">
			<path d="m238.81 7.22h-43c-6.42 0-11.1 4.38-11.1 10.11v244.99c0 7.47 7.23 14.09 15.4 14.09h103.64c7.87 0 15.4-6.67 15.4-14.09v-244.32c0-6.87-5.08-10.74-11.09-10.78h-43.69c-0.17 0.02-3.17 1.26-4.43 4.38-1.27 3.13-3.82 5.61-6.62 5.61h-3.24c-1.33 0-4.83-1.29-6.6-5.61-1.77-4.31-4.5-4.36-4.67-4.38z"/>
		</clipPath>
		<linearGradient id="g4" x2="1" gradientUnits="userSpaceOnUse" gradientTransform="matrix(0,7.148,-140.234,0,5.788,0)">
			<stop offset="0" stop-color="#454545"/>
			<stop offset=".226" stop-color="#999999"/>
			<stop offset="1" stop-color="#ffffff"/>
		</linearGradient>
		<linearGradient id="g5" x2="1" gradientUnits="userSpaceOnUse" gradientTransform="matrix(-5.468,0,0,-189.183,150.326,49.734)">
			<stop offset="0" stop-color="#ffffff" stop-opacity=".01"/>
			<stop offset=".222" stop-color="#bababa" stop-opacity="1"/>
			<stop offset=".547" stop-color="#ffffff" stop-opacity=".01"/>
			<stop offset="1" stop-color="#ffffff" stop-opacity=".01"/>
		</linearGradient>
		<linearGradient id="g6" x2="1" gradientUnits="userSpaceOnUse" gradientTransform="matrix(5.477,0,0,189.476,1.484,49.583)">
			<stop offset="0" stop-color="#ffffff" stop-opacity=".01"/>
			<stop offset=".222" stop-color="#bababa" stop-opacity="1"/>
			<stop offset=".547" stop-color="#ffffff" stop-opacity=".01"/>
			<stop offset="1" stop-color="#ffffff" stop-opacity=".01"/>
		</linearGradient>
		<clipPath clipPathUnits="userSpaceOnUse" id="cp2">
			<path d="m62.81 7.22h-43c-6.42 0-11.1 4.38-11.1 10.11v244.99c0 7.47 7.23 14.09 15.4 14.09h103.64c7.87 0 15.4-6.67 15.4-14.09v-244.32c0-6.87-5.08-10.74-11.09-10.78h-43.69c-0.17 0.02-3.17 1.26-4.43 4.38-1.27 3.13-3.82 5.61-6.62 5.61h-3.24c-1.33 0-4.83-1.29-6.6-5.61-1.77-4.31-4.51-4.36-4.67-4.38z"/>
		</clipPath>
	</defs>
	<style>
		.s0 { fill: #213648 } 
		.s1 { opacity: .4;fill: url(#g1) } 
		.s2 { opacity: .7;fill: url(#g2) } 
		.s3 { opacity: .7;fill: url(#g3) } 
		.s4 { fill: #2e423c } 
		.s5 { fill: #36536b } 
		.s6 { fill: #fbfcfe } 
		.s7 { opacity: .3;fill: #ba4270 } 
		.s8 { fill: none;stroke: #ba4270;stroke-width: 3 } 
		.s9 { fill: #ba4270 } 
		.s10 { opacity: .4;fill: url(#g4) } 
		.s11 { opacity: .7;fill: url(#g5) } 
		.s12 { opacity: .7;fill: url(#g6) } 
		.s13 { fill: #edf3f8 } 
		.s14 { opacity: .7;fill: #36536b } 
		.s15 { fill: #ffffff } 
		.s16 { opacity: .5;fill: #ffffff } 
		.s17 { opacity: .3;fill: #ffffff } 
	</style>
	<g id="Layer">
		<path id="Layer" fill-rule="evenodd" class="s0" d="m196.7 0.3h110.5c10.6 0 19.2 8.3 19.2 18.5v252.4c0 10.2-8.6 18.5-19.2 18.5h-110.5c-10.6 0-19.2-8.3-19.2-18.5v-252.4c0-10.2 8.6-18.5 19.2-18.5z"/>
	</g>
	<path id="Layer" fill-rule="evenodd" class="s1" d="m307.6 0h-111.4q-7.8 0.5-14.4 7.1c2.8-2.4 7.9-5.7 14.5-5.7 0 0 106.8 0 111.2 0 6.7 0 11.7 3.3 14.5 5.7q-6.6-6.6-14.4-7.1z"/>
	<path id="Layer" fill-rule="evenodd" class="s2" d="m323.4 268.4v-248.1c0-6.7-2.5-9.1-3.9-10.7-1.5-1.6-1.5-2.4 0.6-1.2 2 1.2 6.2 4.7 6.2 11.9v248.1c0 7.2-4.2 10.6-6.2 11.8-2.1 1.2-2.1 0.4-0.6-1.2 1.4-1.5 3.9-4 3.9-10.6z"/>
	<path id="Layer" fill-rule="evenodd" class="s3" d="m180.4 268.4v-248.1c0-6.7 2.5-9.1 3.9-10.7 1.5-1.6 1.5-2.4-0.5-1.2-2.1 1.2-6.3 4.7-6.3 11.9v248.1c0 7.2 4.2 10.6 6.3 11.8 2 1.2 2 0.4 0.5-1.2-1.4-1.5-3.9-4-3.9-10.6z"/>
	<path id="Layer" fill-rule="evenodd" class="s4" d="m176 60.3c0-0.8 0.6-1.4 1.4-1.4 0.8 0 1.5 0.6 1.5 1.4v34.5c0 0.8-0.7 1.4-1.5 1.4-0.8 0-1.4-0.6-1.4-1.4z"/>
	<path id="Layer" fill-rule="evenodd" class="s4" d="m324.8 90.8c0-0.8 0.7-1.5 1.5-1.5 0.8 0 1.4 0.7 1.4 1.5v24.3c0 0.8-0.6 1.5-1.4 1.5-0.8 0-1.5-0.7-1.5-1.5z"/>
	<path id="Layer" fill-rule="evenodd" class="s5" d="m238.8 7.2h-43c-6.4 0-11.1 4.4-11.1 10.1v245c0 7.5 7.2 14.1 15.4 14.1h103.7c7.8 0 15.3-6.7 15.3-14.1v-244.3c0-6.9-5-10.7-11-10.8h-43.7c-0.2 0-3.2 1.3-4.5 4.4-1.2 3.1-3.8 5.6-6.6 5.6h-3.2c-1.4 0-4.8-1.3-6.6-5.6-1.8-4.3-4.5-4.4-4.7-4.4z"/>
	<g id="Clip-Path" clip-path="url(#cp1)">
		<g id="Layer">
		</g>
	</g>
	<g id="Layer">
		<path id="Layer" class="s6" d="m200.9 84.4c0-1.1 0.8-2 2-2h97.7c1.1 0 2 0.9 2 2v106.7c0 1.1-0.9 2-2 2h-97.7c-1.2 0-2-0.9-2-2z"/>
	</g>
	<path id="Layer" fill-rule="evenodd" class="s5" d="m263.3 150.8v0.7h-0.9v-0.7q-0.7 0-1.1-0.3-0.6-0.4-0.7-1.2l1.1-0.1q0.1 0.4 0.4 0.6 0.3 0.2 0.8 0.2 0.3 0 0.5-0.1 0.2-0.1 0.3-0.2 0.1-0.2 0.1-0.4 0-0.3-0.2-0.4-0.2-0.2-0.6-0.3l-0.9-0.2q-0.6-0.1-1-0.5-0.3-0.3-0.3-0.9 0-0.6 0.2-0.9 0.3-0.4 0.8-0.6l0.1-0.1q0.3 0 0.5-0.1v-0.7h1v0.7h0.1q0.2 0.1 0.5 0.2 0.4 0.2 0.6 0.6 0.3 0.4 0.3 0.8h-1.1q-0.1-0.3-0.3-0.5-0.2-0.2-0.6-0.2-0.2 0-0.4 0-0.2 0.1-0.3 0.1-0.1 0.1-0.2 0.3-0.1 0.1-0.1 0.2 0 0.3 0.2 0.4 0.2 0.1 0.6 0.3l0.9 0.2q0.7 0.1 1.1 0.6 0.3 0.4 0.3 1 0 0.5-0.3 0.8-0.2 0.4-0.7 0.6h-0.1q-0.3 0.1-0.5 0.1zm-42.4-2v2h-0.8v-5.5h1.9q0.6 0 1 0.2 0.5 0.2 0.8 0.6 0.2 0.4 0.2 1 0 0.5-0.2 0.9-0.3 0.4-0.7 0.6-0.4 0.2-1 0.2zm0-0.7h1.2q0.5 0 0.8-0.3 0.3-0.3 0.3-0.8 0-0.5-0.3-0.7-0.3-0.3-0.9-0.3h-1.1zm4.1 2.6q-0.2-0.1-0.4-0.4-0.2-0.3-0.2-0.6 0-0.7 0.5-1 0.4-0.3 1.4-0.3h0.7v-0.3q0-0.4-0.2-0.6-0.2-0.1-0.6-0.1-0.3 0-0.6 0.1-0.2 0.1-0.3 0.5h-0.7q0-0.4 0.2-0.7 0.2-0.2 0.6-0.4 0.3-0.1 0.8-0.1 0.5 0 0.9 0.1 0.3 0.2 0.5 0.4 0.2 0.3 0.2 0.7v2.8h-0.7l-0.1-0.8q-0.2 0.5-0.5 0.7-0.4 0.1-0.8 0.1-0.4 0-0.7-0.1zm0.4-0.6q0.2 0.2 0.6 0.2 0.1 0 0.3-0.1 0.2-0.1 0.4-0.2 0.1-0.1 0.2-0.2 0.1-0.2 0.1-0.3v-0.7h-0.5q-0.4 0-0.7 0.1-0.3 0.1-0.5 0.3-0.1 0.1-0.1 0.4 0 0.3 0.2 0.5zm3.2 1.8h-0.1v-0.5h0.4q0.2 0 0.4 0 0.1-0.1 0.2-0.2 0.1 0 0.1-0.1 0.1-0.1 0.1-0.1l0.1-0.4-1.5-3.7h0.8l1.1 2.8 1.1-2.8h0.8l-1.6 4.1q-0.2 0.4-0.4 0.6-0.2 0.2-0.4 0.3-0.3 0.1-0.6 0.1-0.3 0-0.5-0.1zm4.9-3.7v2.6h-0.8v-3.9h0.8v0.5q0.2-0.2 0.4-0.4 0.3-0.2 0.8-0.2 0.2 0 0.4 0 0.2 0.1 0.4 0.3 0.2 0.1 0.3 0.3 0.2-0.3 0.5-0.4 0.3-0.2 0.7-0.2 0.2 0 0.4 0 0.2 0.1 0.4 0.3 0.2 0.1 0.3 0.4 0.1 0.3 0.1 0.7v2.6h-0.8v-2.5q0-0.3-0.1-0.5-0.1-0.2-0.3-0.3-0.1 0-0.3 0-0.2 0-0.4 0-0.2 0.1-0.3 0.2-0.1 0.2-0.1 0.5v2.6h-0.8v-2.7q0-0.2-0.1-0.4-0.2-0.1-0.3-0.2-0.2 0-0.4 0-0.2 0-0.3 0-0.2 0.1-0.4 0.3-0.1 0.1-0.1 0.4zm6.4 2.4q-0.4-0.3-0.7-0.7-0.2-0.4-0.2-1.1 0-0.6 0.2-1 0.2-0.5 0.6-0.8 0.5-0.2 1-0.2 0.6 0 1 0.2 0.4 0.3 0.6 0.7 0.2 0.4 0.2 1v0.3h-2.8q0 0.3 0.1 0.6 0.2 0.3 0.4 0.5 0.2 0.1 0.6 0.1 0.3 0 0.6-0.1 0.2-0.2 0.3-0.5h0.7q0 0.4-0.3 0.7-0.2 0.2-0.6 0.4-0.3 0.1-0.7 0.1-0.6 0-1-0.2zm-0.1-2.1h2q0-0.3-0.1-0.6-0.1-0.2-0.3-0.4-0.3-0.1-0.6-0.1-0.3 0-0.5 0.1-0.3 0.2-0.4 0.4-0.1 0.3-0.1 0.6zm3.6 2.3v-3.9h0.8v0.5q0.1-0.1 0.2-0.3 0.2-0.1 0.4-0.2 0.3-0.1 0.6-0.1 0.3 0 0.6 0.1 0.4 0.2 0.5 0.5 0.2 0.3 0.2 0.8v2.6h-0.8v-2.5q0-0.4-0.2-0.6-0.2-0.2-0.6-0.2-0.2 0-0.4 0-0.2 0.1-0.4 0.3-0.1 0.1-0.1 0.4v2.6zm6 0q-0.1 0-0.4 0-0.4 0-0.6-0.1-0.3-0.2-0.4-0.4-0.1-0.2-0.1-0.5v-2.4h-0.6v-0.5h0.7l0.2-1.2h0.5v1.1h0.9v0.6h-0.9v2.4q0 0.2 0.1 0.2 0 0.1 0.1 0.2 0.1 0 0.3 0h0.4v0.5q0 0-0.2 0.1zm3.3-0.2q-0.4-0.2-0.7-0.7-0.2-0.4-0.2-1.1 0-0.6 0.2-1.1 0.2-0.4 0.7-0.7 0.4-0.2 0.9-0.2 0.6 0 1 0.2 0.4 0.3 0.6 0.7 0.2 0.5 0.2 1.1 0 0.6-0.2 1.1-0.2 0.4-0.6 0.7-0.4 0.2-1 0.2-0.5 0-0.9-0.2zm0.3-0.6q0.3 0.2 0.6 0.2 0.4 0 0.6-0.2 0.2-0.1 0.3-0.5 0.1-0.3 0.1-0.7 0-0.4-0.1-0.7-0.1-0.3-0.3-0.5-0.2-0.2-0.6-0.2-0.3 0-0.5 0.2-0.3 0.1-0.4 0.5-0.1 0.3-0.1 0.7 0 0.4 0.1 0.7 0.1 0.3 0.3 0.5zm3.6 0.8v-3.4h-0.8v-0.5h0.8v-0.6q0-0.5 0.3-0.8 0.2-0.2 0.7-0.2h0.8v0.6h-0.6q-0.2 0-0.3 0.1-0.1 0.1-0.1 0.4v0.5h0.9v0.5h-0.9v3.4zm10-0.2q-0.4-0.2-0.7-0.5-0.3-0.4-0.3-0.8h1q0.1 0.3 0.3 0.5 0.3 0.2 0.6 0.2 0.4 0 0.7-0.2 0.3-0.2 0.4-0.6 0.2-0.4 0.1-1.1-0.1 0.2-0.2 0.4-0.2 0.1-0.5 0.2-0.2 0.1-0.5 0.1-0.6 0-1-0.2-0.4-0.2-0.7-0.6-0.2-0.4-0.2-0.9 0-0.6 0.2-1 0.3-0.4 0.7-0.6 0.5-0.3 1.1-0.3 0.7 0 1.2 0.4 0.5 0.3 0.8 0.9 0.3 0.6 0.3 1.4 0 1-0.3 1.6-0.3 0.7-0.8 1-0.5 0.3-1.2 0.3-0.6 0-1-0.2zm0.4-2.9q0.3 0.2 0.7 0.2 0.2 0 0.4-0.1 0.2-0.1 0.4-0.2 0.1-0.2 0.1-0.4 0-0.3-0.1-0.6-0.1-0.3-0.4-0.4-0.2-0.1-0.4-0.1-0.3 0-0.5 0.1-0.2 0.1-0.3 0.3-0.1 0.2-0.1 0.5 0 0.4 0.2 0.7zm3.5 3.1v-0.9q0-0.4 0.2-0.7 0.2-0.3 0.4-0.5 0.3-0.2 0.6-0.4 0.3-0.2 0.6-0.3 0.3-0.2 0.5-0.3 0.3-0.2 0.4-0.4 0.2-0.2 0.2-0.4 0-0.3-0.2-0.6-0.3-0.2-0.7-0.2-0.4 0-0.7 0.3-0.2 0.2-0.3 0.7h-1.1q0.1-0.5 0.3-1 0.2-0.4 0.7-0.6 0.5-0.3 1.2-0.3 0.6 0 1 0.2 0.5 0.2 0.7 0.6 0.2 0.4 0.2 0.9 0 0.4-0.1 0.7-0.2 0.3-0.4 0.5-0.3 0.2-0.5 0.4-0.3 0.1-0.6 0.3-0.3 0.1-0.6 0.2-0.2 0.2-0.4 0.3-0.1 0.2-0.1 0.5h2.7v1zm8.3-0.7q-0.6 0.7-1.5 0.7-1 0-1.6-0.7-0.5-0.7-0.5-2.1 0-0.9 0.2-1.5 0.3-0.6 0.7-0.9 0.5-0.4 1.2-0.4 0.9 0 1.5 0.8 0.5 0.7 0.5 2 0 1.4-0.5 2.1zm-0.8-0.6q0.2-0.4 0.2-1.5 0-1-0.2-1.5-0.3-0.4-0.8-0.4-0.4 0-0.7 0.4-0.2 0.5-0.2 1.5 0 1.1 0.2 1.5 0.3 0.4 0.8 0.4 0.4 0 0.7-0.4zm5.5 0v1.3h-1.1v-1.3h-2.5v-0.9l2.5-3.3h1.1v3.3h0.8v0.9zm-1.1-2.9l-1.4 2h1.4zm-58.4 9.1v0.8h-0.8v-0.8zm-0.8 5.5v-3.9h0.8v3.9zm4.1-0.1q-0.3 0.2-0.8 0.2-0.4 0-0.7-0.2-0.4-0.1-0.6-0.4-0.3-0.2-0.3-0.7h0.7q0 0.3 0.2 0.4 0.1 0.1 0.3 0.2 0.2 0.1 0.4 0.1 0.4 0 0.6-0.2 0.2-0.1 0.2-0.4 0-0.2-0.1-0.3-0.1-0.1-0.4-0.2l-0.8-0.1q-0.4-0.2-0.7-0.4-0.3-0.3-0.3-0.7 0-0.3 0.2-0.6 0.1-0.3 0.5-0.4 0.3-0.2 0.8-0.2 0.7 0 1.1 0.3 0.4 0.3 0.4 0.9h-0.7q-0.1-0.3-0.3-0.5-0.2-0.1-0.5-0.1-0.3 0-0.6 0.1-0.2 0.2-0.2 0.4 0 0.2 0.2 0.4 0.1 0.1 0.5 0.1l0.7 0.2q0.3 0.1 0.5 0.2 0.1 0.1 0.3 0.3 0.1 0.1 0.1 0.3 0 0.1 0 0.3 0 0.4-0.1 0.6-0.2 0.3-0.6 0.4zm3.8-0.1q-0.4-0.2-0.7-0.6-0.2-0.5-0.2-1.1 0-0.7 0.2-1.1 0.2-0.5 0.6-0.7 0.4-0.3 1-0.3 0.4 0 0.8 0.2 0.3 0.2 0.5 0.5 0.2 0.3 0.3 0.7h-0.7q0-0.2-0.2-0.4-0.1-0.1-0.3-0.2-0.1-0.1-0.4-0.1-0.5 0-0.8 0.3-0.2 0.3-0.2 1 0 0.7 0.2 1.1 0.3 0.4 0.8 0.4 0.3 0 0.5-0.1 0.1-0.1 0.3-0.3 0.1-0.2 0.1-0.4h0.7q-0.1 0.4-0.3 0.7-0.2 0.3-0.5 0.5-0.4 0.2-0.8 0.2-0.5 0-0.9-0.3zm5.9 0q-0.4 0.3-1 0.3-0.6 0-1-0.3-0.4-0.2-0.6-0.7-0.2-0.4-0.2-1 0-0.7 0.2-1.1 0.2-0.5 0.6-0.7 0.4-0.3 1-0.3 0.5 0 0.9 0.3 0.5 0.2 0.7 0.7 0.2 0.4 0.2 1.1 0 0.6-0.2 1-0.2 0.5-0.6 0.7zm-0.4-0.5q0.2-0.2 0.3-0.5 0.1-0.3 0.1-0.8 0-0.4-0.1-0.7-0.1-0.3-0.3-0.5-0.2-0.2-0.6-0.2-0.3 0-0.6 0.2-0.2 0.2-0.3 0.5-0.1 0.3-0.1 0.7 0 0.4 0.1 0.7 0.1 0.4 0.3 0.6 0.2 0.1 0.6 0.1 0.3 0 0.6-0.1zm2.8-1.9v2.6h-0.8v-3.9h0.8v0.6q0.1-0.3 0.4-0.5 0.3-0.2 0.8-0.2 0.2 0 0.4 0.1 0.2 0.1 0.4 0.2 0.2 0.1 0.3 0.3 0.2-0.2 0.5-0.4 0.3-0.2 0.7-0.2 0.2 0 0.4 0.1 0.2 0 0.4 0.2 0.2 0.2 0.3 0.4 0.1 0.3 0.1 0.7v2.6h-0.8v-2.5q0-0.3-0.1-0.5-0.1-0.2-0.3-0.2-0.1-0.1-0.3-0.1-0.2 0-0.4 0.1-0.2 0-0.3 0.2-0.1 0.1-0.1 0.4v2.6h-0.8v-2.7q0-0.2-0.2-0.3-0.1-0.2-0.2-0.2-0.2-0.1-0.4-0.1-0.2 0-0.4 0.1-0.2 0-0.3 0.2-0.1 0.2-0.1 0.4zm5.7 3.8v-5.1h0.8v0.6q0.1-0.1 0.2-0.2 0.1-0.1 0.3-0.2 0.1-0.2 0.3-0.2 0.2-0.1 0.5-0.1 0.4 0 0.8 0.2 0.3 0.2 0.5 0.7 0.2 0.4 0.2 1.1 0 0.7-0.2 1.1-0.2 0.5-0.5 0.7-0.4 0.3-0.9 0.3-0.2 0-0.4-0.1-0.2-0.1-0.4-0.2-0.1-0.1-0.2-0.2-0.1-0.2-0.2-0.3v1.9zm1.3-1.9q0.2 0.2 0.5 0.2 0.5 0 0.8-0.4 0.3-0.3 0.3-1.1 0-0.6-0.3-1-0.3-0.4-0.8-0.4-0.5 0-0.7 0.4-0.3 0.4-0.3 1 0 0.4 0.1 0.7 0.1 0.4 0.4 0.6zm3.6 0.7q-0.2-0.1-0.3-0.3-0.1-0.1-0.1-0.3-0.1-0.2-0.1-0.4v-4.6h0.8v4.5q0 0.2 0.1 0.4 0.1 0.1 0.4 0.2h0.2v0.5q-0.1 0-0.2 0-0.1 0-0.2 0-0.4 0-0.6 0zm4.1-0.1q-0.3 0.2-0.7 0.2-0.6 0-1-0.3-0.4-0.2-0.7-0.7-0.2-0.4-0.2-1 0-0.6 0.2-1.1 0.2-0.5 0.6-0.7 0.4-0.3 1-0.3 0.6 0 1 0.3 0.3 0.2 0.5 0.6 0.2 0.5 0.2 1.1v0.2h-2.7q0 0.4 0.1 0.7 0.1 0.2 0.4 0.4 0.2 0.2 0.6 0.2 0.3 0 0.6-0.2 0.2-0.2 0.3-0.5h0.7q0 0.4-0.3 0.7-0.2 0.3-0.6 0.4zm0.1-2.8q-0.1-0.2-0.3-0.3-0.3-0.2-0.6-0.2-0.3 0-0.5 0.2-0.3 0.1-0.4 0.4-0.1 0.2-0.1 0.5h2q0-0.3-0.1-0.6zm3.4 2.9q-0.1 0-0.3 0-0.5 0-0.7-0.1-0.2-0.1-0.3-0.3-0.1-0.3-0.1-0.6v-2.3h-0.7v-0.6h0.7l0.2-1.2h0.6v1.2h0.8v0.6h-0.8v2.3q0 0.2 0 0.3 0.1 0.1 0.2 0.1 0 0 0.2 0h0.5v0.5q-0.1 0.1-0.3 0.1zm1.7-0.2q-0.4-0.2-0.6-0.7-0.3-0.4-0.3-1 0-0.6 0.2-1.1 0.3-0.5 0.7-0.7 0.4-0.3 0.9-0.3 0.6 0 1 0.3 0.4 0.2 0.6 0.6 0.2 0.5 0.2 1.1v0.2h-2.8q0 0.4 0.1 0.7 0.2 0.2 0.4 0.4 0.2 0.2 0.6 0.2 0.3 0 0.6-0.2 0.2-0.2 0.3-0.5h0.7q0 0.4-0.3 0.7-0.2 0.3-0.6 0.4-0.3 0.2-0.7 0.2-0.6 0-1-0.3zm-0.1-2.1h2q0-0.3-0.1-0.6-0.1-0.2-0.3-0.3-0.2-0.2-0.6-0.2-0.3 0-0.5 0.2-0.2 0.1-0.4 0.4-0.1 0.2-0.1 0.5zm3.8 1.8q-0.4-0.5-0.4-1.5 0-0.6 0.2-1 0.1-0.5 0.5-0.7 0.3-0.3 0.9-0.3 0.2 0 0.4 0.1 0.2 0 0.4 0.1 0.1 0.1 0.2 0.3 0.1 0.1 0.2 0.2v-2.3h0.8v5.6h-0.6l-0.1-0.8q0 0.1-0.1 0.3-0.1 0.1-0.2 0.3-0.2 0.1-0.4 0.2-0.3 0.1-0.6 0.1-0.7 0-1.2-0.6zm0.6-0.4q0.3 0.4 0.8 0.4 0.5 0 0.8-0.4 0.2-0.3 0.2-1.1 0-0.4-0.1-0.8-0.1-0.3-0.3-0.4-0.3-0.2-0.6-0.2-0.5 0-0.7 0.4-0.3 0.3-0.3 1 0 0.7 0.2 1.1zm5.7 0.8q-0.3-0.1-0.5-0.4-0.1-0.2-0.1-0.6 0-0.6 0.4-0.9 0.5-0.4 1.5-0.4h0.6v-0.3q0-0.3-0.2-0.5-0.2-0.2-0.6-0.2-0.3 0-0.5 0.1-0.3 0.2-0.3 0.5h-0.7q0-0.4 0.2-0.6 0.2-0.3 0.5-0.4 0.4-0.2 0.9-0.2 0.5 0 0.8 0.2 0.4 0.1 0.5 0.4 0.2 0.3 0.2 0.7v2.7h-0.7v-0.7q-0.3 0.4-0.6 0.6-0.3 0.2-0.7 0.2-0.4 0-0.7-0.2zm0.4-0.6q0.2 0.2 0.5 0.2 0.2 0 0.4-0.1 0.2 0 0.3-0.1 0.2-0.2 0.2-0.3 0.1-0.1 0.1-0.3v-0.6h-0.5q-0.4 0-0.7 0.1-0.3 0-0.4 0.2-0.1 0.2-0.1 0.4 0 0.4 0.2 0.5zm3.4 0.7v-3.9h0.8v0.6q0.1-0.2 0.2-0.3 0.2-0.2 0.4-0.3 0.2-0.1 0.6-0.1 0.3 0 0.6 0.2 0.3 0.1 0.5 0.4 0.2 0.3 0.2 0.8v2.6h-0.8v-2.5q0-0.4-0.2-0.6-0.2-0.2-0.6-0.2-0.2 0-0.4 0.1-0.3 0.1-0.4 0.2-0.1 0.2-0.1 0.4v2.6zm6.3 0q-0.3 0.1-0.6 0.1-0.8 0-1.2-0.6-0.4-0.5-0.4-1.5 0-0.6 0.1-1 0.2-0.5 0.6-0.7 0.3-0.3 0.8-0.3 0.3 0 0.5 0.1 0.2 0 0.4 0.1 0.1 0.1 0.2 0.3 0.1 0.1 0.2 0.2v-2.3h0.8v5.6h-0.6l-0.1-0.8q0 0.1-0.1 0.3-0.1 0.1-0.3 0.3-0.1 0.1-0.3 0.2zm0.3-0.9q0.3-0.3 0.3-1.1 0-0.4-0.1-0.8-0.1-0.3-0.3-0.4-0.3-0.2-0.6-0.2-0.5 0-0.8 0.4-0.2 0.3-0.2 1 0 0.7 0.2 1.1 0.3 0.4 0.8 0.4 0.5 0 0.7-0.4zm-66.8 10.7v1.8h-0.8v-5.1h0.8v0.7q0.1-0.1 0.2-0.3 0.1-0.1 0.3-0.2 0.2-0.1 0.4-0.2 0.2 0 0.4 0 0.5 0 0.8 0.2 0.4 0.2 0.6 0.6 0.2 0.5 0.2 1.1 0 0.7-0.2 1.2-0.2 0.4-0.6 0.7-0.4 0.2-0.9 0.2-0.2 0-0.4-0.1-0.2 0-0.3-0.1-0.2-0.2-0.3-0.3-0.1-0.1-0.2-0.2zm1.8-0.3q0.3-0.3 0.3-1 0-0.7-0.3-1.1-0.2-0.3-0.7-0.3-0.5 0-0.8 0.4-0.3 0.3-0.3 1 0 0.3 0.2 0.7 0.1 0.3 0.3 0.5 0.2 0.2 0.6 0.2 0.4 0 0.7-0.4zm2.7-1.4v2.3h-0.8v-3.9h0.7v0.8q0.1-0.3 0.3-0.4 0.2-0.2 0.4-0.3 0.2-0.1 0.5-0.1 0.1 0 0.1 0 0.1 0 0.2 0v0.8q-0.1 0-0.2-0.1 0 0-0.1 0-0.3 0-0.5 0.1-0.2 0-0.3 0.1-0.2 0.1-0.3 0.3 0 0.2 0 0.4zm2.6 2.2q-0.4-0.3-0.6-0.7-0.2-0.5-0.2-1.1 0-0.6 0.2-1.1 0.2-0.4 0.6-0.7 0.4-0.2 1-0.2 0.5 0 0.9 0.2 0.4 0.2 0.6 0.7 0.3 0.5 0.3 1.1 0 0.6-0.2 1-0.3 0.5-0.7 0.8-0.4 0.2-0.9 0.2-0.6 0-1-0.2zm0.4-0.6q0.2 0.2 0.6 0.2 0.3 0 0.5-0.2 0.2-0.2 0.4-0.5 0.1-0.3 0.1-0.7 0-0.4-0.1-0.7-0.1-0.3-0.4-0.5-0.2-0.2-0.5-0.2-0.4 0-0.6 0.1-0.2 0.2-0.3 0.5-0.2 0.3-0.2 0.8 0 0.4 0.1 0.7 0.1 0.3 0.4 0.5zm3.8 0.6q-0.4-0.3-0.6-0.7-0.3-0.5-0.3-1.1 0-0.6 0.2-1.1 0.3-0.4 0.7-0.7 0.4-0.2 0.9-0.2 0.5 0 0.8 0.1 0.4 0.2 0.6 0.5 0.2 0.3 0.2 0.7h-0.7q0-0.2-0.1-0.3-0.1-0.2-0.3-0.3-0.2-0.1-0.5-0.1-0.4 0-0.7 0.3-0.3 0.4-0.3 1.1 0 0.6 0.3 1 0.2 0.4 0.8 0.4 0.2 0 0.4-0.1 0.2-0.1 0.3-0.3 0.1-0.1 0.1-0.3h0.7q0 0.4-0.2 0.7-0.2 0.3-0.6 0.4-0.3 0.2-0.8 0.2-0.5 0-0.9-0.2zm5.8 0.1q-0.4 0.1-0.8 0.1-0.5 0-1-0.2-0.4-0.3-0.6-0.7-0.2-0.5-0.2-1.1 0-0.6 0.2-1.1 0.2-0.4 0.6-0.7 0.4-0.2 1-0.2 0.5 0 0.9 0.2 0.4 0.2 0.6 0.7 0.2 0.4 0.2 1v0.3h-2.7q0 0.3 0.1 0.6 0.1 0.3 0.3 0.4 0.3 0.2 0.6 0.2 0.4 0 0.6-0.2 0.3-0.1 0.3-0.4h0.8q-0.1 0.4-0.3 0.6-0.3 0.3-0.6 0.5zm0-2.8q-0.1-0.3-0.3-0.4-0.2-0.2-0.5-0.2-0.4 0-0.6 0.2-0.2 0.2-0.3 0.4-0.1 0.3-0.1 0.5h1.9q0-0.3-0.1-0.5zm4 2.8q-0.4 0.1-0.9 0.1-0.4 0-0.7-0.1-0.4-0.2-0.6-0.4-0.3-0.3-0.3-0.7h0.7q0.1 0.2 0.2 0.3 0.1 0.2 0.3 0.3 0.2 0 0.4 0 0.4 0 0.6-0.1 0.3-0.1 0.3-0.4 0-0.2-0.2-0.3-0.1-0.2-0.3-0.2l-0.8-0.2q-0.5-0.1-0.8-0.4-0.3-0.2-0.3-0.7 0-0.3 0.2-0.6 0.2-0.2 0.5-0.4 0.3-0.1 0.8-0.1 0.7 0 1.1 0.3 0.4 0.2 0.4 0.8h-0.7q0-0.3-0.2-0.4-0.2-0.2-0.6-0.2-0.3 0-0.5 0.2-0.3 0.1-0.3 0.4 0 0.2 0.2 0.3 0.2 0.1 0.5 0.2l0.7 0.2q0.3 0 0.5 0.2 0.2 0.1 0.3 0.2 0.1 0.2 0.1 0.3 0.1 0.2 0.1 0.3 0 0.4-0.2 0.7-0.2 0.2-0.5 0.4zm2.1 0q-0.3-0.2-0.6-0.4-0.2-0.3-0.3-0.7h0.8q0 0.2 0.1 0.3 0.2 0.2 0.4 0.3 0.2 0 0.4 0 0.4 0 0.6-0.1 0.2-0.1 0.2-0.4 0-0.2-0.1-0.3-0.1-0.2-0.4-0.2l-0.8-0.2q-0.5-0.1-0.7-0.4-0.3-0.2-0.3-0.7 0-0.3 0.1-0.6 0.2-0.2 0.5-0.4 0.4-0.1 0.9-0.1 0.6 0 1 0.3 0.4 0.2 0.5 0.8h-0.7q-0.1-0.3-0.3-0.4-0.2-0.2-0.5-0.2-0.4 0-0.6 0.2-0.2 0.1-0.2 0.4 0 0.2 0.2 0.3 0.1 0.1 0.4 0.2l0.8 0.2q0.3 0 0.4 0.2 0.2 0.1 0.3 0.2 0.1 0.2 0.2 0.3 0 0.2 0 0.3 0 0.4-0.2 0.7-0.1 0.2-0.5 0.4-0.3 0.1-0.8 0.1-0.4 0-0.8-0.1zm5.6 0q-0.4 0.1-0.8 0.1-0.5 0-0.9-0.2-0.4-0.3-0.7-0.7-0.2-0.5-0.2-1.1 0-0.6 0.2-1.1 0.2-0.4 0.6-0.7 0.4-0.2 1-0.2 0.6 0 0.9 0.2 0.4 0.2 0.6 0.7 0.2 0.4 0.2 1v0.3h-2.7q0 0.3 0.1 0.6 0.1 0.3 0.4 0.4 0.2 0.2 0.5 0.2 0.4 0 0.6-0.2 0.3-0.1 0.4-0.4h0.7q-0.1 0.4-0.3 0.6-0.3 0.3-0.6 0.5zm0.1-2.8q-0.2-0.3-0.4-0.4-0.2-0.2-0.5-0.2-0.3 0-0.6 0.2-0.2 0.2-0.3 0.4-0.1 0.3-0.1 0.5h2q0-0.3-0.1-0.5zm3.6 2.8q-0.2 0.1-0.5 0.1-0.8 0-1.2-0.5-0.5-0.5-0.5-1.5 0-0.6 0.2-1.1 0.2-0.4 0.5-0.7 0.4-0.2 0.9-0.2 0.3 0 0.5 0 0.2 0.1 0.3 0.2 0.2 0.1 0.3 0.2 0.1 0.1 0.2 0.2v-2.3h0.8v5.6h-0.6l-0.1-0.8q-0.1 0.2-0.2 0.3 0 0.2-0.2 0.3-0.1 0.1-0.4 0.2zm0.4-0.8q0.3-0.4 0.3-1.2 0-0.4-0.2-0.7-0.1-0.3-0.3-0.5-0.2-0.1-0.6-0.1-0.4 0-0.7 0.3-0.3 0.3-0.3 1 0 0.7 0.3 1.1 0.2 0.4 0.7 0.4 0.6 0 0.8-0.3zm6 0.8q-0.4 0.1-0.8 0.1-0.4 0-0.8-0.1-0.4-0.2-0.6-0.4-0.2-0.3-0.3-0.7h0.7q0.1 0.2 0.2 0.3 0.1 0.2 0.3 0.3 0.2 0 0.5 0 0.3 0 0.5-0.1 0.3-0.1 0.3-0.4 0-0.2-0.1-0.3-0.2-0.2-0.4-0.2l-0.8-0.2q-0.5-0.1-0.8-0.4-0.3-0.2-0.3-0.7 0-0.3 0.2-0.6 0.2-0.2 0.5-0.4 0.4-0.1 0.9-0.1 0.6 0 1 0.3 0.4 0.2 0.4 0.8h-0.7q0-0.3-0.2-0.4-0.2-0.2-0.6-0.2-0.3 0-0.5 0.2-0.2 0.1-0.2 0.4 0 0.2 0.1 0.3 0.2 0.1 0.5 0.2l0.7 0.2q0.3 0 0.5 0.2 0.2 0.1 0.3 0.2 0.1 0.2 0.1 0.3 0.1 0.2 0.1 0.3 0 0.4-0.2 0.7-0.2 0.2-0.5 0.4zm2.4 0q-0.3-0.1-0.5-0.2-0.2-0.2-0.3-0.4-0.1-0.3-0.1-0.6v-2.7h0.8v2.6q0 0.4 0.2 0.6 0.2 0.2 0.7 0.2 0.4 0 0.6-0.2 0.2-0.2 0.2-0.6v-2.6h0.8v3.9h-0.6l-0.1-0.7q0 0.3-0.2 0.5-0.2 0.1-0.4 0.2-0.3 0.1-0.5 0.1-0.3 0-0.6-0.1zm5.8-0.1q-0.4 0.2-0.8 0.2-0.5 0-0.9-0.2-0.4-0.3-0.7-0.7-0.2-0.5-0.2-1.1 0-0.6 0.2-1.1 0.2-0.4 0.6-0.7 0.4-0.2 1-0.2 0.4 0 0.8 0.1 0.3 0.2 0.5 0.5 0.2 0.3 0.3 0.7h-0.7q0-0.2-0.2-0.3-0.1-0.2-0.3-0.3-0.1-0.1-0.4-0.1-0.5 0-0.8 0.3-0.2 0.4-0.2 1.1 0 0.6 0.2 1 0.3 0.4 0.8 0.4 0.3 0 0.5-0.1 0.1-0.1 0.3-0.3 0.1-0.1 0.1-0.3h0.7q-0.1 0.4-0.3 0.7-0.2 0.3-0.5 0.4zm2.3 0q-0.4-0.3-0.7-0.7-0.2-0.5-0.2-1.1 0-0.6 0.2-1.1 0.2-0.4 0.6-0.7 0.4-0.2 1-0.2 0.4 0 0.8 0.1 0.3 0.2 0.5 0.5 0.2 0.3 0.3 0.7h-0.7q0-0.2-0.2-0.3-0.1-0.2-0.3-0.3-0.1-0.1-0.4-0.1-0.5 0-0.8 0.3-0.2 0.4-0.2 1.1 0 0.6 0.2 1 0.3 0.4 0.8 0.4 0.3 0 0.5-0.1 0.1-0.1 0.3-0.3 0.1-0.1 0.1-0.3h0.7q-0.1 0.4-0.3 0.7-0.2 0.3-0.5 0.4-0.4 0.2-0.8 0.2-0.5 0-0.9-0.2zm5.7 0.1q-0.3 0.1-0.7 0.1-0.6 0-1-0.2-0.4-0.3-0.6-0.7-0.3-0.5-0.3-1.1 0-0.6 0.2-1.1 0.2-0.4 0.7-0.7 0.4-0.2 0.9-0.2 0.6 0 1 0.2 0.4 0.2 0.6 0.7 0.2 0.4 0.2 1v0.3h-2.8q0 0.3 0.1 0.6 0.2 0.3 0.4 0.4 0.2 0.2 0.6 0.2 0.3 0 0.6-0.2 0.2-0.1 0.3-0.4h0.7q0 0.4-0.3 0.6-0.2 0.3-0.6 0.5zm0.1-2.8q-0.1-0.3-0.3-0.4-0.3-0.2-0.6-0.2-0.3 0-0.5 0.2-0.3 0.2-0.4 0.4-0.1 0.3-0.1 0.5h2q0-0.3-0.1-0.5zm3.9 2.8q-0.3 0.1-0.8 0.1-0.4 0-0.8-0.1-0.3-0.2-0.6-0.4-0.2-0.3-0.3-0.7h0.8q0 0.2 0.2 0.3 0.1 0.2 0.3 0.3 0.2 0 0.4 0 0.4 0 0.6-0.1 0.2-0.1 0.2-0.4 0-0.2-0.1-0.3-0.1-0.2-0.4-0.2l-0.8-0.2q-0.4-0.1-0.7-0.4-0.3-0.2-0.3-0.7 0-0.3 0.1-0.6 0.2-0.2 0.6-0.4 0.3-0.1 0.8-0.1 0.7 0 1.1 0.3 0.3 0.2 0.4 0.8h-0.7q-0.1-0.3-0.3-0.4-0.2-0.2-0.5-0.2-0.4 0-0.6 0.2-0.2 0.1-0.2 0.4 0 0.2 0.2 0.3 0.1 0.1 0.4 0.2l0.8 0.2q0.3 0 0.5 0.2 0.1 0.1 0.2 0.2 0.1 0.2 0.2 0.3 0 0.2 0 0.3 0 0.4-0.2 0.7-0.1 0.2-0.5 0.4zm2.2 0q-0.4-0.2-0.6-0.4-0.2-0.3-0.3-0.7h0.7q0.1 0.2 0.2 0.3 0.1 0.2 0.3 0.3 0.2 0 0.4 0 0.4 0 0.6-0.1 0.3-0.1 0.3-0.4 0-0.2-0.2-0.3-0.1-0.2-0.3-0.2l-0.8-0.2q-0.5-0.1-0.8-0.4-0.3-0.2-0.3-0.7 0-0.3 0.2-0.6 0.2-0.2 0.5-0.4 0.3-0.1 0.8-0.1 0.7 0 1.1 0.3 0.4 0.2 0.4 0.8h-0.7q0-0.3-0.2-0.4-0.2-0.2-0.6-0.2-0.3 0-0.5 0.2-0.3 0.1-0.3 0.4 0 0.2 0.2 0.3 0.2 0.1 0.5 0.2l0.7 0.2q0.3 0 0.5 0.2 0.2 0.1 0.3 0.2 0.1 0.2 0.1 0.3 0.1 0.2 0.1 0.3 0 0.4-0.2 0.7-0.2 0.2-0.5 0.4-0.4 0.1-0.8 0.1-0.5 0-0.8-0.1zm4.5-3.3v3.3h-0.8v-3.3h-0.8v-0.6h0.8v-0.6q0-0.4 0.2-0.7 0.3-0.2 0.7-0.2h0.8v0.5h-0.5q-0.3 0-0.4 0.2 0 0.1 0 0.3v0.5h0.9v0.6zm2.5 3.3q-0.3-0.1-0.5-0.2-0.2-0.2-0.3-0.4-0.1-0.3-0.1-0.6v-2.7h0.8v2.6q0 0.4 0.2 0.6 0.2 0.2 0.7 0.2 0.3 0 0.6-0.2 0.2-0.2 0.2-0.6v-2.6h0.8v3.9h-0.6l-0.1-0.7q0 0.3-0.2 0.5-0.2 0.1-0.4 0.2-0.3 0.1-0.5 0.1-0.3 0-0.6-0.1zm4.7 0.1q-0.1 0-0.2 0-0.3 0-0.6-0.1-0.2-0.1-0.3-0.3-0.1-0.1-0.1-0.3-0.1-0.2-0.1-0.4v-4.6h0.8v4.5q0 0.3 0.1 0.4 0.2 0.2 0.4 0.2h0.2v0.5q-0.1 0-0.2 0.1zm1.4-0.1q-0.2-0.1-0.4-0.3-0.1-0.1-0.1-0.3 0-0.2 0-0.4v-4.6h0.8v4.5q0 0.3 0.1 0.4 0.1 0.2 0.3 0.2h0.2v0.5q-0.1 0-0.2 0.1-0.1 0-0.2 0-0.3 0-0.5-0.1zm2.5 1.2q-0.2 0.1-0.5 0.1-0.4 0-0.5-0.1h-0.1v-0.6l0.3 0.1q0.3 0 0.4-0.1 0.2 0 0.2-0.1 0.1 0 0.2-0.1 0-0.1 0-0.2l0.2-0.3-1.6-3.8h0.9l1 2.9 1.1-2.9h0.8l-1.6 4.1q-0.2 0.5-0.4 0.7-0.2 0.2-0.4 0.3z"/>
	<path id="Layer" class="s7" d="m251.1 135.7c-8.9 0-16.1-7.2-16.1-16.2 0-9 7.2-16.3 16.1-16.3 9 0 16.2 7.3 16.2 16.3 0 9-7.2 16.2-16.2 16.2z"/>
	<path id="Layer" fill-rule="evenodd" class="s8" d="m245.9 120.5l2.7 2.6 7.6-7.7"/>
	<path id="Layer" class="s9" d="m214.1 193.1c0-4.8 3.9-8.7 8.7-8.7h58.4c4.8 0 8.7 3.9 8.7 8.7 0 4.8-3.9 8.7-8.7 8.7h-58.4c-4.8 0-8.7-3.9-8.7-8.7z"/>
	<path id="Layer" fill-rule="evenodd" class="s6" d="m243.8 195.2q-0.5 0.3-1.4 0.3h-1.3v-4.7h0.6q0.2 0 0.4 0 0.2 0.1 0.4 0.1 0.8 0 1.3 0.3 0.6 0.2 0.8 0.7 0.2 0.5 0.2 1.2 0 0.7-0.2 1.3-0.3 0.5-0.8 0.8zm-1.8-0.5h0.4q0.4 0 0.8-0.1 0.3-0.2 0.5-0.5 0.2-0.4 0.2-1 0-0.5-0.2-0.8-0.2-0.4-0.5-0.5-0.3-0.2-0.7-0.2h-0.5zm3.5-3v-0.9h0.9v0.9zm0.9 0.5v3.3h-0.9v-3.3zm1.5 3.2q-0.3-0.1-0.6-0.4-0.2-0.2-0.2-0.6h0.8q0 0.2 0.1 0.3 0.1 0.1 0.3 0.1 0.1 0.1 0.2 0.1 0.3 0 0.5-0.1 0.1-0.1 0.1-0.3 0-0.1-0.1-0.2-0.1-0.1-0.3-0.1l-0.6-0.1q-0.4-0.1-0.7-0.3-0.2-0.3-0.2-0.7 0-0.3 0.1-0.5 0.2-0.2 0.5-0.4 0.3-0.1 0.7-0.1 0.7 0 1 0.3 0.4 0.2 0.4 0.7h-0.8q0-0.2-0.2-0.3-0.1-0.1-0.4-0.1-0.2 0-0.4 0.1-0.1 0.1-0.1 0.3 0 0.1 0.1 0.2 0.1 0 0.4 0.1l0.5 0.1q0.3 0.1 0.5 0.2 0.2 0.1 0.3 0.3 0.1 0.1 0.1 0.2 0 0.2 0 0.3 0 0.3-0.2 0.5-0.1 0.3-0.4 0.4-0.3 0.1-0.8 0.1-0.3 0-0.6-0.1zm3.6-2.1v2.2h-1v-3.3h0.9v0.4q0.2-0.2 0.4-0.4 0.3-0.1 0.7-0.1 0.1 0 0.3 0.1 0.2 0 0.3 0.1 0.2 0.1 0.3 0.3 0.2-0.2 0.4-0.4 0.3-0.1 0.6-0.1 0.2 0 0.4 0.1 0.2 0 0.3 0.1 0.2 0.2 0.3 0.4 0.1 0.2 0.1 0.6v2.2h-1v-2.1q0-0.2 0-0.3-0.1-0.1-0.2-0.2-0.2-0.1-0.3-0.1-0.1 0-0.2 0.1-0.2 0-0.3 0.2 0 0.1 0 0.2v2.2h-1v-2.2q0-0.1-0.1-0.2 0-0.1-0.2-0.2-0.1-0.1-0.2-0.1-0.1 0-0.2 0.1-0.2 0.1-0.3 0.2 0 0.1 0 0.2zm4.7-1.6v-0.9h0.9v0.9zm0.9 0.5v3.3h-0.9v-3.3zm1.5 3.2q-0.4-0.1-0.6-0.4-0.2-0.2-0.3-0.6h0.8q0.1 0.2 0.2 0.3 0.1 0.1 0.2 0.1 0.2 0.1 0.3 0.1 0.3 0 0.4-0.1 0.2-0.1 0.2-0.3 0-0.1-0.1-0.2-0.1-0.1-0.3-0.1l-0.6-0.1q-0.4-0.1-0.7-0.3-0.3-0.3-0.3-0.7 0-0.3 0.2-0.5 0.2-0.2 0.5-0.4 0.3-0.1 0.7-0.1 0.6 0 1 0.3 0.4 0.2 0.4 0.7h-0.8q-0.1-0.2-0.2-0.3-0.2-0.1-0.4-0.1-0.2 0-0.4 0.1-0.1 0.1-0.1 0.3 0 0.1 0.1 0.2 0.1 0 0.4 0.1l0.5 0.1q0.3 0.1 0.5 0.2 0.1 0.1 0.2 0.3 0.1 0.1 0.2 0.2 0 0.2 0 0.3 0 0.3-0.2 0.5-0.2 0.3-0.5 0.4-0.3 0.1-0.7 0.1-0.3 0-0.6-0.1zm4.6 0q-0.3 0.1-0.7 0.1-0.4 0-0.7-0.1-0.3-0.1-0.5-0.4-0.3-0.2-0.3-0.6h0.8q0 0.2 0.1 0.3 0.1 0.1 0.3 0.1 0.1 0.1 0.2 0.1 0.3 0 0.5-0.1 0.1-0.1 0.1-0.3 0-0.1-0.1-0.2-0.1-0.1-0.3-0.1l-0.6-0.1q-0.4-0.1-0.7-0.3-0.2-0.3-0.2-0.7 0-0.3 0.1-0.5 0.2-0.2 0.5-0.4 0.3-0.1 0.8-0.1 0.6 0 0.9 0.3 0.4 0.2 0.4 0.7h-0.8q0-0.2-0.2-0.3-0.1-0.1-0.4-0.1-0.2 0-0.4 0.1-0.1 0.1-0.1 0.3 0 0.1 0.1 0.2 0.1 0 0.4 0.1l0.5 0.1q0.3 0.1 0.5 0.2 0.2 0.1 0.3 0.3 0.1 0.1 0.1 0.2 0 0.2 0 0.3 0 0.3-0.1 0.5-0.2 0.3-0.5 0.4z"/>
	<g id="Layer">
		<path id="Layer" fill-rule="evenodd" class="s0" d="m20.7 0.3h110.5c10.6 0 19.2 8.3 19.2 18.5v252.4c0 10.2-8.6 18.5-19.2 18.5h-110.5c-10.6 0-19.2-8.3-19.2-18.5v-252.4c0-10.2 8.6-18.5 19.2-18.5z"/>
	</g>
	<path id="Layer" fill-rule="evenodd" class="s10" d="m131.6 0h-111.4q-7.8 0.5-14.4 7.1c2.8-2.4 7.9-5.7 14.5-5.7 0 0 106.8 0 111.2 0 6.7 0 11.7 3.3 14.5 5.7q-6.6-6.6-14.4-7.1z"/>
	<path id="Layer" fill-rule="evenodd" class="s11" d="m147.4 268.4v-248.1c0-6.7-2.5-9.1-3.9-10.7-1.5-1.6-1.5-2.4 0.6-1.2 2 1.2 6.2 4.7 6.2 11.9v248.1c0 7.2-4.2 10.6-6.2 11.8-2.1 1.2-2.1 0.4-0.6-1.2 1.4-1.5 3.9-4 3.9-10.6z"/>
	<path id="Layer" fill-rule="evenodd" class="s12" d="m4.4 268.4v-248.1c0-6.7 2.5-9.1 3.9-10.7 1.5-1.6 1.5-2.4-0.5-1.2-2.1 1.2-6.3 4.7-6.3 11.9v248.1c0 7.2 4.2 10.6 6.3 11.8 2 1.2 2 0.4 0.5-1.2-1.4-1.5-3.9-4-3.9-10.6z"/>
	<path id="Layer" fill-rule="evenodd" class="s4" d="m0 60.3c0-0.8 0.6-1.4 1.4-1.4 0.8 0 1.5 0.6 1.5 1.4v34.5c0 0.8-0.7 1.4-1.5 1.4-0.8 0-1.4-0.6-1.4-1.4z"/>
	<path id="Layer" fill-rule="evenodd" class="s4" d="m148.8 90.8c0-0.8 0.7-1.5 1.5-1.5 0.8 0 1.4 0.7 1.4 1.5v24.3c0 0.8-0.6 1.5-1.4 1.5-0.8 0-1.5-0.7-1.5-1.5z"/>
	<path id="Layer" fill-rule="evenodd" class="s13" d="m62.8 7.2h-43c-6.4 0-11.1 4.4-11.1 10.1v245c0 7.5 7.2 14.1 15.4 14.1h103.7c7.8 0 15.3-6.7 15.3-14.1v-244.3c0-6.9-5-10.7-11-10.8h-43.7c-0.2 0-3.2 1.3-4.5 4.4-1.2 3.1-3.8 5.6-6.6 5.6h-3.2c-1.4 0-4.8-1.3-6.6-5.6-1.8-4.3-4.5-4.4-4.7-4.4z"/>
	<g id="Clip-Path" clip-path="url(#cp2)">
		<g id="Layer">
			<g id="Layer">
				<path id="Layer" class="s6" d="m17.3 102.3c0-1.1 0.9-2 2-2h113.9c1.1 0 2 0.9 2 2v19.2c0 1.1-0.9 2-2 2h-113.9c-1.1 0-2-0.9-2-2z"/>
			</g>
			<path id="Layer" fill-rule="evenodd" class="s14" d="m46.3 113.8q-0.5 0.5-1.2 0.5-0.7 0-1.1-0.5-0.4-0.6-0.4-1.6 0-0.7 0.2-1.2 0.2-0.5 0.5-0.7 0.4-0.3 0.8-0.3 0.7 0 1.2 0.6 0.4 0.5 0.4 1.6 0 1-0.4 1.6zm-4-0.9l-0.2 1.4-0.3-0.1 0.1-1.3h-0.8l-0.2 1.4-0.3-0.1 0.2-1.3h-0.7v-0.3h0.7l0.1-0.9h-0.6v-0.3h0.7l0.2-1.3h0.3l-0.2 1.3h0.9l0.2-1.3h0.3l-0.2 1.3h0.7v0.3h-0.7l-0.1 0.9h0.6v0.3zm-14.6-2.8v4.2h-0.6v-4.2zm2.3 4.2q-0.1 0-0.3 0-0.3 0-0.5-0.1-0.2-0.1-0.2-0.3-0.1-0.1-0.1-0.4v-1.8h-0.5v-0.4h0.5l0.2-0.9h0.4v0.9h0.7v0.4h-0.7v1.8q0 0.1 0 0.2 0.1 0.1 0.1 0.1 0.1 0 0.2 0h0.4v0.4q-0.1 0-0.2 0.1zm1.3-0.2q-0.3-0.2-0.5-0.5-0.2-0.3-0.2-0.8 0-0.5 0.2-0.8 0.2-0.4 0.5-0.6 0.3-0.2 0.7-0.2 0.4 0 0.7 0.2 0.3 0.2 0.5 0.5 0.1 0.3 0.1 0.8v0.2h-2.1q0 0.3 0.1 0.5 0.1 0.2 0.3 0.3 0.2 0.1 0.4 0.1 0.3 0 0.5-0.1 0.2-0.1 0.3-0.3h0.5q0 0.3-0.2 0.5-0.2 0.2-0.5 0.3-0.2 0.1-0.5 0.1-0.5 0-0.8-0.2zm-0.1-1.6h1.6q0-0.2-0.1-0.4-0.1-0.2-0.3-0.3-0.1-0.1-0.4-0.1-0.2 0-0.4 0.1-0.2 0.1-0.3 0.3-0.1 0.2-0.1 0.4zm2.8 1.8v-3h0.6v0.4q0.1-0.2 0.3-0.4 0.3-0.1 0.6-0.1 0.2 0 0.3 0.1 0.2 0 0.3 0.1 0.2 0.1 0.3 0.3 0.1-0.2 0.3-0.4 0.3-0.1 0.6-0.1 0.1 0 0.3 0.1 0.2 0 0.3 0.1 0.2 0.1 0.3 0.4 0 0.2 0 0.5v2h-0.6v-1.9q0-0.3-0.1-0.4 0-0.2-0.2-0.2-0.1-0.1-0.2-0.1-0.2 0-0.3 0.1-0.2 0-0.3 0.1-0.1 0.2-0.1 0.4v2h-0.6v-2.1q0-0.1-0.1-0.3-0.1-0.1-0.2-0.1-0.1-0.1-0.3-0.1-0.1 0-0.3 0.1-0.1 0-0.2 0.2-0.1 0.1-0.1 0.3v2zm8.1-2.6h-0.8l-0.2 0.9h0.9zm3.6 1.7q0.2-0.4 0.2-1.3 0-0.9-0.2-1.3-0.2-0.3-0.6-0.3-0.4 0-0.7 0.3-0.2 0.4-0.2 1.3 0 0.9 0.2 1.2 0.3 0.4 0.7 0.4 0.4 0 0.6-0.3zm4 0.3q-0.4 0.6-1.1 0.6-0.7 0-1.1-0.6-0.4-0.5-0.4-1.6 0-0.7 0.2-1.2 0.1-0.5 0.5-0.7 0.3-0.3 0.8-0.3 0.7 0 1.1 0.6 0.4 0.5 0.4 1.6 0 1.1-0.4 1.6zm-0.5-0.3q0.3-0.4 0.3-1.3 0-0.9-0.3-1.3-0.2-0.3-0.6-0.3-0.4 0-0.6 0.3-0.3 0.4-0.3 1.3 0 0.9 0.3 1.2 0.2 0.4 0.6 0.4 0.4 0 0.6-0.3zm2.8-3.4v4.2h-0.6v-3.3h-0.8v-0.4q0.4 0 0.6 0 0.2-0.1 0.3-0.2 0.1-0.1 0.1-0.3z"/>
			<path id="Layer" fill-rule="evenodd" class="s5" d="m114.4 114.3v0.7h-0.9v-0.7q-0.7-0.1-1.1-0.4-0.6-0.4-0.7-1.2h1.1q0.1 0.4 0.4 0.6 0.3 0.2 0.8 0.2 0.3 0 0.5-0.1 0.2-0.1 0.3-0.3 0.1-0.1 0.1-0.3 0-0.3-0.2-0.5-0.2-0.1-0.6-0.2l-0.9-0.2q-0.6-0.1-1-0.5-0.3-0.4-0.3-1 0-0.5 0.2-0.9 0.3-0.4 0.8-0.6h0.1q0.3-0.1 0.5-0.1v-0.8h1v0.8h0.1q0.2 0.1 0.5 0.2 0.4 0.2 0.6 0.6 0.3 0.3 0.3 0.8h-1.1q-0.1-0.4-0.3-0.6-0.2-0.2-0.6-0.2-0.2 0-0.4 0.1-0.2 0-0.3 0.1-0.1 0.1-0.2 0.2-0.1 0.1-0.1 0.3 0 0.2 0.2 0.4 0.2 0.1 0.6 0.2l0.9 0.2q0.7 0.2 1 0.6 0.4 0.5 0.4 1.1 0 0.5-0.3 0.8-0.2 0.4-0.7 0.5l-0.1 0.1q-0.3 0.1-0.5 0.1zm6.4-1v1h-4v-0.9q0-0.4 0.1-0.7 0.2-0.3 0.4-0.5 0.3-0.2 0.6-0.4 0.3-0.2 0.6-0.3 0.3-0.2 0.5-0.3 0.3-0.2 0.5-0.4 0.1-0.2 0.1-0.4 0-0.3-0.2-0.6-0.2-0.2-0.6-0.2-0.4 0-0.7 0.3-0.3 0.2-0.4 0.7h-1q0-0.5 0.2-1 0.2-0.4 0.7-0.6 0.5-0.3 1.2-0.3 0.6 0 1 0.2 0.5 0.2 0.7 0.6 0.3 0.4 0.3 0.9 0 0.4-0.2 0.7-0.1 0.3-0.4 0.5-0.2 0.2-0.5 0.4-0.3 0.1-0.6 0.3-0.3 0.1-0.6 0.2-0.2 0.2-0.4 0.4-0.1 0.1-0.1 0.4zm1.7 0.8q-0.5-0.2-0.8-0.5-0.2-0.4-0.3-0.8h1.1q0 0.3 0.3 0.5 0.2 0.2 0.6 0.2 0.4 0 0.7-0.2 0.2-0.2 0.4-0.6 0.1-0.4 0.1-1.1-0.1 0.2-0.3 0.4-0.2 0.1-0.4 0.2-0.3 0.1-0.6 0.1-0.5 0-1-0.2-0.4-0.2-0.6-0.6-0.3-0.4-0.3-0.9 0-0.6 0.3-1 0.2-0.4 0.7-0.6 0.5-0.3 1.1-0.3 0.7 0 1.2 0.4 0.5 0.3 0.7 0.9 0.3 0.6 0.3 1.4 0 1-0.3 1.6-0.2 0.7-0.8 1-0.5 0.3-1.2 0.3-0.5 0-0.9-0.2zm0.4-2.9q0.2 0.2 0.6 0.2 0.2 0 0.5-0.1 0.2-0.1 0.3-0.2 0.1-0.2 0.1-0.4 0.1-0.3-0.1-0.6-0.1-0.3-0.3-0.4-0.2-0.1-0.5-0.1-0.3 0-0.5 0.1-0.2 0.1-0.3 0.3-0.1 0.2-0.1 0.5 0 0.5 0.3 0.7z"/>
			<g id="Layer">
				<path id="Layer" class="s6" d="m17.3 130.2c0-1.1 0.9-2 2-2h113.9c1.1 0 2 0.9 2 2v19.2c0 1.1-0.9 2-2 2h-113.9c-1.1 0-2-0.9-2-2z"/>
			</g>
			<path id="Layer" fill-rule="evenodd" class="s14" d="m46.3 141.6q-0.5 0.6-1.2 0.6-0.7 0-1.1-0.6-0.4-0.5-0.4-1.6 0-0.7 0.2-1.2 0.2-0.5 0.5-0.7 0.4-0.3 0.8-0.3 0.7 0 1.2 0.6 0.4 0.5 0.4 1.6 0 1.1-0.4 1.6zm-4-0.8l-0.2 1.3h-0.3l0.1-1.3h-0.8l-0.2 1.3h-0.3l0.2-1.3h-0.7v-0.4h0.7l0.1-0.8h-0.6v-0.4h0.7l0.2-1.3h0.3l-0.2 1.3h0.9l0.2-1.3h0.3l-0.2 1.3h0.7v0.4h-0.7l-0.1 0.8h0.6v0.4zm-14.6-2.9v4.2h-0.6v-4.2zm2.3 4.2q-0.1 0-0.3 0-0.3 0-0.5-0.1-0.2-0.1-0.2-0.2-0.1-0.2-0.1-0.4v-1.9h-0.5v-0.4h0.5l0.2-0.9h0.4v0.9h0.7v0.4h-0.7v1.8q0 0.2 0 0.3 0.1 0 0.1 0 0.1 0.1 0.2 0.1h0.4v0.4q-0.1 0-0.2 0zm1.3-0.1q-0.3-0.2-0.5-0.6-0.2-0.3-0.2-0.8 0-0.4 0.2-0.8 0.2-0.4 0.5-0.6 0.3-0.2 0.7-0.2 0.4 0 0.7 0.2 0.3 0.2 0.5 0.6 0.1 0.3 0.1 0.7v0.2h-2.1q0 0.3 0.1 0.5 0.1 0.2 0.3 0.4 0.2 0.1 0.4 0.1 0.3 0 0.5-0.1 0.2-0.2 0.3-0.4h0.5q0 0.3-0.2 0.5-0.2 0.2-0.5 0.3-0.2 0.2-0.5 0.2-0.5 0-0.8-0.2zm-0.1-1.7h1.6q0-0.2-0.1-0.4-0.1-0.2-0.3-0.3-0.1-0.1-0.4-0.1-0.2 0-0.4 0.1-0.2 0.1-0.3 0.3-0.1 0.2-0.1 0.4zm2.8 1.8v-3h0.6v0.4q0.1-0.2 0.3-0.3 0.3-0.2 0.6-0.2 0.2 0 0.3 0.1 0.2 0.1 0.3 0.2 0.2 0.1 0.3 0.2 0.1-0.2 0.3-0.3 0.3-0.2 0.6-0.2 0.1 0 0.3 0.1 0.2 0 0.3 0.2 0.2 0.1 0.3 0.3 0 0.2 0 0.5v2h-0.6v-1.9q0-0.2-0.1-0.4 0-0.1-0.2-0.2-0.1 0-0.2 0-0.2 0-0.3 0-0.2 0.1-0.3 0.2-0.1 0.1-0.1 0.3v2h-0.6v-2q0-0.2-0.1-0.3-0.1-0.1-0.2-0.2-0.1 0-0.3 0-0.1 0-0.3 0-0.1 0.1-0.2 0.2-0.1 0.1-0.1 0.3v2zm8.1-2.5h-0.8l-0.2 0.8h0.9zm3.6 1.7q0.2-0.4 0.2-1.3 0-0.8-0.2-1.2-0.2-0.4-0.6-0.4-0.4 0-0.7 0.4-0.2 0.4-0.2 1.2 0 0.9 0.2 1.3 0.3 0.4 0.7 0.4 0.4 0 0.6-0.4zm4 0.3q-0.4 0.6-1.1 0.6-0.7 0-1.1-0.5-0.4-0.6-0.4-1.6 0-0.8 0.2-1.2 0.1-0.5 0.5-0.8 0.3-0.2 0.8-0.2 0.7 0 1.1 0.5 0.4 0.6 0.4 1.6 0 1.1-0.4 1.6zm-0.5-0.3q0.3-0.4 0.3-1.3 0-0.8-0.3-1.2-0.2-0.4-0.6-0.4-0.4 0-0.6 0.4-0.3 0.4-0.3 1.2 0 0.9 0.3 1.3 0.2 0.4 0.6 0.4 0.4 0 0.6-0.4zm4.4 0.3v0.5h-2.9v-0.5q0-0.3 0.1-0.6 0.1-0.2 0.3-0.4 0.2-0.1 0.5-0.3 0.2-0.1 0.4-0.2 0.3-0.2 0.5-0.3 0.2-0.1 0.3-0.3 0.1-0.2 0.1-0.4 0-0.3-0.2-0.5-0.2-0.2-0.6-0.2-0.4 0-0.6 0.2-0.2 0.3-0.3 0.6h-0.6q0-0.3 0.2-0.6 0.2-0.4 0.5-0.5 0.3-0.2 0.8-0.2 0.5 0 0.8 0.1 0.3 0.2 0.5 0.5 0.2 0.2 0.2 0.6 0 0.3-0.2 0.5-0.1 0.3-0.3 0.4-0.2 0.2-0.4 0.3-0.2 0.2-0.5 0.3-0.2 0.1-0.4 0.2-0.2 0.2-0.3 0.3-0.1 0.2-0.1 0.4v0.1z"/>
			<path id="Layer" fill-rule="evenodd" class="s5" d="m110.1 142.8v-0.7q-0.6 0-1-0.3-0.7-0.4-0.7-1.2l1.1-0.1q0.1 0.4 0.4 0.6 0.3 0.2 0.7 0.2 0.3 0 0.5-0.1 0.2-0.1 0.3-0.2 0.2-0.2 0.2-0.4 0-0.3-0.2-0.4-0.2-0.2-0.6-0.3l-0.9-0.2q-0.6-0.1-1-0.5-0.4-0.3-0.4-0.9 0-0.6 0.3-0.9 0.3-0.4 0.8-0.6l0.1-0.1q0.2 0 0.4-0.1h0.1v-0.7h0.9v0.7h0.1q0.3 0.1 0.5 0.2 0.5 0.2 0.7 0.6 0.2 0.4 0.2 0.8h-1.1q0-0.3-0.2-0.5-0.2-0.2-0.6-0.2-0.3 0-0.4 0-0.2 0.1-0.4 0.1-0.1 0.1-0.1 0.3-0.1 0.1-0.1 0.2 0 0.3 0.1 0.4 0.2 0.1 0.7 0.3l0.8 0.2q0.8 0.1 1.1 0.6 0.3 0.4 0.3 1 0 0.5-0.2 0.8-0.3 0.4-0.8 0.6h-0.1q-0.2 0.1-0.4 0.1h-0.1v0.7zm4.2-0.7v-4.1h-1v-0.6q0.5 0 0.8-0.1 0.2-0.1 0.4-0.3 0.1-0.1 0.2-0.4h0.7v5.5zm5.8-0.6q-0.5 0.7-1.5 0.7-1 0-1.6-0.7-0.5-0.8-0.5-2.1 0-0.9 0.2-1.5 0.3-0.7 0.8-1 0.4-0.3 1.1-0.3 0.9 0 1.5 0.7 0.6 0.7 0.6 2.1 0 1.3-0.6 2.1zm-0.8-0.7q0.2-0.4 0.2-1.4 0-1.1-0.2-1.5-0.2-0.5-0.7-0.5-0.5 0-0.7 0.5-0.3 0.5-0.3 1.5 0 1 0.3 1.4 0.2 0.5 0.7 0.5 0.5 0 0.7-0.5zm5.4 1.2q-0.5 0.2-1.1 0.2-0.6 0-1-0.2-0.5-0.1-0.8-0.4-0.4-0.3-0.5-0.7l0.8-0.5q0.2 0.2 0.4 0.5 0.1 0.2 0.4 0.3 0.2 0.1 0.5 0.1 0.5 0 0.8-0.3 0.3-0.2 0.3-0.6 0-0.3-0.1-0.5-0.1-0.2-0.4-0.3-0.2-0.2-0.5-0.2-0.2 0-0.3 0.1-0.2 0-0.3 0.1-0.2 0-0.4 0.2 0 0 0 0-0.1 0-0.1 0l-0.8-0.4 0.2-2.8h3.5v0.9h-2.6l-0.1 1.4q0.3-0.2 0.6-0.3 0.2-0.1 0.6-0.1 0.5 0 0.9 0.2 0.5 0.3 0.7 0.7 0.3 0.3 0.3 0.9 0 0.6-0.3 1-0.2 0.4-0.7 0.7z"/>
			<g id="Layer">
				<path id="Layer" class="s6" d="m17.3 158c0-1.1 0.9-2 2-2h113.9c1.1 0 2 0.9 2 2v19.2c0 1.1-0.9 2-2 2h-113.9c-1.1 0-2-0.9-2-2z"/>
			</g>
			<path id="Layer" fill-rule="evenodd" class="s14" d="m46.3 169.5q-0.5 0.5-1.2 0.5-0.7 0-1.1-0.5-0.4-0.6-0.4-1.6 0-0.8 0.2-1.2 0.2-0.5 0.5-0.8 0.4-0.2 0.8-0.2 0.7 0 1.2 0.5 0.4 0.6 0.4 1.7 0 1-0.4 1.6zm-4-0.9l-0.2 1.4-0.3-0.1 0.1-1.3h-0.8l-0.2 1.4-0.3-0.1 0.2-1.3h-0.7v-0.4h0.7l0.1-0.8h-0.6v-0.4h0.7l0.2-1.3 0.3 0.1-0.2 1.2h0.9l0.2-1.3 0.3 0.1-0.2 1.2h0.7v0.4h-0.7l-0.1 0.8h0.6v0.4zm-14.6-2.9v4.2h-0.6v-4.2zm2.3 4.2q-0.1 0.1-0.3 0.1-0.3 0-0.5-0.1-0.2-0.1-0.2-0.3-0.1-0.2-0.1-0.4v-1.8h-0.5v-0.5h0.5l0.2-0.8h0.4v0.8h0.7v0.5h-0.7v1.8q0 0.1 0 0.2 0.1 0.1 0.1 0.1 0.1 0 0.2 0h0.4v0.4q-0.1 0-0.2 0zm1.3-0.1q-0.3-0.2-0.5-0.5-0.2-0.4-0.2-0.8 0-0.5 0.2-0.9 0.2-0.3 0.5-0.5 0.3-0.2 0.7-0.2 0.4 0 0.7 0.2 0.3 0.2 0.5 0.5 0.1 0.3 0.1 0.8v0.2h-2.1q0 0.3 0.1 0.5 0.1 0.2 0.3 0.3 0.2 0.1 0.4 0.1 0.3 0 0.5-0.1 0.2-0.1 0.3-0.4h0.5q0 0.4-0.2 0.6-0.2 0.2-0.5 0.3-0.2 0.1-0.5 0.1-0.5 0-0.8-0.2zm-0.1-1.6h1.6q0-0.3-0.1-0.4-0.1-0.2-0.3-0.4-0.1-0.1-0.4-0.1-0.2 0-0.4 0.2-0.2 0.1-0.3 0.3-0.1 0.2-0.1 0.4zm2.8 1.7v-3h0.6v0.5q0.1-0.2 0.3-0.4 0.3-0.1 0.6-0.1 0.2 0 0.3 0 0.2 0.1 0.3 0.2 0.2 0.1 0.3 0.3 0.1-0.2 0.3-0.4 0.3-0.1 0.6-0.1 0.1 0 0.3 0 0.2 0.1 0.3 0.2 0.2 0.1 0.3 0.3 0 0.2 0 0.6v1.9h-0.6v-1.9q0-0.2-0.1-0.3 0-0.2-0.2-0.2-0.1-0.1-0.2-0.1-0.2 0-0.3 0.1-0.2 0-0.3 0.1-0.1 0.2-0.1 0.4v1.9h-0.6v-2q0-0.2-0.1-0.3-0.1-0.1-0.2-0.1-0.1-0.1-0.3-0.1-0.1 0-0.3 0.1-0.1 0-0.2 0.1-0.1 0.2-0.1 0.4v1.9zm8.1-2.5h-0.8l-0.2 0.8h0.9zm3.6 1.7q0.2-0.3 0.2-1.2 0-0.9-0.2-1.3-0.2-0.4-0.6-0.4-0.4 0-0.7 0.4-0.2 0.4-0.2 1.3 0 0.8 0.2 1.2 0.3 0.4 0.7 0.4 0.4 0 0.6-0.4zm4 0.4q-0.4 0.5-1.1 0.5-0.7 0-1.1-0.5-0.4-0.6-0.4-1.6 0-0.7 0.2-1.2 0.1-0.5 0.5-0.7 0.3-0.3 0.8-0.3 0.7 0 1.1 0.6 0.4 0.5 0.4 1.6 0 1-0.4 1.6zm-0.5-0.4q0.3-0.3 0.3-1.2 0-0.9-0.3-1.3-0.2-0.4-0.6-0.4-0.4 0-0.6 0.4-0.3 0.4-0.3 1.3 0 0.8 0.3 1.2 0.2 0.4 0.6 0.4 0.4 0 0.6-0.4zm3.5 0.9q-0.3 0-0.6 0-0.5 0-0.8-0.1-0.3-0.2-0.5-0.5-0.2-0.3-0.2-0.7h0.6q0.1 0.4 0.3 0.6 0.2 0.2 0.6 0.2 0.3 0 0.5-0.1 0.2-0.1 0.4-0.2 0.1-0.2 0.1-0.4 0-0.2-0.2-0.4-0.1-0.2-0.3-0.2-0.2-0.1-0.5-0.1h-0.4v-0.6h0.4q0.2 0 0.4-0.1 0.2-0.1 0.4-0.2 0.1-0.2 0.1-0.4 0-0.1-0.1-0.3-0.1-0.1-0.3-0.2-0.2-0.1-0.5-0.1-0.2 0-0.4 0.1-0.2 0.1-0.3 0.3-0.2 0.1-0.2 0.4h-0.6q0-0.4 0.2-0.7 0.2-0.3 0.6-0.4 0.3-0.2 0.7-0.2 0.5 0 0.8 0.1 0.3 0.2 0.5 0.4 0.2 0.3 0.2 0.6 0 0.3-0.2 0.6-0.2 0.2-0.6 0.4 0.3 0 0.5 0.2 0.2 0.1 0.3 0.3 0.1 0.2 0.1 0.5 0 0.3-0.1 0.5-0.1 0.3-0.3 0.4-0.3 0.2-0.6 0.3z"/>
			<path id="Layer" fill-rule="evenodd" class="s5" d="m110.2 170.7v-0.7q-0.7-0.1-1.1-0.4-0.6-0.4-0.7-1.2h1.1q0.1 0.4 0.4 0.5 0.3 0.2 0.8 0.2 0.2 0 0.4 0 0.3-0.1 0.4-0.3 0.1-0.1 0.1-0.3 0-0.3-0.2-0.5-0.2-0.1-0.6-0.2l-0.9-0.2q-0.6-0.1-1-0.5-0.3-0.4-0.4-1 0-0.5 0.3-0.9 0.3-0.4 0.8-0.6h0.1q0.2-0.1 0.5-0.1v-0.8h0.9v0.8h0.1q0.3 0 0.5 0.1 0.5 0.3 0.7 0.6 0.3 0.4 0.3 0.9h-1.1q-0.1-0.4-0.3-0.6-0.2-0.2-0.6-0.2-0.2 0-0.4 0-0.2 0.1-0.3 0.2-0.1 0.1-0.2 0.2-0.1 0.1-0.1 0.3 0 0.2 0.2 0.3 0.1 0.2 0.6 0.3l0.9 0.2q0.7 0.2 1 0.6 0.4 0.4 0.4 1.1 0 0.4-0.3 0.8-0.3 0.3-0.7 0.5l-0.2 0.1q-0.2 0-0.4 0.1h-0.1v0.7zm4.3-0.9q-0.5-0.2-0.8-0.5-0.3-0.4-0.3-0.9 0-0.3 0.2-0.6 0.2-0.2 0.4-0.4 0.2-0.2 0.5-0.3-0.4-0.1-0.6-0.4-0.2-0.3-0.2-0.8 0-0.4 0.2-0.8 0.3-0.3 0.7-0.5 0.5-0.2 1-0.2 0.6 0 1 0.2 0.5 0.2 0.7 0.5 0.3 0.4 0.3 0.8 0 0.5-0.2 0.8-0.3 0.3-0.6 0.4 0.2 0.1 0.5 0.3 0.2 0.2 0.4 0.4 0.1 0.3 0.1 0.6 0 0.5-0.2 0.9-0.3 0.3-0.8 0.5-0.5 0.2-1.2 0.2-0.6 0-1.1-0.2zm0.5-3.3q0.3 0.2 0.6 0.2 0.4 0 0.6-0.2 0.3-0.2 0.3-0.6 0-0.3-0.3-0.5-0.2-0.2-0.6-0.2-0.3 0-0.6 0.2-0.2 0.2-0.2 0.5 0 0.4 0.2 0.6zm1.4 2.5q0.3-0.2 0.3-0.6 0-0.2-0.2-0.4-0.1-0.2-0.3-0.3-0.3-0.1-0.6-0.1-0.3 0-0.5 0.1-0.2 0.1-0.4 0.3-0.1 0.2-0.1 0.4 0 0.4 0.3 0.6 0.3 0.2 0.7 0.2 0.5 0 0.8-0.2zm4.1-4.5v5.4h-1.1v-4h-1v-0.7q0.5 0 0.8-0.1 0.3 0 0.4-0.2 0.1-0.2 0.2-0.4zm1.6 4.8q-0.5-0.7-0.5-2.1 0-0.9 0.2-1.5 0.3-0.6 0.7-1 0.5-0.3 1.2-0.3 0.9 0 1.5 0.7 0.5 0.8 0.5 2.1 0 1.4-0.5 2.1-0.6 0.7-1.5 0.7-1 0-1.6-0.7zm0.8-0.6q0.3 0.4 0.8 0.4 0.4 0 0.7-0.4 0.2-0.4 0.2-1.5 0-1-0.2-1.5-0.3-0.4-0.8-0.4-0.4 0-0.7 0.4-0.2 0.5-0.2 1.5 0 1 0.2 1.5z"/>
			<g id="Layer">
				<path id="Layer" class="s6" d="m17.3 185.9c0-1.1 0.9-2 2-2h113.9c1.1 0 2 0.9 2 2v19.2c0 1.1-0.9 2-2 2h-113.9c-1.1 0-2-0.9-2-2z"/>
			</g>
			<path id="Layer" fill-rule="evenodd" class="s14" d="m44 197.3q-0.4-0.5-0.4-1.6 0-0.7 0.2-1.2 0.2-0.5 0.5-0.7 0.4-0.3 0.8-0.3 0.7 0 1.2 0.6 0.4 0.5 0.4 1.6 0 1-0.4 1.6-0.5 0.5-1.2 0.5-0.7 0-1.1-0.5zm-2.2 0.4l0.1-1.3h-0.8l-0.2 1.4-0.3-0.1 0.2-1.3h-0.7v-0.3h0.7l0.1-0.9h-0.6v-0.3h0.7l0.2-1.3h0.3l-0.2 1.3h0.9l0.2-1.3h0.3l-0.2 1.3h0.7v0.3h-0.7l-0.1 0.9h0.6v0.3h-0.7l-0.2 1.4zm-14.6 0v-4.2h0.6v4.2zm2.1 0q-0.1-0.1-0.2-0.3-0.1-0.2-0.1-0.4v-1.8h-0.5v-0.5h0.5l0.2-0.8h0.4v0.8h0.7v0.5h-0.7v1.8q0 0.1 0.1 0.2 0 0.1 0.1 0.1 0 0 0.2 0h0.3v0.4q0 0-0.1 0-0.2 0.1-0.3 0.1-0.4 0-0.6-0.1zm3.5 0q-0.3 0.1-0.6 0.1-0.4 0-0.8-0.2-0.3-0.2-0.5-0.5-0.1-0.4-0.1-0.8 0-0.5 0.1-0.9 0.2-0.3 0.5-0.5 0.3-0.2 0.7-0.2 0.5 0 0.8 0.2 0.3 0.1 0.4 0.5 0.2 0.3 0.2 0.8v0.2h-2.1q0 0.2 0.1 0.5 0.1 0.2 0.2 0.3 0.2 0.1 0.5 0.1 0.2 0 0.4-0.1 0.2-0.1 0.3-0.4h0.6q-0.1 0.3-0.3 0.6-0.2 0.2-0.4 0.3zm0-2.2q-0.1-0.1-0.2-0.3-0.2-0.1-0.5-0.1-0.2 0-0.4 0.2-0.2 0.1-0.2 0.3-0.1 0.2-0.1 0.4h1.5q0-0.3-0.1-0.5zm1.9 0.3v1.9h-0.6v-3h0.6v0.5q0.2-0.2 0.4-0.4 0.2-0.1 0.5-0.1 0.2 0 0.4 0 0.1 0.1 0.3 0.2 0.1 0.1 0.2 0.3 0.1-0.3 0.4-0.4 0.2-0.1 0.5-0.1 0.2 0 0.3 0 0.2 0.1 0.3 0.2 0.2 0.1 0.3 0.3 0.1 0.2 0.1 0.6v1.9h-0.6v-1.9q0-0.2-0.1-0.4-0.1-0.1-0.2-0.1-0.2-0.1-0.3-0.1-0.2 0-0.3 0-0.1 0.1-0.2 0.2-0.1 0.1-0.1 0.4v1.9h-0.7v-2q0-0.2 0-0.3-0.1-0.1-0.3-0.1-0.1-0.1-0.2-0.1-0.2 0-0.3 0.1-0.2 0-0.3 0.1-0.1 0.2-0.1 0.4zm6.6 0.2h0.8l0.1-0.8h-0.8zm3.3 0.9q0.2 0.3 0.6 0.3 0.5 0 0.7-0.3 0.2-0.4 0.2-1.3 0-0.9-0.2-1.3-0.2-0.3-0.7-0.3-0.4 0-0.6 0.3-0.2 0.4-0.2 1.3 0 0.9 0.2 1.3zm3 0.3q-0.4-0.5-0.4-1.6 0-0.7 0.2-1.2 0.2-0.5 0.6-0.7 0.3-0.3 0.8-0.3 0.7 0 1.1 0.6 0.4 0.5 0.4 1.6 0 1.1-0.4 1.6-0.4 0.6-1.1 0.6-0.8 0-1.2-0.6zm0.5-0.3q0.2 0.3 0.7 0.3 0.4 0 0.6-0.3 0.2-0.4 0.2-1.3 0-0.9-0.2-1.3-0.2-0.3-0.6-0.3-0.5 0-0.7 0.3-0.2 0.4-0.2 1.3 0 0.9 0.2 1.3zm4.6 0.8v-1h-1.9v-0.6l1.9-2.6h0.6v2.6h0.7v0.6h-0.7v1zm-1.4-1.6h1.4v-1.8z"/>
			<path id="Layer" fill-rule="evenodd" class="s5" d="m106.4 197.8v0.7h-1v-0.7q-0.6-0.1-1.1-0.3-0.6-0.4-0.6-1.3h1.1q0.1 0.4 0.4 0.6 0.3 0.2 0.7 0.2 0.3 0 0.5-0.1 0.2-0.1 0.3-0.2 0.2-0.2 0.2-0.4 0-0.3-0.2-0.4-0.2-0.2-0.6-0.3l-0.9-0.2q-0.6-0.1-1-0.5-0.4-0.3-0.4-1 0-0.5 0.3-0.9 0.3-0.3 0.8-0.5l0.1-0.1q0.2-0.1 0.4-0.1h0.1v-0.8h0.9v0.8h0.1q0.3 0.1 0.5 0.2 0.4 0.2 0.7 0.6 0.2 0.3 0.2 0.8h-1.1q0-0.4-0.2-0.6-0.2-0.2-0.6-0.2-0.3 0-0.4 0.1-0.2 0-0.4 0.1-0.1 0.1-0.1 0.2-0.1 0.2-0.1 0.3 0 0.2 0.1 0.4 0.2 0.1 0.7 0.2l0.8 0.2q0.8 0.2 1.1 0.7 0.3 0.4 0.3 1 0 0.5-0.2 0.8-0.3 0.4-0.8 0.6h-0.1q-0.2 0.1-0.5 0.1zm4.4-5.5v5.5h-1.1v-4.1h-1v-0.6q0.5 0 0.8-0.1 0.3-0.1 0.4-0.3 0.1-0.1 0.2-0.4zm1.6 4.8q-0.6-0.7-0.6-2 0-0.9 0.3-1.6 0.3-0.6 0.7-0.9 0.5-0.4 1.1-0.4 1 0 1.6 0.8 0.5 0.7 0.5 2.1 0 1.3-0.5 2-0.6 0.8-1.6 0.8-0.9 0-1.5-0.8zm0.8-0.6q0.3 0.5 0.7 0.5 0.5 0 0.8-0.5 0.2-0.4 0.2-1.4 0-1.1-0.2-1.5-0.3-0.5-0.8-0.5-0.4 0-0.7 0.5-0.2 0.4-0.2 1.5 0 1 0.2 1.4zm5.9 1.3v-1.2h-2.5v-0.9l2.5-3.4h1.1v3.3h0.8v1h-0.8v1.2zm-1.5-2.2h1.5v-2zm6.3 2.2v-1.2h-2.5v-0.9l2.5-3.4h1.1v3.3h0.8v1h-0.8v1.2zm-1.5-2.2h1.5v-2z"/>
			<g id="Layer">
				<path id="Layer" class="s6" d="m17.3 213.7c0-1.1 0.9-2 2-2h113.9c1.1 0 2 0.9 2 2v19.2c0 1.1-0.9 2-2 2h-113.9c-1.1 0-2-0.9-2-2z"/>
			</g>
			<path id="Layer" fill-rule="evenodd" class="s14" d="m46.3 225.1q-0.5 0.6-1.2 0.6-0.7 0-1.1-0.6-0.4-0.5-0.4-1.6 0-0.7 0.2-1.2 0.2-0.4 0.5-0.7 0.4-0.2 0.8-0.2 0.7 0 1.2 0.5 0.4 0.6 0.4 1.6 0 1.1-0.4 1.6zm-4-0.8l-0.2 1.3h-0.3l0.1-1.3h-0.8l-0.2 1.3h-0.3l0.2-1.3h-0.7v-0.4h0.7l0.1-0.8h-0.6v-0.4h0.7l0.2-1.3 0.3 0.1-0.2 1.2h0.9l0.2-1.3 0.3 0.1-0.2 1.2h0.7v0.4h-0.7l-0.1 0.8h0.6v0.4zm-14.6-2.9v4.2h-0.6v-4.2zm2.3 4.2q-0.1 0-0.3 0-0.3 0-0.5 0-0.2-0.1-0.2-0.3-0.1-0.2-0.1-0.4v-1.8h-0.5v-0.5h0.5l0.2-0.9h0.4v0.9h0.7v0.5h-0.7v1.8q0 0.1 0 0.2 0.1 0 0.1 0.1 0.1 0 0.2 0h0.4v0.4q-0.1 0-0.2 0zm1.3-0.1q-0.3-0.2-0.5-0.5-0.2-0.4-0.2-0.8 0-0.5 0.2-0.9 0.2-0.3 0.5-0.5 0.3-0.2 0.7-0.2 0.4 0 0.7 0.2 0.3 0.1 0.5 0.5 0.1 0.3 0.1 0.8v0.2h-2.1q0 0.2 0.1 0.4 0.1 0.3 0.3 0.4 0.2 0.1 0.4 0.1 0.3 0 0.5-0.1 0.2-0.1 0.3-0.4h0.5q0 0.3-0.2 0.5-0.2 0.3-0.5 0.4-0.2 0.1-0.5 0.1-0.5 0-0.8-0.2zm-0.1-1.6h1.6q0-0.3-0.1-0.5-0.1-0.2-0.3-0.3-0.1-0.1-0.4-0.1-0.2 0-0.4 0.1-0.2 0.2-0.3 0.4-0.1 0.2-0.1 0.4zm2.8 1.7v-3h0.6v0.5q0.1-0.2 0.3-0.4 0.3-0.1 0.6-0.1 0.2 0 0.3 0 0.2 0.1 0.3 0.2 0.2 0.1 0.3 0.3 0.1-0.3 0.3-0.4 0.3-0.1 0.6-0.1 0.1 0 0.3 0 0.2 0.1 0.3 0.2 0.2 0.1 0.3 0.3 0 0.2 0 0.6v1.9h-0.6v-1.9q0-0.2-0.1-0.4 0-0.1-0.2-0.2-0.1 0-0.2 0-0.2 0-0.3 0-0.2 0.1-0.3 0.2-0.1 0.1-0.1 0.3v2h-0.6v-2q0-0.2-0.1-0.3-0.1-0.1-0.2-0.2-0.1 0-0.3 0-0.1 0-0.3 0-0.1 0.1-0.2 0.2-0.1 0.1-0.1 0.3v2zm8.1-2.5h-0.8l-0.2 0.8h0.9zm3.6 1.7q0.2-0.4 0.2-1.2 0-0.9-0.2-1.3-0.2-0.4-0.6-0.4-0.4 0-0.7 0.4-0.2 0.4-0.2 1.3 0 0.8 0.2 1.2 0.3 0.4 0.7 0.4 0.4 0 0.6-0.4zm4 0.4q-0.4 0.5-1.1 0.5-0.7 0-1.1-0.5-0.4-0.6-0.4-1.6 0-0.7 0.2-1.2 0.1-0.5 0.5-0.8 0.3-0.2 0.8-0.2 0.7 0 1.1 0.6 0.4 0.5 0.4 1.6 0 1-0.4 1.6zm-0.5-0.4q0.3-0.4 0.3-1.2 0-0.9-0.3-1.3-0.2-0.4-0.6-0.4-0.4 0-0.6 0.4-0.3 0.4-0.3 1.3 0 0.8 0.3 1.2 0.2 0.4 0.6 0.4 0.4 0 0.6-0.4zm3.9 0.7q-0.4 0.2-0.8 0.2-0.4 0-0.8-0.1-0.3-0.2-0.5-0.4-0.3-0.2-0.4-0.5l0.5-0.3q0.1 0.2 0.3 0.4 0.1 0.2 0.4 0.3 0.2 0.1 0.4 0.1 0.5 0 0.7-0.2 0.3-0.3 0.3-0.7 0-0.3-0.1-0.5-0.2-0.1-0.4-0.3-0.2-0.1-0.4-0.1-0.2 0-0.3 0.1-0.2 0-0.3 0.1-0.1 0.1-0.3 0.2 0 0 0 0 0 0-0.1 0l-0.5-0.2 0.2-2.1h2.6v0.5h-2.1l-0.1 1.2q0.3-0.1 0.5-0.2 0.2-0.1 0.5-0.1 0.4 0 0.7 0.2 0.3 0.1 0.5 0.4 0.2 0.3 0.2 0.8 0 0.4-0.2 0.7-0.2 0.4-0.5 0.5z"/>
			<path id="Layer" fill-rule="evenodd" class="s5" d="m113.4 226.3v-0.6q-0.6-0.1-1-0.4-0.7-0.4-0.7-1.2h1.1q0.1 0.3 0.4 0.5 0.3 0.2 0.7 0.2 0.3 0 0.5-0.1 0.2-0.1 0.3-0.2 0.2-0.2 0.2-0.4 0-0.3-0.2-0.4-0.2-0.2-0.6-0.2l-0.9-0.2q-0.6-0.2-1-0.5-0.4-0.4-0.4-1 0-0.5 0.3-0.9 0.3-0.4 0.8-0.6h0.1q0.2-0.1 0.4-0.2h0.1v-0.7h0.9v0.7l0.1 0.1q0.3 0 0.5 0.1 0.5 0.2 0.7 0.6 0.2 0.4 0.2 0.8l-1.1 0.1q0-0.4-0.2-0.6-0.2-0.2-0.6-0.2-0.3 0-0.4 0-0.2 0.1-0.3 0.2-0.2 0.1-0.2 0.2-0.1 0.1-0.1 0.2 0 0.3 0.2 0.4 0.1 0.2 0.6 0.3l0.8 0.2q0.8 0.2 1.1 0.6 0.3 0.4 0.3 1 0 0.5-0.2 0.9-0.3 0.3-0.8 0.5l-0.1 0.1q-0.2 0-0.4 0.1h-0.1v0.6zm5.7-0.7v-1.2h-2.5v-0.9l2.5-3.3h1.1v3.3h0.8v0.9h-0.8v1.2zm-1.5-2.1h1.5v-2zm4.4 1.5q-0.6-0.7-0.6-2.1 0-0.9 0.3-1.5 0.2-0.7 0.7-1 0.5-0.3 1.1-0.3 1 0 1.6 0.7 0.5 0.7 0.5 2.1 0 1.4-0.5 2.1-0.6 0.7-1.6 0.7-1 0-1.5-0.7zm0.8-0.6q0.2 0.4 0.7 0.4 0.5 0 0.7-0.4 0.3-0.5 0.3-1.5 0-1-0.3-1.5-0.2-0.4-0.7-0.4-0.5 0-0.7 0.4-0.2 0.5-0.2 1.5 0 1 0.2 1.5z"/>
			<g id="Layer">
				<path id="Layer" class="s6" d="m17.3 241.5c0-1.1 0.9-2 2-2h113.9c1.1 0 2 0.9 2 2v19.2c0 1.1-0.9 2-2 2h-113.9c-1.1 0-2-0.9-2-2z"/>
			</g>
			<path id="Layer" fill-rule="evenodd" class="s14" d="m44 253q-0.4-0.6-0.4-1.6 0-0.7 0.2-1.2 0.2-0.5 0.5-0.7 0.4-0.3 0.8-0.3 0.7 0 1.2 0.6 0.4 0.5 0.4 1.6 0 1-0.4 1.6-0.5 0.5-1.2 0.5-0.7 0-1.1-0.5zm-2.2 0.4l0.1-1.3h-0.8l-0.2 1.4-0.3-0.1 0.2-1.3h-0.7v-0.3h0.7l0.1-0.9h-0.6v-0.3h0.7l0.2-1.3h0.3l-0.2 1.3h0.9l0.2-1.3h0.3l-0.2 1.3h0.7v0.3h-0.7l-0.1 0.9h0.6v0.3h-0.7l-0.2 1.4zm-14.6 0v-4.2h0.6v4.2zm2.1-0.1q-0.1 0-0.2-0.2-0.1-0.2-0.1-0.4v-1.8h-0.5v-0.5h0.5l0.2-0.9h0.4v0.9h0.7v0.5h-0.7v1.7q0 0.2 0.1 0.3 0 0 0.1 0.1 0 0 0.2 0h0.3v0.4q0 0-0.1 0-0.2 0-0.3 0-0.4 0-0.6-0.1zm3.5 0.1q-0.3 0.1-0.6 0.1-0.4 0-0.8-0.2-0.3-0.2-0.5-0.5-0.1-0.4-0.1-0.9 0-0.4 0.1-0.8 0.2-0.3 0.5-0.5 0.3-0.2 0.7-0.2 0.5 0 0.8 0.1 0.3 0.2 0.4 0.6 0.2 0.3 0.2 0.8v0.2h-2.1q0 0.2 0.1 0.4 0.1 0.3 0.2 0.4 0.2 0.1 0.5 0.1 0.2 0 0.4-0.1 0.2-0.1 0.3-0.4h0.6q-0.1 0.3-0.3 0.5-0.2 0.3-0.4 0.4zm0-2.2q-0.1-0.2-0.2-0.3-0.2-0.1-0.5-0.1-0.2 0-0.4 0.1-0.2 0.2-0.2 0.4-0.1 0.1-0.1 0.4h1.5q0-0.3-0.1-0.5zm1.9 0.2v2h-0.6v-3h0.6v0.4q0.2-0.2 0.4-0.3 0.2-0.1 0.5-0.1 0.2 0 0.4 0 0.1 0.1 0.3 0.2 0.1 0.1 0.2 0.2 0.1-0.2 0.4-0.3 0.2-0.1 0.5-0.1 0.2 0 0.3 0 0.2 0.1 0.3 0.2 0.2 0.1 0.3 0.3 0.1 0.2 0.1 0.5v2h-0.6v-1.9q0-0.2-0.1-0.4-0.1-0.1-0.2-0.2-0.2 0-0.3 0-0.2 0-0.3 0-0.1 0.1-0.2 0.2-0.1 0.1-0.1 0.3v2h-0.7v-2q0-0.2 0-0.3-0.1-0.1-0.3-0.2-0.1 0-0.2 0-0.2 0-0.3 0-0.2 0.1-0.3 0.2-0.1 0.1-0.1 0.3zm6.6 0.3h0.8l0.1-0.8h-0.8zm3.3 0.8q0.2 0.4 0.6 0.4 0.5 0 0.7-0.4 0.2-0.3 0.2-1.2 0-0.9-0.2-1.3-0.2-0.4-0.7-0.4-0.4 0-0.6 0.4-0.2 0.4-0.2 1.3 0 0.9 0.2 1.2zm3 0.4q-0.4-0.5-0.4-1.6 0-0.7 0.2-1.2 0.2-0.5 0.6-0.7 0.3-0.3 0.8-0.3 0.7 0 1.1 0.6 0.4 0.5 0.4 1.6 0 1.1-0.4 1.6-0.4 0.5-1.1 0.5-0.8 0-1.2-0.5zm0.5-0.4q0.2 0.4 0.7 0.4 0.4 0 0.6-0.4 0.2-0.3 0.2-1.2 0-0.9-0.2-1.3-0.2-0.4-0.6-0.4-0.5 0-0.7 0.4-0.2 0.4-0.2 1.3 0 0.9 0.2 1.2zm3.4 0.7q-0.4-0.3-0.6-0.7-0.2-0.5-0.2-1.1 0-0.7 0.2-1.2 0.2-0.5 0.6-0.8 0.4-0.3 0.9-0.3 0.4 0 0.7 0.2 0.3 0.1 0.5 0.3 0.2 0.3 0.2 0.7h-0.6q0-0.3-0.3-0.5-0.2-0.2-0.5-0.2-0.3 0-0.6 0.2-0.2 0.2-0.3 0.6-0.1 0.4-0.1 0.9 0.1-0.2 0.3-0.3 0.1-0.1 0.3-0.2 0.2-0.1 0.5-0.1 0.4 0 0.7 0.2 0.3 0.1 0.5 0.4 0.2 0.3 0.2 0.7 0 0.4-0.2 0.8-0.2 0.3-0.5 0.5-0.4 0.1-0.8 0.1-0.5 0-0.9-0.2zm0.4-0.4q0.2 0.1 0.5 0.1 0.2 0 0.4-0.1 0.2-0.1 0.3-0.3 0.1-0.2 0.1-0.5 0-0.2-0.1-0.4-0.1-0.2-0.3-0.3-0.2-0.1-0.4-0.1-0.3 0-0.5 0.1-0.2 0.1-0.3 0.2-0.1 0.2-0.1 0.4 0 0.3 0.1 0.5 0.1 0.3 0.3 0.4z"/>
			<path id="Layer" fill-rule="evenodd" class="s5" d="m103.6 254.2v-0.7q-0.7-0.1-1.1-0.4-0.6-0.4-0.7-1.2h1.1q0.1 0.4 0.4 0.6 0.3 0.2 0.8 0.2 0.2 0 0.5-0.1 0.2-0.1 0.3-0.3 0.1-0.1 0.1-0.3 0-0.3-0.2-0.5-0.2-0.1-0.6-0.2l-0.9-0.2q-0.6-0.1-1-0.5-0.3-0.4-0.3-1 0-0.5 0.2-0.9 0.3-0.4 0.8-0.6h0.1q0.3-0.1 0.5-0.1v-0.8h1v0.8h0.1q0.2 0.1 0.4 0.2 0.5 0.2 0.7 0.6 0.3 0.3 0.3 0.8h-1.1q-0.1-0.4-0.3-0.6-0.2-0.2-0.6-0.2-0.2 0-0.4 0.1-0.2 0-0.3 0.1-0.1 0.1-0.2 0.2-0.1 0.1-0.1 0.3 0 0.2 0.2 0.4 0.2 0.1 0.6 0.2l0.9 0.2q0.7 0.2 1 0.6 0.4 0.5 0.4 1.1 0 0.5-0.3 0.8-0.2 0.4-0.7 0.5l-0.2 0.1q-0.2 0.1-0.4 0.1h-0.1v0.7zm3.4-0.7v-0.9q0-0.4 0.1-0.7 0.2-0.3 0.4-0.5 0.3-0.2 0.6-0.4 0.3-0.2 0.6-0.3 0.3-0.2 0.5-0.3 0.3-0.2 0.4-0.4 0.2-0.2 0.2-0.4 0-0.3-0.2-0.5-0.3-0.3-0.7-0.3-0.4 0-0.6 0.3-0.3 0.2-0.4 0.7h-1.1q0.1-0.5 0.3-0.9 0.2-0.5 0.7-0.7 0.5-0.3 1.2-0.3 0.6 0 1 0.2 0.5 0.2 0.7 0.6 0.2 0.4 0.2 0.9 0 0.4-0.1 0.7-0.2 0.3-0.4 0.5-0.2 0.2-0.5 0.4-0.3 0.1-0.6 0.3-0.3 0.1-0.6 0.2-0.2 0.2-0.4 0.4-0.1 0.1-0.1 0.4h2.7v1zm8.1-0.2q-0.5 0.2-1.1 0.2-0.6 0-1-0.1-0.5-0.2-0.8-0.5-0.4-0.3-0.5-0.6l0.8-0.5q0.2 0.2 0.3 0.4 0.2 0.2 0.5 0.3 0.2 0.2 0.5 0.2 0.5 0 0.8-0.3 0.3-0.3 0.3-0.7 0-0.2-0.1-0.5-0.1-0.2-0.4-0.3-0.2-0.1-0.5-0.1-0.2 0-0.3 0-0.2 0.1-0.3 0.1-0.2 0.1-0.4 0.2 0 0.1 0 0.1-0.1 0-0.1-0.1l-0.8-0.3 0.2-2.8h3.5v0.9h-2.6l-0.1 1.3q0.3-0.1 0.6-0.2 0.2-0.1 0.6-0.1 0.5 0 0.9 0.2 0.5 0.2 0.7 0.6 0.3 0.4 0.3 1 0 0.6-0.3 1-0.2 0.4-0.7 0.6zm2.6-0.1q-0.5-0.3-0.8-0.9-0.2-0.6-0.2-1.5 0-0.9 0.2-1.5 0.3-0.7 0.8-1 0.5-0.4 1.3-0.4 0.5 0 0.9 0.2 0.4 0.2 0.7 0.6 0.3 0.3 0.3 0.8h-1q-0.1-0.3-0.3-0.5-0.3-0.2-0.6-0.2-0.4 0-0.7 0.2-0.2 0.2-0.3 0.6-0.2 0.4-0.1 1 0.1-0.2 0.3-0.3 0.2-0.2 0.4-0.2 0.3-0.1 0.5-0.1 0.6 0 1 0.2 0.4 0.2 0.6 0.6 0.3 0.4 0.3 0.9 0 0.5-0.3 0.9-0.2 0.5-0.7 0.7-0.5 0.2-1.1 0.2-0.7 0-1.2-0.3zm0.7-0.6q0.2 0.1 0.5 0.1 0.2 0 0.4-0.1 0.3-0.1 0.4-0.4 0.1-0.2 0.1-0.5 0-0.3-0.1-0.5-0.1-0.2-0.3-0.3-0.3-0.1-0.5-0.1-0.3 0-0.5 0.1-0.2 0.1-0.3 0.3-0.2 0.2-0.2 0.3 0 0.4 0.2 0.7 0.1 0.2 0.3 0.4zm4.2 0.6q-0.5-0.3-0.8-0.9-0.2-0.6-0.2-1.5 0-0.9 0.2-1.5 0.3-0.7 0.8-1 0.5-0.4 1.2-0.4 0.5 0 1 0.2 0.4 0.2 0.7 0.6 0.3 0.3 0.3 0.8h-1q-0.1-0.3-0.4-0.5-0.2-0.2-0.5-0.2-0.4 0-0.7 0.2-0.2 0.2-0.4 0.6-0.1 0.4 0 1 0.1-0.2 0.3-0.3 0.2-0.2 0.4-0.2 0.3-0.1 0.5-0.1 0.6 0 1 0.2 0.4 0.2 0.6 0.6 0.3 0.4 0.3 0.9 0 0.5-0.3 0.9-0.3 0.5-0.7 0.7-0.5 0.2-1.1 0.2-0.7 0-1.2-0.3zm0.7-0.6q0.2 0.1 0.5 0.1 0.2 0 0.4-0.1 0.2-0.1 0.4-0.4 0.1-0.2 0.1-0.5 0-0.3-0.1-0.5-0.2-0.2-0.4-0.3-0.2-0.1-0.4-0.1-0.3 0-0.5 0.1-0.2 0.1-0.3 0.3-0.2 0.2-0.2 0.3 0 0.4 0.1 0.7 0.2 0.2 0.4 0.4z"/>
			<g id="Layer">
				<path id="Layer" class="s6" d="m17.3 269.4c0-1.1 0.9-2 2-2h113.9c1.1 0 2 0.9 2 2v19.2c0 1.1-0.9 2-2 2h-113.9c-1.1 0-2-0.9-2-2z"/>
			</g>
			<path id="Layer" fill-rule="evenodd" class="s5" d="m106.3 281.3v0.7h-1v-0.7q-0.6 0-1.1-0.3-0.6-0.4-0.7-1.2l1.2-0.1q0 0.4 0.3 0.6 0.3 0.2 0.8 0.2 0.3 0 0.5-0.1 0.2-0.1 0.3-0.2 0.1-0.2 0.1-0.4 0-0.3-0.2-0.4-0.2-0.2-0.6-0.3l-0.8-0.2q-0.7-0.1-1-0.5-0.4-0.3-0.4-0.9 0-0.6 0.3-0.9 0.2-0.4 0.7-0.6l0.2-0.1q0.2 0 0.4-0.1v-0.7h1v0.7h0.1q0.2 0.1 0.5 0.2 0.4 0.2 0.7 0.6 0.2 0.4 0.2 0.8h-1.1q-0.1-0.3-0.3-0.5-0.1-0.2-0.6-0.2-0.2 0-0.4 0-0.2 0.1-0.3 0.1-0.1 0.1-0.2 0.3 0 0.1 0 0.2 0 0.3 0.1 0.4 0.2 0.1 0.6 0.3l0.9 0.2q0.7 0.1 1.1 0.6 0.3 0.4 0.3 1 0 0.5-0.3 0.8-0.2 0.4-0.7 0.6h-0.1q-0.2 0.1-0.5 0.1zm5.8-1.2v1.2h-1v-1.2h-2.5v-0.9l2.5-3.4h1v3.4h0.9v0.9zm-1.1-2.9l-1.5 2h1.5zm4.5-1.4v5.5h-1.1v-4.1h-1v-0.6q0.5 0 0.7-0.1 0.3-0.1 0.5-0.3 0.1-0.1 0.1-0.4zm2.2 5.4q-0.5-0.2-0.7-0.6-0.3-0.3-0.4-0.8h1.1q0.1 0.3 0.3 0.5 0.2 0.2 0.6 0.2 0.4 0 0.7-0.2 0.3-0.2 0.4-0.6 0.1-0.4 0.1-1-0.1 0.2-0.3 0.3-0.2 0.2-0.4 0.3-0.3 0-0.6 0-0.5 0-1-0.2-0.4-0.2-0.6-0.6-0.3-0.4-0.3-0.9 0-0.5 0.3-0.9 0.2-0.5 0.7-0.7 0.5-0.2 1.1-0.2 0.7 0 1.2 0.3 0.5 0.3 0.7 0.9 0.3 0.6 0.3 1.5 0 0.9-0.3 1.6-0.2 0.6-0.8 1-0.5 0.3-1.2 0.3-0.5 0-0.9-0.2zm0.4-3q0.2 0.3 0.6 0.3 0.2 0 0.5-0.1 0.2-0.1 0.3-0.3 0.2-0.2 0.2-0.3 0-0.4-0.2-0.7-0.1-0.2-0.3-0.4-0.2-0.1-0.5-0.1-0.2 0-0.4 0.1-0.2 0.1-0.4 0.4-0.1 0.2-0.1 0.5 0 0.4 0.3 0.6zm4.4 3q-0.4-0.2-0.7-0.6-0.3-0.3-0.3-0.8h1.1q0 0.3 0.3 0.5 0.2 0.2 0.5 0.2 0.4 0 0.7-0.2 0.3-0.2 0.5-0.6 0.1-0.4 0.1-1-0.1 0.2-0.3 0.3-0.2 0.2-0.4 0.3-0.3 0-0.6 0-0.6 0-1-0.2-0.4-0.2-0.6-0.6-0.3-0.4-0.3-0.9 0-0.5 0.3-0.9 0.2-0.5 0.7-0.7 0.4-0.2 1.1-0.2 0.6 0 1.1 0.3 0.5 0.3 0.8 0.9 0.3 0.6 0.3 1.5 0 0.9-0.3 1.6-0.3 0.6-0.8 1-0.5 0.3-1.2 0.3-0.5 0-1-0.2zm0.4-3q0.3 0.3 0.7 0.3 0.2 0 0.4-0.1 0.2-0.1 0.4-0.3 0.1-0.2 0.1-0.3 0-0.4-0.1-0.7-0.1-0.2-0.3-0.4-0.2-0.1-0.5-0.1-0.3 0-0.5 0.1-0.2 0.1-0.3 0.4-0.1 0.2-0.1 0.5 0 0.4 0.2 0.6z"/>
			<path id="Layer" class="s5" d="m8.7 7.2h134.7v66.1h-134.7z"/>
			<g id="Layer">
				<path id="Layer" class="s6" d="m17.3 55.9c0-1.1 0.9-2 2-2h113.9c1.1 0 2 0.9 2 2v28.5c0 1.1-0.9 2-2 2h-113.9c-1.1 0-2-0.9-2-2z"/>
			</g>
			<path id="Layer" fill-rule="evenodd" class="s14" d="m39.7 72.5q-0.1 0-0.1 0-0.3 0-0.5 0-0.1-0.1-0.2-0.2-0.1-0.1-0.1-0.3 0-0.1 0-0.3v-3.5h0.6v3.4q0 0.3 0.1 0.4 0 0.1 0.2 0.1h0.2v0.4q-0.1 0-0.2 0zm-11.5 0v-3.6h-1.4v-0.6h3.3v0.6h-1.3v3.6zm2.5-0.1q-0.4-0.2-0.5-0.5-0.2-0.4-0.2-0.9 0-0.5 0.2-0.8 0.1-0.4 0.4-0.6 0.3-0.2 0.8-0.2 0.4 0 0.7 0.2 0.3 0.2 0.5 0.6 0.2 0.3 0.2 0.8 0 0.5-0.2 0.8-0.2 0.4-0.5 0.6-0.3 0.2-0.7 0.2-0.4 0-0.7-0.2zm0.2-0.5q0.2 0.2 0.5 0.2 0.2 0 0.4-0.2 0.2-0.1 0.3-0.3 0.1-0.3 0.1-0.6 0-0.3-0.1-0.5-0.1-0.3-0.3-0.4-0.1-0.2-0.4-0.2-0.3 0-0.4 0.2-0.2 0.1-0.3 0.3-0.1 0.3-0.1 0.6 0 0.3 0.1 0.5 0.1 0.3 0.2 0.4zm3 0.5q-0.2-0.1-0.2-0.2-0.1-0.2-0.1-0.4v-1.9h-0.5v-0.4h0.5l0.2-0.9h0.4v0.9h0.7v0.4h-0.7v1.8q0 0.2 0.1 0.3 0 0 0.1 0 0 0.1 0.2 0.1h0.3v0.4q0 0-0.2 0-0.1 0-0.3 0-0.3 0-0.5-0.1zm3.1 0q-0.3 0.2-0.6 0.2-0.3 0-0.5-0.1-0.2-0.1-0.4-0.3-0.1-0.2-0.1-0.5 0-0.5 0.4-0.8 0.3-0.2 1.1-0.2h0.5v-0.3q0-0.2-0.2-0.4-0.1-0.1-0.5-0.1-0.2 0-0.4 0.1-0.2 0.1-0.2 0.4h-0.6q0.1-0.3 0.2-0.5 0.2-0.2 0.4-0.4 0.3-0.1 0.7-0.1 0.4 0 0.6 0.2 0.3 0.1 0.4 0.3 0.2 0.2 0.2 0.5v2.1h-0.6v-0.5q-0.2 0.3-0.4 0.4zm-0.1-0.3q0.1-0.1 0.2-0.2 0.1-0.1 0.2-0.2 0.1-0.1 0.1-0.2v-0.5h-0.4q-0.3 0-0.6 0.1-0.2 0-0.3 0.2-0.1 0.1-0.1 0.3 0 0.3 0.2 0.4 0.1 0.1 0.4 0.1 0.1 0 0.3 0zm4.9 1.3v-3.9h0.6v0.5q0-0.1 0.1-0.2 0.1-0.1 0.2-0.2 0.2-0.1 0.3-0.1 0.2-0.1 0.4-0.1 0.3 0 0.6 0.2 0.3 0.2 0.4 0.5 0.2 0.3 0.2 0.9 0 0.5-0.2 0.8-0.1 0.4-0.4 0.6-0.3 0.2-0.7 0.2-0.2 0-0.3-0.1-0.2 0-0.3-0.1-0.1-0.1-0.2-0.2-0.1-0.1-0.1-0.2v1.4zm1-1.5q0.1 0.2 0.4 0.2 0.3 0 0.6-0.3 0.2-0.3 0.2-0.8 0-0.5-0.2-0.8-0.2-0.3-0.6-0.3-0.4 0-0.6 0.3-0.2 0.3-0.2 0.8 0 0.3 0.1 0.5 0.1 0.3 0.3 0.4zm2.7 0.6q-0.2-0.1-0.4-0.3-0.1-0.2-0.1-0.5 0-0.5 0.4-0.8 0.3-0.2 1.1-0.2h0.5v-0.3q0-0.2-0.2-0.4-0.1-0.1-0.4-0.1-0.3 0-0.5 0.1-0.2 0.1-0.2 0.4h-0.6q0.1-0.3 0.2-0.5 0.2-0.2 0.4-0.4 0.3-0.1 0.7-0.1 0.4 0 0.7 0.2 0.2 0.1 0.3 0.3 0.2 0.2 0.2 0.5v2.1h-0.6v-0.5q-0.2 0.3-0.4 0.4-0.3 0.2-0.6 0.2-0.3 0-0.5-0.1zm0.3-0.5q0.1 0.1 0.4 0.1 0.1 0 0.3 0 0.1-0.1 0.2-0.2 0.1-0.1 0.2-0.2 0.1-0.1 0.1-0.2v-0.5h-0.4q-0.3 0-0.6 0.1-0.2 0-0.3 0.2-0.1 0.1-0.1 0.3 0 0.3 0.2 0.4zm2.5 1.4h-0.1v-0.4h0.3q0.1 0 0.2 0 0.2-0.1 0.2-0.1 0.1-0.1 0.1-0.1 0.1-0.1 0.1-0.1l0.1-0.3-1.2-2.9h0.6l0.9 2.2 0.8-2.2h0.6l-1.3 3.2q-0.1 0.3-0.2 0.5-0.2 0.1-0.4 0.2-0.1 0.1-0.4 0.1-0.2 0-0.3-0.1zm3.7-2.9v2h-0.6v-3h0.6v0.4q0.1-0.2 0.3-0.3 0.2-0.2 0.6-0.2 0.2 0 0.3 0.1 0.2 0.1 0.3 0.2 0.2 0.1 0.3 0.2 0.1-0.2 0.3-0.3 0.3-0.2 0.6-0.2 0.1 0 0.3 0.1 0.2 0 0.3 0.2 0.2 0.1 0.2 0.3 0.1 0.2 0.1 0.5v2h-0.6v-1.9q0-0.2-0.1-0.4-0.1-0.1-0.2-0.2-0.1 0-0.3 0-0.1 0-0.2 0-0.2 0.1-0.3 0.2-0.1 0.1-0.1 0.3v2h-0.6v-2q0-0.2-0.1-0.3-0.1-0.1-0.2-0.2-0.1 0-0.3 0-0.1 0-0.3 0-0.1 0.1-0.2 0.2-0.1 0.1-0.1 0.3zm4.9 1.9q-0.3-0.2-0.5-0.6-0.2-0.3-0.2-0.8 0-0.4 0.2-0.8 0.2-0.3 0.5-0.6 0.3-0.2 0.7-0.2 0.5 0 0.8 0.2 0.2 0.2 0.4 0.6 0.2 0.3 0.2 0.7v0.2h-2.1q0 0.3 0 0.5 0.1 0.2 0.3 0.4 0.2 0.1 0.5 0.1 0.2 0 0.4-0.1 0.2-0.2 0.3-0.4h0.5q0 0.3-0.2 0.5-0.2 0.2-0.5 0.4-0.2 0.1-0.5 0.1-0.5 0-0.8-0.2zm0-1.7h1.5q0-0.2-0.1-0.4-0.1-0.2-0.3-0.3-0.1-0.1-0.4-0.1-0.2 0-0.4 0.1-0.2 0.1-0.3 0.3 0 0.2 0 0.4zm2.7 1.8v-3h0.6v0.4q0.1-0.1 0.2-0.2 0.1-0.1 0.3-0.2 0.2 0 0.4 0 0.3 0 0.5 0.1 0.3 0.1 0.4 0.3 0.2 0.3 0.2 0.6v2h-0.7v-1.9q0-0.3-0.1-0.5-0.2-0.1-0.5-0.1-0.1 0-0.3 0-0.2 0.1-0.3 0.2-0.1 0.1-0.1 0.3v2zm4.6 0q-0.1 0-0.3 0-0.3 0-0.5-0.1-0.2-0.1-0.2-0.2-0.1-0.2-0.1-0.4v-1.9h-0.5v-0.4h0.5l0.2-0.9h0.4v0.9h0.7v0.4h-0.7v1.8q0 0.2 0.1 0.3 0 0 0.1 0 0 0.1 0.2 0.1h0.3v0.4q0 0-0.2 0z"/>
			<path id="Layer" fill-rule="evenodd" class="s9" d="m93.4 74.3v1h-1.4v-1h-0.1q-0.9-0.1-1.6-0.5-1-0.7-1.1-1.9l1.8-0.1q0.1 0.6 0.5 0.9 0.5 0.3 1.2 0.3 0.4 0 0.7-0.1 0.4-0.2 0.5-0.4 0.2-0.2 0.2-0.5 0-0.5-0.3-0.7-0.3-0.2-0.9-0.4l-1.3-0.3q-1-0.2-1.6-0.7-0.5-0.6-0.6-1.6 0-0.8 0.5-1.3 0.4-0.6 1.1-0.9l0.2-0.1q0.3-0.1 0.7-0.2h0.1v-1.1h1.4v1.1h0.1q0.5 0.1 0.8 0.3 0.7 0.3 1.1 0.9 0.4 0.6 0.4 1.3h-1.7q-0.1-0.6-0.4-0.9-0.3-0.3-1-0.3-0.3 0-0.6 0.1-0.3 0-0.4 0.2-0.2 0.1-0.3 0.3-0.1 0.2-0.1 0.4 0 0.4 0.2 0.6 0.2 0.2 0.9 0.4l1.4 0.3q1.1 0.3 1.6 1 0.5 0.6 0.5 1.6 0 0.7-0.4 1.2-0.4 0.6-1.1 0.9h-0.2q-0.3 0.1-0.7 0.2zm8.5-0.4q-0.8 0.5-1.9 0.5-0.8 0-1.5-0.3-0.6-0.3-1.1-0.9-0.4-0.5-0.5-1.3h1.7q0.1 0.5 0.4 0.8 0.4 0.3 0.9 0.3 0.6 0 1.1-0.3 0.4-0.3 0.7-0.9 0.2-0.6 0.1-1.6-0.1 0.3-0.4 0.5-0.3 0.3-0.7 0.4-0.4 0.1-0.8 0.1-0.9 0-1.6-0.3-0.6-0.3-1-0.9-0.4-0.6-0.4-1.4 0-0.9 0.4-1.5 0.4-0.6 1.1-1 0.7-0.4 1.7-0.4 1.1 0 1.8 0.5 0.8 0.5 1.2 1.5 0.4 0.9 0.4 2.2 0 1.5-0.4 2.5-0.4 1-1.2 1.5zm-1.1-4.2q0.4-0.1 0.6-0.4 0.2-0.2 0.2-0.5 0-0.6-0.2-1-0.2-0.4-0.5-0.6-0.3-0.2-0.8-0.2-0.4 0-0.7 0.2-0.3 0.2-0.5 0.5-0.1 0.3-0.1 0.8 0 0.6 0.3 1 0.4 0.4 1 0.4 0.4 0 0.7-0.2zm9.9 3.1v1.4h-6.1v-1.2q0-0.7 0.2-1.1 0.3-0.5 0.7-0.9 0.3-0.3 0.8-0.6 0.5-0.2 0.9-0.5 0.5-0.2 0.9-0.4 0.4-0.3 0.6-0.5 0.3-0.3 0.3-0.7 0-0.5-0.4-0.9-0.3-0.3-0.9-0.3-0.7 0-1.1 0.4-0.4 0.4-0.6 1.1h-1.6q0-0.8 0.4-1.5 0.4-0.6 1.1-1 0.7-0.4 1.8-0.4 0.9 0 1.6 0.3 0.7 0.4 1.1 0.9 0.3 0.6 0.3 1.4 0 0.6-0.2 1-0.2 0.5-0.6 0.8-0.4 0.4-0.8 0.6-0.5 0.2-0.9 0.5-0.5 0.2-0.9 0.4-0.4 0.2-0.6 0.5-0.2 0.2-0.2 0.6v0.1zm1.8 0.4q-0.9-1.1-0.9-3.1 0-1.4 0.4-2.4 0.4-1 1.1-1.5 0.8-0.5 1.8-0.5 1.5 0 2.3 1.1 0.9 1.2 0.9 3.3 0 2-0.9 3.1-0.8 1.2-2.3 1.2-1.6 0-2.4-1.2zm1.3-0.9q0.3 0.7 1.1 0.7 0.7 0 1.1-0.7 0.3-0.7 0.3-2.2 0-1.7-0.3-2.3-0.4-0.7-1.1-0.7-0.8 0-1.1 0.7-0.4 0.7-0.4 2.3 0 1.5 0.4 2.2zm9 1.9v-1.8h-3.8v-1.4l3.8-5.2h1.6v5.1h1.3v1.5h-1.3v1.8zm-2.3-3.3h2.3v-3z"/>
			<path id="Layer" fill-rule="evenodd" class="s15" d="m100.1 29.8v-1.2h0.5v1.2zm-31.9 9.3v-8.2h1.5v0.8h0.1q0.3-0.5 0.7-0.7 0.5-0.2 1.1-0.2 0.7 0 1.2 0.2 0.5 0.3 0.9 0.7 0.3 0.5 0.5 1.1 0.1 0.6 0.1 1.2 0 0.6-0.1 1.2-0.2 0.6-0.5 1-0.4 0.4-0.9 0.7-0.5 0.2-1.1 0.2-0.6 0-1.1-0.2-0.4-0.2-0.7-0.7h-0.1v2.9zm3.8-3.4q0.2-0.1 0.4-0.4 0.2-0.3 0.2-0.6 0.1-0.4 0.1-0.7 0-0.4-0.1-0.7 0-0.4-0.2-0.7-0.2-0.2-0.5-0.4-0.2-0.2-0.6-0.2-0.4 0-0.7 0.2-0.3 0.2-0.5 0.4-0.1 0.3-0.2 0.6-0.1 0.4-0.1 0.8 0 0.3 0.1 0.7 0.1 0.3 0.3 0.6 0.1 0.3 0.4 0.4 0.3 0.2 0.7 0.2 0.4 0 0.7-0.2zm6.2 1.3q-0.6 0.1-1.1 0.1-0.5 0-0.8-0.1-0.4-0.1-0.7-0.3-0.3-0.2-0.4-0.6-0.2-0.3-0.2-0.8 0-0.5 0.2-0.8 0.2-0.3 0.5-0.5 0.3-0.2 0.6-0.3 0.4-0.1 0.8-0.2 0.3-0.1 0.7-0.1 0.4 0 0.6-0.1 0.3-0.1 0.5-0.2 0.2-0.1 0.1-0.4 0-0.3 0-0.4-0.1-0.2-0.3-0.3-0.1-0.1-0.3-0.1-0.2 0-0.4 0-0.5 0-0.8 0.2-0.3 0.2-0.3 0.7h-1.7q0-0.6 0.3-1 0.3-0.4 0.7-0.6 0.4-0.2 0.8-0.3 0.5-0.1 1-0.1 0.5 0 1 0 0.4 0.1 0.8 0.3 0.4 0.2 0.7 0.5 0.2 0.3 0.2 0.9v3.1q0 0.5 0 0.8 0.1 0.4 0.2 0.6h-1.7q0-0.2-0.1-0.3 0-0.1 0-0.3-0.4 0.4-0.9 0.6zm0.3-1.1q0.2-0.2 0.4-0.4 0.1-0.2 0.1-0.5 0-0.2 0-0.4v-0.6q-0.1 0.1-0.2 0.2-0.2 0-0.4 0.1-0.1 0-0.3 0-0.2 0-0.4 0.1-0.2 0-0.4 0.1-0.2 0-0.3 0.1-0.2 0.1-0.2 0.3-0.1 0.1-0.1 0.4 0 0.2 0.1 0.3 0 0.2 0.2 0.3 0.1 0.1 0.3 0.1 0.2 0 0.4 0 0.5 0 0.8-0.1zm5.6 2.9q-0.5 0.3-1.3 0.3-0.3 0-0.5 0-0.3 0-0.5 0v-1.4q0.2 0 0.5 0 0.2 0.1 0.4 0 0.4 0 0.5-0.2 0.2-0.2 0.2-0.5 0-0.2-0.1-0.4l-2.1-5.7h1.8l1.3 4.2h0.1l1.3-4.2h1.7l-2.5 6.8q-0.3 0.8-0.8 1.1zm4-2.1q-0.5-0.4-0.5-1.3 0-0.5 0.2-0.8 0.2-0.4 0.5-0.6 0.4-0.2 0.8-0.2 0.4-0.1 0.7-0.2h0.7q0.5 0 0.8-0.1 0.2-0.1 0.4-0.2 0.1-0.2 0.1-0.4 0.1-0.2 0.1-0.5 0-0.3-0.1-0.5-0.1-0.2-0.3-0.3-0.2-0.2-0.5-0.3-0.3-0.1-0.8-0.1-0.8 0-1.3 0.4-0.5 0.4-0.5 1.2h-0.5q0.1-1 0.7-1.5 0.5-0.5 1.6-0.5 1.1 0 1.6 0.5 0.5 0.4 0.5 1.1v3.5q0 0.1 0 0.2 0 0.2 0.1 0.3 0 0.1 0.1 0.1 0.1 0.1 0.2 0.1 0.1 0 0.3 0v0.3q-0.1 0.1-0.3 0.1-0.3 0-0.4-0.1-0.2-0.1-0.3-0.2-0.1-0.1-0.1-0.2 0-0.2 0-0.4v-0.3h-0.1q-0.1 0.3-0.3 0.5-0.2 0.2-0.4 0.4-0.3 0.2-0.7 0.3-0.4 0.1-0.8 0.1-0.9 0-1.5-0.4zm0.4-0.3q0.4 0.3 1.1 0.3 0.8 0 1.2-0.2 0.5-0.3 0.7-0.7 0.2-0.3 0.3-0.7 0.1-0.3 0.1-0.4v-1.1q-0.2 0.2-0.5 0.2-0.4 0.1-0.8 0.1l-0.7 0.1q-0.3 0-0.7 0.1-0.3 0.1-0.6 0.2-0.2 0.2-0.4 0.4-0.1 0.3-0.1 0.7 0 0.7 0.4 1zm5.2 2.7v-8.1h0.5v1.3q0.1-0.2 0.2-0.4 0.2-0.3 0.5-0.5 0.2-0.3 0.6-0.4 0.4-0.2 0.9-0.2 0.7 0 1.2 0.3 0.5 0.2 0.8 0.7 0.4 0.4 0.5 1 0.2 0.6 0.2 1.2 0 0.7-0.2 1.3-0.1 0.5-0.5 0.9-0.3 0.5-0.8 0.7-0.5 0.2-1.2 0.2-0.8 0-1.3-0.3-0.6-0.3-0.9-1.1v3.4zm1.6-2.6q0.4 0.2 1 0.2 0.6 0 1-0.2 0.5-0.2 0.8-0.6 0.2-0.4 0.4-0.9 0.1-0.4 0.1-1 0-0.5-0.1-1-0.2-0.5-0.4-0.9-0.3-0.4-0.7-0.6-0.5-0.3-1.1-0.3-0.6 0-1 0.2-0.4 0.3-0.7 0.7-0.2 0.4-0.3 0.9-0.2 0.4-0.2 1 0 0.5 0.1 1 0.2 0.5 0.4 0.9 0.3 0.4 0.7 0.6zm4.8-5.5h0.4v6h-0.4z"/>
			<path id="Layer" class="s15" d="m57.6 29.3c-0.4-0.4-0.4-1.1 0-1.6 0.5-0.4 1.2-0.4 1.6 0 0.4 0.5 0.4 1.2 0 1.6-0.4 0.4-1.1 0.4-1.6 0z"/>
			<path id="Layer" class="s15" d="m60.2 31.9c-0.4-0.5-0.4-1.1 0-1.6 0.5-0.4 1.2-0.4 1.6 0 0.4 0.5 0.4 1.1 0 1.6-0.4 0.4-1.1 0.4-1.6 0z"/>
			<path id="Layer" class="s15" d="m62.8 34.5c-0.4-0.5-0.4-1.2 0-1.6 0.4-0.4 1.1-0.4 1.6 0 0.4 0.4 0.4 1.1 0 1.6-0.5 0.4-1.2 0.4-1.6 0z"/>
			<path id="Layer" class="s15" d="m55.1 31.9c-0.5-0.5-0.5-1.1 0-1.6 0.4-0.4 1.1-0.4 1.5 0 0.4 0.5 0.4 1.1 0 1.6-0.4 0.4-1.1 0.4-1.5 0z"/>
			<path id="Layer" class="s16" d="m57.6 34.5c-0.4-0.5-0.4-1.2 0-1.6 0.5-0.4 1.2-0.4 1.6 0 0.4 0.4 0.4 1.1 0 1.6-0.4 0.4-1.1 0.4-1.6 0z"/>
			<path id="Layer" class="s16" d="m60.2 37.1c-0.4-0.5-0.4-1.2 0-1.6 0.5-0.4 1.2-0.4 1.6 0 0.4 0.4 0.4 1.1 0 1.6-0.4 0.4-1.1 0.4-1.6 0z"/>
			<path id="Layer" class="s15" d="m52.5 34.5c-0.4-0.5-0.4-1.2 0-1.6 0.4-0.4 1.1-0.4 1.5 0 0.5 0.4 0.5 1.1 0 1.6-0.4 0.4-1.1 0.4-1.5 0z"/>
			<path id="Layer" class="s16" d="m55.1 37.1c-0.5-0.5-0.5-1.2 0-1.6 0.4-0.4 1.1-0.4 1.5 0 0.4 0.4 0.4 1.1 0 1.6-0.4 0.4-1.1 0.4-1.5 0z"/>
			<path id="Layer" class="s17" d="m57.6 39.6c-0.4-0.4-0.4-1.1 0-1.5 0.5-0.4 1.2-0.4 1.6 0 0.4 0.4 0.4 1.1 0 1.5-0.4 0.5-1.1 0.5-1.6 0z"/>
		</g>
	</g>
</svg>